<?xml version="1.0" encoding="utf-8"?>
<!-- Generator: Adobe Illustrator 27.4.0, SVG Export Plug-In . SVG Version: 6.00 Build 0)  -->
<svg version="1.1" xmlns="http://www.w3.org/2000/svg" xmlns:xlink="http://www.w3.org/1999/xlink" x="0px" y="0px"
	 viewBox="0 0 400 400" style="enable-background:new 0 0 400 400;" xml:space="preserve">
<g id="gimbal">
	<g>
		<path d="M120,0C91.59,0,68.57,53.73,68.57,120S91.59,240,120,240s51.43-53.73,51.43-120S148.41,0,120,0z M120,214.29
			c-14.2,0-25.71-42.21-25.71-94.29S105.8,25.71,120,25.71s25.71,42.21,25.71,94.29S134.2,214.29,120,214.29z"/>
	</g>
	<g>
		<path d="M0,120c0,28.41,53.73,51.43,120,51.43S240,148.41,240,120s-53.73-51.43-120-51.43S0,91.59,0,120z M214.29,120
			c0,14.2-42.21,25.71-94.29,25.71S25.71,134.2,25.71,120S67.93,94.29,120,94.29S214.29,105.8,214.29,120z"/>
	</g>
</g>
<g id="industrial">
	<path d="M202.02,364c0-19.88-16.12-36-36-36l-125.99,0l0,71.99l125.99,0l0,0C185.9,400,202.02,383.88,202.02,364z M184.02,364
		c0,9.94-8.06,18-18,18s-18-8.06-18-18c0-9.94,8.06-18,18-18S184.02,354.06,184.02,364z"/>
	<rect x="162.67" y="288.59" transform="matrix(0.7071 -0.7071 0.7071 0.7071 -151.3527 247.7745)" width="121.49" height="36"/>
	<rect x="336.69" y="218.32" transform="matrix(0.7071 -0.7071 0.7071 0.7071 -56.08 328.2416)" width="63" height="27"/>
	<rect x="266.69" y="148.32" transform="matrix(0.7071 -0.7071 0.7071 0.7071 -27.0859 258.2435)" width="63" height="27"/>
	<path d="M304.55,225.45c-14.06-14.06-36.85-14.06-50.91,0s-14.06,36.85,0,50.91s36.85,14.06,50.91,0S318.61,239.51,304.55,225.45z
		 M291.82,238.18c7.03,7.03,7.03,18.42,0,25.45c-7.03,7.03-18.42,7.03-25.45,0c-7.03-7.03-7.03-18.42,0-25.45
		C273.4,231.15,284.79,231.15,291.82,238.18z"/>
	<path d="M288.64,225.65c-8.37-3.16-17.99-2.02-25.45,3.44v-51.36L275.91,165l12.73,12.73V225.65z"/>
	<path d="M352.27,266.81h-51.36c5.45-7.46,6.6-17.08,3.44-25.45h47.93L365,254.09L352.27,266.81z"/>
</g>
</svg>
