<?xml version="1.0" encoding="utf-8"?>
<!-- Generator: Adobe Illustrator 27.4.0, SVG Export Plug-In . SVG Version: 6.00 Build 0)  -->
<svg version="1.1" id="arrow" xmlns="http://www.w3.org/2000/svg" xmlns:xlink="http://www.w3.org/1999/xlink" x="0px" y="0px"
	 viewBox="0 0 400 400" style="enable-background:new 0 0 400 400;" xml:space="preserve">
<g>
	<path d="M72.7,177.47h34.6c8.58,0.03,16.84,3.02,23.42,8.42L180,238.57L90,71.43L0,238.57l49.29-52.68
		C55.87,180.49,64.13,177.5,72.7,177.47z"/>
	<polygon points="90,296.52 55.4,212.07 20.81,248.19 46.25,245.14 90,328.57 133.24,245.14 159.19,248.19 124.6,212.07 	"/>
	<path d="M103.23,196.8H77.28c-0.65,0.01-1.3,0.14-1.91,0.38c-2.88,1.12-4.3,4.88-3.18,7.76L90,245.14l18.32-40.7
		c0.24-0.61,0.37-1.26,0.38-1.91C108.77,199.43,106.32,196.87,103.23,196.8z"/>
</g>
<rect x="200" y="260" transform="matrix(-1 -1.224647e-16 1.224647e-16 -1 600 560)" width="200" height="40"/>
<polygon points="300,240 360,180 240,180 "/>
</svg>
