<?xml version="1.0" encoding="utf-8"?>
<!-- Generator: Adobe Illustrator 27.4.0, SVG Export Plug-In . SVG Version: 6.00 Build 0)  -->
<svg version="1.1" id="Layer_1" xmlns="http://www.w3.org/2000/svg" xmlns:xlink="http://www.w3.org/1999/xlink" x="0px" y="0px"
	 viewBox="0 0 400 400" style="enable-background:new 0 0 400 400;" xml:space="preserve">
<path d="M282.84,0H117.16L0,117.16v165.69L117.16,400h165.69L400,282.84V117.16L282.84,0z M296.22,244.09
	c0,53.3-43.13,96.43-96.43,96.43c-53.3,0-96.43-43.13-96.43-96.43V127.21c0-8.07,6.55-14.61,14.61-14.61
	c8.07,0,14.61,6.55,14.61,14.61v73.05h11.69V92.14c0-8.07,6.55-14.61,14.61-14.61c8.07,0,14.61,6.55,14.61,14.61v96.43h11.69V74.61
	c0-8.07,6.55-14.61,14.61-14.61c8.07,0,14.61,6.55,14.61,14.61v113.96h11.69V97.99c0-8.07,6.55-14.61,14.61-14.61
	s14.61,6.55,14.61,14.61v126c-23.03,2.92-40.91,22.56-40.91,46.4h11.69c0-19.29,15.78-35.07,35.07-35.07H267v-67.21
	c0-8.07,6.55-14.61,14.61-14.61c8.07,0,14.61,6.55,14.61,14.61V244.09z"/>
</svg>
