<?xml version="1.0" encoding="utf-8"?>
<!-- Generator: Adobe Illustrator 27.4.0, SVG Export Plug-In . SVG Version: 6.00 Build 0)  -->
<svg version="1.1" id="arrow" xmlns="http://www.w3.org/2000/svg" xmlns:xlink="http://www.w3.org/1999/xlink" x="0px" y="0px"
	 viewBox="0 0 400 400" style="enable-background:new 0 0 400 400;" xml:space="preserve">
<g>
	<path d="M226.91,235.05l-53.82,0c-13.34-0.04-26.19-4.7-36.43-13.09L60,140l140,260l140-260l-76.67,81.95
		C253.1,230.34,240.25,235,226.91,235.05z"/>
	<polygon points="200,49.86 253.82,181.23 307.63,125.04 268.06,129.79 200,0 132.73,129.79 92.37,125.04 146.18,181.23 	"/>
	<path d="M179.42,204.97h40.36c1.02-0.02,2.02-0.22,2.97-0.59c4.48-1.75,6.69-7.59,4.94-12.07L200,129.79l-28.49,63.31
		c-0.37,0.95-0.57,1.95-0.59,2.97C170.81,200.88,174.62,204.86,179.42,204.97z"/>
</g>
</svg>
