<?xml version="1.0" encoding="utf-8"?>
<!-- Generator: Adobe Illustrator 27.4.0, SVG Export Plug-In . SVG Version: 6.00 Build 0)  -->
<svg version="1.1" id="arrow" xmlns="http://www.w3.org/2000/svg" xmlns:xlink="http://www.w3.org/1999/xlink" x="0px" y="0px"
	 viewBox="0 0 400 400" style="enable-background:new 0 0 400 400;" xml:space="preserve">
<style type="text/css">
	.st0{display:none;}
</style>
<g>
	<path d="M315.51,210.94l-17.57,30.43c-4.38,7.53-11.21,13.27-19.29,16.32l-71.37,16.6L400,280L298.69,115.96l21.31,70.1
		C321.4,194.59,319.84,203.38,315.51,210.94z"/>
	<polygon points="202.02,165.69 293.87,178.15 279.66,129.38 269.43,153.3 173.82,149.42 225.25,229.82 209.39,251.1 258.73,239.01 
			"/>
	<path d="M283.01,227.97l13.18-22.82c0.32-0.58,0.53-1.22,0.63-1.88c0.47-3.1-2.11-6.26-5.21-6.73l-44.39-4.75l26.5,36.78
		c0.42,0.52,0.92,0.96,1.49,1.31C277.88,231.5,281.38,230.65,283.01,227.97z"/>
</g>
<path class="st0" d="M180,60C80,60,0,165.07,0,270c0,1.78,0.03,3.55,0.07,5.31C2.55,189.12,73.2,120,160,120c60,0,100,40,120,80v-60
	l63,30C300,80,240,60,180,60z"/>
<path d="M220,220C80,160,0,280.56,0,280.56S60,60,280,160h-80L220,220z"/>
</svg>
