<?xml version="1.0" encoding="utf-8"?>
<!-- Generator: Adobe Illustrator 27.4.0, SVG Export Plug-In . SVG Version: 6.00 Build 0)  -->
<svg version="1.1" id="arrow" xmlns="http://www.w3.org/2000/svg" xmlns:xlink="http://www.w3.org/1999/xlink" x="0px" y="0px"
	 viewBox="0 0 400 400" style="enable-background:new 0 0 400 400;" xml:space="preserve">
<g>
	<path d="M173.09,164.95h53.82c13.34,0.04,26.19,4.7,36.43,13.09L340,260L200,0L60,260l76.67-81.95
		C146.9,169.66,159.75,165,173.09,164.95z"/>
	<polygon points="200,350.14 146.18,218.77 92.37,274.96 131.94,270.21 200,400 267.27,270.21 307.63,274.96 253.82,218.77 	"/>
	<path d="M220.58,195.03h-40.36c-1.02,0.02-2.02,0.22-2.97,0.59c-4.48,1.75-6.69,7.59-4.94,12.07l27.7,62.52l28.49-63.31
		c0.37-0.95,0.57-1.95,0.59-2.97C229.19,199.12,225.38,195.14,220.58,195.03z"/>
</g>
</svg>
