<?xml version="1.0" encoding="utf-8"?>
<!-- Generator: Adobe Illustrator 27.4.0, SVG Export Plug-In . SVG Version: 6.00 Build 0)  -->
<svg version="1.1" xmlns="http://www.w3.org/2000/svg" xmlns:xlink="http://www.w3.org/1999/xlink" x="0px" y="0px"
	 viewBox="0 0 400 400" style="enable-background:new 0 0 400 400;" xml:space="preserve">
<g id="speed_x5F_meter">
	<g id="meter">
		<g>
			<polygon points="80,20 80,130 40,130 40,150 80,150 80,180 40,180 40,200 80,200 80,230 0,230 0,250 80,250 80,280 40,280 
				40,300 80,300 80,330 40,330 40,350 80,350 80,380 0,380 0,400 80,400 120,400 120,20 			"/>
		</g>
	</g>
	<polygon id="vector" points="100,0 170,70 150,90 100,40 50,90 30,70 	"/>
</g>
<g id="toggle_00000083805600808857484010000000179534480855147199_">
	<polygon id="limit" points="140,240 200,180 200,300 	"/>
	<g id="toggle">
		<g id="toggle_00000003796461442717959090000016111378498880301219_">
			<g>
				<path d="M346.71,151.21v42.18l22.36,22.37v49.43l-34.93,34.95h-49.4l-34.93-34.93v-49.43l22.36-22.37v-42.18L220,203.43v74.14
					L272.4,330h74.1l52.38-52.44v-74.14L346.71,151.21z M327.33,151h-35.78v119.32h35.78V151z"/>
			</g>
		</g>
	</g>
</g>
</svg>
