<?xml version="1.0" encoding="utf-8"?>
<!-- Generator: Adobe Illustrator 27.4.0, SVG Export Plug-In . SVG Version: 6.00 Build 0)  -->
<svg version="1.1" xmlns="http://www.w3.org/2000/svg" xmlns:xlink="http://www.w3.org/1999/xlink" x="0px" y="0px"
	 viewBox="0 0 400 400" style="enable-background:new 0 0 400 400;" xml:space="preserve">
<g id="speed_x5F_meter">
	<g id="meter">
		<g>
			<polygon points="80,20 80,130 40,130 40,150 80,150 80,180 40,180 40,200 80,200 80,230 0,230 0,250 80,250 80,280 40,280 
				40,300 80,300 80,330 40,330 40,350 80,350 80,380 0,380 0,400 80,400 120,400 120,20 			"/>
		</g>
	</g>
	<polygon id="vector" points="100,0 170,70 150,90 100,40 50,90 30,70 	"/>
</g>
<g id="toggle_00000083805600808857484010000000179534480855147199_">
	<polygon id="limit" points="130,240 170,200 170,280 	"/>
	<g>
		<path d="M209.67,320.33v-31.44H180v24.44c0,20.25,16.42,36.67,36.67,36.67h24.44v-29.67H209.67z"/>
		<path d="M209.67,159.67h31.44V130h-24.44c-20.25,0-36.67,16.42-36.67,36.67v24.44h29.67V159.67z"/>
		<path d="M363.33,130h-24.44v29.67h31.44v31.44H400v-24.44C400,146.42,383.58,130,363.33,130z"/>
		<path d="M370.33,320.33h-31.44V350h24.44c20.25,0,36.67-16.42,36.67-36.67v-24.44h-29.67V320.33z"/>
	</g>
	<polygon points="270,160 290,120 310,160 	"/>
	<circle cx="290" cy="240" r="20"/>
</g>
</svg>
