<?xml version="1.0" encoding="UTF-8" standalone="no"?>
<!DOCTYPE svg PUBLIC "-//W3C//DTD SVG 1.1//EN" "http://www.w3.org/Graphics/SVG/1.1/DTD/svg11.dtd">
<svg width="100%" height="100%" viewBox="0 0 400 400" version="1.1" xmlns="http://www.w3.org/2000/svg" xmlns:xlink="http://www.w3.org/1999/xlink" xml:space="preserve" xmlns:serif="http://www.serif.com/" style="fill-rule:evenodd;clip-rule:evenodd;stroke-linejoin:round;stroke-miterlimit:2;">
    <g transform="matrix(1,0,0,1,0,-20)">
        <g id="icon">
            <g transform="matrix(1,0,0,1,0,20)">
                <path d="M240.525,330L100,330L100,290L170,290L170,260L230,260L230,290L253.567,290C246.578,301.977 242.007,315.534 240.525,330Z"/>
            </g>
            <g transform="matrix(1,0,0,1,0,20)">
                <path d="M380,120L380,200C380,210.609 375.786,220.783 368.284,228.284C360.783,235.786 350.609,240 340,240L60,240C49.391,240 39.217,235.786 31.716,228.284C24.214,220.783 20,210.609 20,200L20,120C20,109.391 24.214,99.217 31.716,91.716C39.217,84.214 49.391,80 60,80L340,80C350.609,80 360.783,84.214 368.284,91.716C375.786,99.217 380,109.391 380,120ZM100,120C77.923,120 60,137.923 60,160C60,182.077 77.923,200 100,200C122.077,200 140,182.077 140,160C140,137.923 122.077,120 100,120ZM300,120C277.923,120 260,137.923 260,160C260,182.077 277.923,200 300,200C322.077,200 340,182.077 340,160C340,137.923 322.077,120 300,120Z"/>
            </g>
            <g id="toggle" transform="matrix(1,0,0,1,0,20)">
                <g>
                    <path d="M365,280.43L365,308.71L380,323.71L380,356.85L356.57,380.28L323.43,380.28L300,356.86L300,323.72L315,308.72L315,280.44L280,315.44L280,365.15L315.15,400.3L364.86,400.3L400,365.14L400,315.43L365,280.43ZM352,280.29L328,280.29L328,360.29L352,360.29L352,280.29Z" style="fill-rule:nonzero;"/>
                </g>
            </g>
        </g>
    </g>
</svg>
