<?xml version="1.0" encoding="utf-8"?>
<!-- Generator: Adobe Illustrator 27.4.0, SVG Export Plug-In . SVG Version: 6.00 Build 0)  -->
<svg version="1.1" id="icon" xmlns="http://www.w3.org/2000/svg" xmlns:xlink="http://www.w3.org/1999/xlink" x="0px" y="0px"
	 viewBox="0 0 400 400" style="enable-background:new 0 0 400 400;" xml:space="preserve">
<path d="M300,100c-44.18,0-80,35.82-80,80l-9.68,121.03c-0.21,1.29-0.32,2.62-0.32,3.97c0,13.81,11.19,25,25,25
	c8.18,0,15.44-3.93,20-10l84.6-70.5c24.13-13.78,40.4-39.73,40.4-69.5C380,135.82,344.18,100,300,100z M300,240
	c-33.14,0-60-26.86-60-60s26.86-60,60-60s60,26.86,60,60S333.14,240,300,240z"/>
<path d="M189.68,301.03L180,180c0-44.18-35.82-80-80-80s-80,35.82-80,80c0,29.77,16.28,55.73,40.4,69.5L145,320
	c4.56,6.07,11.82,10,20,10c13.81,0,25-11.19,25-25C190,303.65,189.89,302.32,189.68,301.03z M100,240c-33.14,0-60-26.86-60-60
	s26.86-60,60-60s60,26.86,60,60S133.14,240,100,240z"/>
<path d="M200,190c-16.57,0-30,13.43-30,30c0,6.13,1.84,11.83,5,16.58V285h10.87c-0.55,1.57-0.87,3.24-0.87,5c0,8.28,6.72,15,15,15
	s15-6.72,15-15c0-1.76-0.32-3.43-0.87-5H225v-48.42c3.16-4.75,5-10.45,5-16.58C230,203.43,216.57,190,200,190z M200,235
	c-8.28,0-15-6.72-15-15c0-8.28,6.72-15,15-15s15,6.72,15,15C215,228.28,208.28,235,200,235z"/>
</svg>
