<?xml version="1.0" encoding="utf-8"?>
<!-- Generator: Adobe Illustrator 27.4.0, SVG Export Plug-In . SVG Version: 6.00 Build 0)  -->
<svg version="1.1" xmlns="http://www.w3.org/2000/svg" xmlns:xlink="http://www.w3.org/1999/xlink" x="0px" y="0px"
	 viewBox="0 0 400 400" style="enable-background:new 0 0 400 400;" xml:space="preserve">
<g id="cam">
	<g>
		<path d="M248.41,247.34c13.37-12.53,21.71-30.2,21.71-49.79c0-37.98-31.29-68.77-69.88-68.77c-38.6,0-69.88,30.79-69.88,68.77
			c0,19.63,8.37,37.32,21.77,49.85c15.04,1.69,31.14,2.6,47.88,2.6C216.94,250,233.22,249.06,248.41,247.34z M158.3,197.54
			c0-22.79,18.77-41.26,41.93-41.26c23.16,0,41.93,18.47,41.93,41.26c0,22.79-18.77,41.26-41.93,41.26
			C177.08,238.81,158.3,220.33,158.3,197.54z"/>
		<path d="M312.05,87.51h-44.31L242.16,60H158.3l-25.58,27.51H88.42c-15.44,0-27.95,12.32-27.95,27.51v103.37
			c6.61,5.57,16.14,10.65,27.95,15.03v-118.4h56.61l25.58-27.51h59.26l25.58,27.51h56.61v118.22c11.88-4.45,21.41-9.6,27.95-15.26
			V115.02C340,99.83,327.48,87.51,312.05,87.51z"/>
	</g>
</g>
<g id="orbit">
	<path d="M370,147.31V200c0,38.66-76.11,70-170,70S30,238.66,30,200v-52.69C10.99,162.61,0,180.66,0,200c0,55.23,89.54,100,200,100
		s200-44.77,200-100C400,180.66,389.01,162.61,370,147.31z"/>
</g>
</svg>
