<?xml version="1.0" encoding="UTF-8" standalone="no"?>
<!DOCTYPE svg PUBLIC "-//W3C//DTD SVG 1.1//EN" "http://www.w3.org/Graphics/SVG/1.1/DTD/svg11.dtd">
<svg width="100%" height="100%" viewBox="0 0 400 400" version="1.1" xmlns="http://www.w3.org/2000/svg" xmlns:xlink="http://www.w3.org/1999/xlink" xml:space="preserve" xmlns:serif="http://www.serif.com/" style="fill-rule:evenodd;clip-rule:evenodd;stroke-linejoin:round;stroke-miterlimit:2;">
    <g id="icon">
        <g transform="matrix(16,0,0,16,8,24)">
            <path d="M20,4L16.83,4L15,2L9,2L7.17,4L4,4C2.903,4 2,4.903 2,6L2,18C2,19.097 2.903,20 4,20L20,20C21.097,20 22,19.097 22,18L22,6C22,4.903 21.097,4 20,4M20,18L4,18L4,6L8.05,6L9.88,4L14.12,4L15.95,6L20,6L20,18" style="fill-rule:nonzero;"/>
        </g>
        <path d="M145.141,244.859C138.721,234.783 135,222.822 135,210C135,174.126 164.126,145 200,145C209.091,145 217.748,146.87 225.608,150.247L213.789,177.825C209.557,176.007 204.895,175 200,175C180.683,175 165,190.683 165,210C165,214.457 165.835,218.721 167.357,222.643L145.141,244.859ZM254.859,175.141C261.279,185.217 265,197.178 265,210C265,245.874 235.874,275 200,275C190.909,275 182.252,273.13 174.392,269.753L186.211,242.175C190.443,243.993 195.105,245 200,245C219.317,245 235,229.317 235,210C235,205.543 234.165,201.279 232.643,197.357L254.859,175.141Z"/>
        <path d="M200,120L240,160L200,200L200,120Z"/>
        <g transform="matrix(-1,1.22465e-16,-1.22465e-16,-1,400,420)">
            <path d="M200,120L240,160L200,200L200,120Z"/>
        </g>
    </g>
</svg>
