<?xml version="1.0" encoding="utf-8"?>
<!-- Generator: Adobe Illustrator 27.4.0, SVG Export Plug-In . SVG Version: 6.00 Build 0)  -->
<svg version="1.1" id="icon" xmlns="http://www.w3.org/2000/svg" xmlns:xlink="http://www.w3.org/1999/xlink" x="0px" y="0px"
	 viewBox="0 0 400 400" style="enable-background:new 0 0 400 400;" xml:space="preserve">
<g>
	<path d="M208.33,228.24C201.09,235.5,191.07,240,180,240c-22.09,0-40-17.91-40-40c0-22.09,17.91-40,40-40c1,0,1.98,0.05,2.96,0.12
		l31.2-116.44C203.15,41.28,191.73,40,180,40C91.63,40,20,111.63,20,200c0,22.19,4.52,43.33,12.69,62.54l259.17,51.83
		c7.94-7.77,15.08-16.36,21.28-25.63L208.33,228.24z"/>
</g>
<g>
	<path d="M305.83,261.43l17.36,10.02C333.94,249.94,340,225.68,340,200c0-15.22-2.13-29.94-6.1-43.89
		c-6.24,8.64-11.13,17.69-14.97,26.58c0.7,5.67,1.07,11.45,1.07,17.31C320,222.04,314.9,242.88,305.83,261.43z"/>
	<path d="M228.2,68.55c8.01,2.94,15.69,6.58,22.95,10.87c5.75-4.31,10.89-9.01,15.47-13.96c-10.32-6.66-21.46-12.14-33.22-16.3
		L228.2,68.55z"/>
</g>
<circle cx="180" cy="200" r="20"/>
<path d="M305,35c0,0,0,70-70,70c0,0,70,0,70,70c0,0,0-70,70-70C375,105,305,105,305,35z"/>
<polygon points="24.32,284.86 8.49,321.7 300,380 296.88,339.38 "/>
</svg>
