<?xml version="1.0" encoding="utf-8"?>
<!-- Generator: Adobe Illustrator 27.4.0, SVG Export Plug-In . SVG Version: 6.00 Build 0)  -->
<svg version="1.1" id="icon" xmlns="http://www.w3.org/2000/svg" xmlns:xlink="http://www.w3.org/1999/xlink" x="0px" y="0px"
	 viewBox="0 0 400 400" style="enable-background:new 0 0 400 400;" xml:space="preserve">
<path d="M170,60c-60.75,0-110,49.25-110,110c0,60.75,49.25,110,110,110s110-49.25,110-110C280,109.25,230.75,60,170,60z M170,250
	c-44.18,0-80-35.82-80-80c0-44.18,35.82-80,80-80s80,35.82,80,80C250,214.18,214.18,250,170,250z"/>
<polygon points="270,245 260,245 250,235 235,250 245,260 245,270 330,355 355,330 "/>
<polygon points="170,105 120,155 220,155 "/>
<polygon points="170,235 220,185 120,185 "/>
</svg>
