<svg xmlns="http://www.w3.org/2000/svg" width="400" height="400" viewBox="0 0 400 400">
  <defs>
    <style>
      .cls-1 {
        fill-rule: evenodd;
      }
    </style>
  </defs>
  <path id="radar_ping" class="cls-1" d="M340.629,312.345h0q-1.543,1.93-3.139,3.815l-0.09.107q-4.837,5.711-10.121,11.012l-0.008-.008a180.959,180.959,0,0,1-14.926,13.358l-6.487-6.487-14.883-14.883-80.62-80.62a39.989,39.989,0,1,1,28.284-28.284l30.272,30.271A80,80,0,1,0,200,280v30a110.024,110.024,0,1,1,90.621-47.664l28.638,28.639A150,150,0,1,0,200,350v30A180.014,180.014,0,1,1,340.629,312.345Z"/>
</svg>
