<?xml version="1.0" encoding="utf-8"?>
<!-- Generator: Adobe Illustrator 27.4.0, SVG Export Plug-In . SVG Version: 6.00 Build 0)  -->
<svg version="1.1" id="icon" xmlns="http://www.w3.org/2000/svg" xmlns:xlink="http://www.w3.org/1999/xlink" x="0px" y="0px"
	 viewBox="0 0 400 400" style="enable-background:new 0 0 400 400;" xml:space="preserve">
<path d="M360.06,220.06L188.26,48.26C182.97,42.97,175.8,40,168.32,40H68.21C52.63,40,40,52.63,40,68.21v100.11
	c0,7.48,2.97,14.65,8.26,19.94l171.79,171.79c11.02,11.02,28.87,11.02,39.89,0l100.11-100.11
	C371.07,248.93,371.07,231.07,360.06,220.06z M80,100c-11.05,0-20-8.95-20-20c0-11.05,8.95-20,20-20s20,8.95,20,20
	C100,91.05,91.05,100,80,100z M200,285l-28.28-28.28C178.95,249.48,188.95,245,200,245s21.05,4.48,28.28,11.72L200,285z
	 M242.43,242.57C231.57,231.72,216.57,225,200,225s-31.57,6.72-42.43,17.57l-14.14-14.14C157.91,213.95,177.91,205,200,205
	c22.09,0,42.09,8.95,56.57,23.43L242.43,242.57z M270.71,214.29C252.61,196.19,227.61,185,200,185c-27.61,0-52.61,11.19-70.71,29.29
	l-14.14-14.14C136.86,178.43,166.86,165,200,165c33.14,0,63.14,13.43,84.85,35.15L270.71,214.29z"/>
</svg>
