<?xml version="1.0" encoding="utf-8"?>
<!-- Generator: Adobe Illustrator 27.4.0, SVG Export Plug-In . SVG Version: 6.00 Build 0)  -->
<svg version="1.1" id="icon_00000080907586390542060580000009508863219099910284_"
	 xmlns="http://www.w3.org/2000/svg" xmlns:xlink="http://www.w3.org/1999/xlink" x="0px" y="0px" viewBox="0 0 400 400"
	 style="enable-background:new 0 0 400 400;" xml:space="preserve">
<style type="text/css">
	.st0{fill-rule:evenodd;clip-rule:evenodd;}
</style>
<path id="signal" class="st0" d="M348.49,111.51c-82.01-82.01-214.97-82.01-296.98,0L30.29,90.29c93.73-93.73,245.69-93.73,339.41,0
	c0,0,0,0,0,0L348.49,111.51z M327.28,132.72l-21.21,21.21c-58.58-58.58-153.55-58.58-212.13,0l-21.21-21.21
	C143.02,62.43,256.98,62.43,327.28,132.72L327.28,132.72z M284.85,175.15l-21.21,21.21c-35.15-35.15-92.13-35.15-127.28,0
	c0,0,0,0,0,0l-21.21-21.21C162.01,128.28,237.99,128.28,284.85,175.15C284.85,175.15,284.85,175.15,284.85,175.15z"/>
<path id="scan" class="st0" d="M170.14,311.7c9.24,5.45,19.76,8.32,30.48,8.32c33.13,0,59.99-26.87,59.99-60
	c0-10.72-2.87-21.25-8.32-30.48c-16.83-28.54-53.62-38.04-82.16-21.21c-28.54,16.83-38.04,53.62-21.21,82.16L100,339.41l21.21,21.21
	L170.14,311.7z M170.61,260.02c0-16.57,13.43-30,30-30s30,13.43,30,30s-13.43,30-30,30S170.61,276.59,170.61,260.02z"/>
</svg>
