<?xml version="1.0" encoding="utf-8"?>
<!-- Generator: Adobe Illustrator 27.4.0, SVG Export Plug-In . SVG Version: 6.00 Build 0)  -->
<svg version="1.1" id="icon_00000080907586390542060580000009508863219099910284_"
	 xmlns="http://www.w3.org/2000/svg" xmlns:xlink="http://www.w3.org/1999/xlink" x="0px" y="0px" viewBox="0 0 400 400"
	 style="enable-background:new 0 0 400 400;" xml:space="preserve">
<style type="text/css">
	.st0{fill-rule:evenodd;clip-rule:evenodd;}
</style>
<path id="scan" class="st0" d="M169.53,351.08c9.24,5.45,19.76,8.32,30.48,8.32c33.13,0,59.99-26.87,59.99-60
	c0-10.72-2.87-21.25-8.32-30.48c-16.83-28.54-53.62-38.04-82.16-21.21c-28.54,16.83-38.04,53.62-21.21,82.16l-48.92,48.92
	L120.61,400L169.53,351.08z M170,299.39c0-16.57,13.43-30,30-30s30,13.43,30,30s-13.43,30-30,30S170,315.96,170,299.39z"/>
<g>
	<rect x="127.23" y="10.04" transform="matrix(0.9659 -0.2588 0.2588 0.9659 -25.2861 40.5538)" width="28.28" height="212.54"/>
	<rect x="244.48" y="10.04" transform="matrix(0.9659 0.2588 -0.2588 0.9659 38.9157 -62.9738)" width="28.28" height="212.54"/>
	<g>
		<path d="M200,200L248.38,5.94C232.56,2,216.31,0,200,0s-32.56,2-48.38,5.94L200,200z"/>
	</g>
</g>
</svg>
