<?xml version="1.0" encoding="utf-8"?>
<!-- Generator: Adobe Illustrator 27.4.0, SVG Export Plug-In . SVG Version: 6.00 Build 0)  -->
<svg version="1.1" xmlns="http://www.w3.org/2000/svg" xmlns:xlink="http://www.w3.org/1999/xlink" x="0px" y="0px"
	 viewBox="0 0 400 400" style="enable-background:new 0 0 400 400;" xml:space="preserve">
<g id="bomb">
	<polygon points="208.55,245.09 205.76,194.51 160.79,228.21 	"/>
	<rect x="61.11" y="48.35" transform="matrix(0.8003 -0.5996 0.5996 0.8003 -29.4271 64.5491)" width="42.15" height="56.19"/>
	<rect x="113.05" y="84.9" transform="matrix(0.8003 -0.5996 0.5996 0.8003 -64.8404 115.6281)" width="56.19" height="140.49"/>
	<polygon points="87.82,37.11 113.12,0.6 129.97,23.08 104.67,59.6 	"/>
	<polygon points="42.85,70.81 59.7,93.3 17.54,107.33 0.7,84.84 	"/>
</g>
<g id="target">
	<circle cx="220" cy="260" r="20"/>
	<path d="M220,120c-12.6,0-24.8,1.67-36.41,4.79l23.25,31.03c4.31-0.54,8.7-0.82,13.16-0.82c57.99,0,105,47.01,105,105
		c0,57.99-47.01,105-105,105c-57.99,0-105-47.01-105-105c0-16.15,3.65-31.44,10.16-45.11l-22.93-30.61C88.16,206.11,80,232.1,80,260
		c0,77.32,62.68,140,140,140s140-62.68,140-140S297.32,120,220,120z"/>
</g>
</svg>
