<?xml version="1.0" encoding="UTF-8"?>
<svg id="Layer_1" data-name="Layer 1" xmlns="http://www.w3.org/2000/svg" viewBox="0 0 400 400">
  <defs>
    <style>
      .cls-1 {
        fill: #fff;
      }
    </style>
  </defs>
  <polygon points="282.84 0 117.16 0 0 117.16 0 282.84 117.16 400 282.84 400 400 282.84 400 117.16 282.84 0"/>
  <path class="cls-1" d="m281.61,153.51c-8.07,0-14.61,6.55-14.61,14.61v67.21h-5.84c-19.29,0-35.07,15.78-35.07,35.07h-11.69c0-23.84,17.88-43.48,40.91-46.4v-126c0-8.07-6.55-14.61-14.61-14.61s-14.61,6.55-14.61,14.61v90.59h-11.69v-113.96c0-8.07-6.55-14.61-14.61-14.61s-14.61,6.55-14.61,14.61v113.96h-11.69v-96.43c0-8.07-6.55-14.61-14.61-14.61s-14.61,6.55-14.61,14.61v108.12h-11.69v-73.05c0-8.07-6.55-14.61-14.61-14.61s-14.61,6.55-14.61,14.61v116.88c0,53.3,43.13,96.43,96.43,96.43s96.43-43.13,96.43-96.43v-75.98c0-8.07-6.55-14.61-14.61-14.61Z"/>
</svg>