<?xml version="1.0" encoding="utf-8"?>
<!-- Generator: Adobe Illustrator 27.4.0, SVG Export Plug-In . SVG Version: 6.00 Build 0)  -->
<svg version="1.1" id="Layer_1" xmlns="http://www.w3.org/2000/svg" xmlns:xlink="http://www.w3.org/1999/xlink" x="0px" y="0px"
	 viewBox="0 0 400 400" style="enable-background:new 0 0 400 400;" xml:space="preserve">
<style type="text/css">
	.st0{fill-rule:evenodd;clip-rule:evenodd;}
	.st1{fill-rule:evenodd;clip-rule:evenodd;stroke:#000000;}
</style>
<path id="ship" class="st0" d="M294.05,156.94l-30.43,40.57l-10.14-10.14l25.36-35.5l-5.07-5.07l-15.21,15.22l-20.28-20.28
	l15.21-15.21l-5.07-5.07l-35.5,25.36l-10.14-10.14l40.57-30.43l-60.85-30.43l20.29-20.28l81.14,10.14l15.21-15.21l25.36-5.07
	l5.07-5.07c10.14-10.14,40.57-20.28,40.57-20.28l10.14,10.14c0,0-10.14,30.42-20.28,40.57l-5.07,5.07l-5.07,25.36l-15.21,15.21
	l10.14,81.14l-20.29,20.29L294.05,156.94z"/>
<path id="decoy" class="st0" d="M115.34,317.49c-6.08-14.74-17.79-26.45-32.54-32.54l146.41-113.88L115.34,317.49z M81.17,361.42
	c-11.68,11.68-30.62,11.68-42.3,0s-11.68-30.62,0-42.3c11.68-11.68,30.62-11.68,42.3,0C92.85,330.8,92.85,349.74,81.17,361.42
	C81.17,361.42,81.17,361.42,81.17,361.42z"/>
<path id="heat" class="st1" d="M360.2,360.09c0,0,0-30-10-40s-10-40-10-40h20c0,0,0,30,10,40s10,40,10,40H360.2z M340.2,380.09h-20
	v-20c0,0,0-30-10-40s-10-40-10-40v-20h20v20c0,0,0,30,10,40s10,40,10,40V380.09z M280.2,360.09c0,0,0-30-10-40s-10-40-10-40h20
	c0,0,0,30,10,40s10,40,10,40H280.2z"/>
<path id="sub" d="M95,95.08c15,0,30,0,45,0V65.05H95H65H20v30.03c15,0,30,0,45,0C75,95.08,85,95.08,95,95.08z"/>
</svg>
