<svg xmlns="http://www.w3.org/2000/svg" width="400" height="400" viewBox="0 0 400 400">
  <defs>
    <style>
      .cls-1 {
        fill-rule: evenodd;
      }
    </style>
  </defs>
  <path id="ship" class="cls-1" d="M193.858,256.853l-30.427,40.568-10.142-10.142,25.356-35.5-5.071-5.071L158.36,261.924,138.076,241.64l15.213-15.214-5.071-5.071-35.5,25.356-10.142-10.142,40.568-30.427L82.294,175.716l20.285-20.285,81.137,10.143,15.213-15.214,25.355-5.071c0.951-.951,2.536-2.535,5.071-5.071,10.142-10.142,40.569-20.284,40.569-20.284l10.142,10.142s-10.142,30.427-20.284,40.569c-2.536,2.535-4.12,4.12-5.071,5.071l-5.071,25.355-15.214,15.213,10.143,81.137-20.285,20.285Z"/>
  <path id="形状_1" data-name="形状 1" class="cls-1" d="M375.645,205.222A61.724,61.724,0,0,1,385.453,220H350.846a49.441,49.441,0,0,0-9.558-15.823,49.243,49.243,0,0,0-24.2-83.195,49.285,49.285,0,0,0-71.834-51.651,49.315,49.315,0,0,0-88.434-3.514,49.294,49.294,0,0,0-70.355,50.648,49.247,49.247,0,0,0-27.444,82.187,49.241,49.241,0,0,0,25.83,82.7A49.289,49.289,0,0,0,154.2,333.373a49.3,49.3,0,0,0,85.8,3.17v45.815a61.437,61.437,0,0,1-97.763-15.641A61.521,61.521,0,0,1,55.72,301.7,61.588,61.588,0,0,1,23.495,198.316,61.591,61.591,0,0,1,57.734,95.583a61.522,61.522,0,0,1,87.774-63.311,61.472,61.472,0,0,1,110.329,4.392,61.512,61.512,0,0,1,89.619,64.563A61.594,61.594,0,0,1,375.645,205.222Z"/>
  <path id="形状_2" data-name="形状 2" class="cls-1" d="M340,240L260,340h40l-20,60,80-100H320Z"/>
</svg>
