<?xml version="1.0" encoding="UTF-8"?>
<svg xmlns="http://www.w3.org/2000/svg" viewBox="0 0 400 400">
  <g id="speed_meter">
    <g id="meter">
      <polygon points="80 20 80 130 40 130 40 150 80 150 80 180 40 180 40 200 80 200 80 230 0 230 0 250 80 250 80 280 40 280 40 300 80 300 80 330 40 330 40 350 80 350 80 380 0 380 0 400 80 400 120 400 120 20 80 20"/>
    </g>
    <polygon id="vector" points="100 0 170 70 150 90 100 40 50 90 30 70 100 0"/>
  </g>
  <g id="lock">
    <path id="lock_1" d="m380.02,180h-159.8c-.12,0-.22.1-.22.22v119.78l20,20h159.78c.12,0,.22-.1.22-.22v-119.8l-19.98-19.98Zm-10.02,110h-120v-80h120v80Z"/>
    <path id="lock_2" d="m310,80h0c-33.14,0-60,26.86-60,60v40h30v-40c0-16.57,13.43-30,30-30s30,13.43,30,30v40h30v-40c0-33.14-26.86-60-60-60Z"/>
    <polygon id="limit" points="140 240 200 180 200 300 140 240"/>
  </g>
</svg>