<?xml version="1.0" encoding="utf-8"?>
<!-- Generator: Adobe Illustrator 27.4.0, SVG Export Plug-In . SVG Version: 6.00 Build 0)  -->
<svg version="1.1" xmlns="http://www.w3.org/2000/svg" xmlns:xlink="http://www.w3.org/1999/xlink" x="0px" y="0px"
	 viewBox="0 0 400 400" style="enable-background:new 0 0 400 400;" xml:space="preserve">
<style type="text/css">
	.st0{enable-background:new    ;}
</style>
<g id="pilot_in_seat">
	<g id="seat_00000012446240921242349810000013622872642998655155_" class="st0">
		<g id="seat">
			<g>
				<polygon points="339.29,100.42 306.64,280 178.97,280 178.97,320 278.97,320 299.37,320 340.03,320 378.65,107.58 				"/>
			</g>
		</g>
	</g>
	<g id="people_00000107586303666823575820000008444456276571078274_" class="st0">
		<g id="people">
			<g>
				<polygon points="166.72,220 138.97,220 124.55,220 80,353.68 117.94,366.32 153.39,260 238.97,260 238.97,220 				"/>
			</g>
		</g>
	</g>
	<g id="people_copy_00000138538648730154986150000003058957876704924335_" class="st0">
		<g id="people_copy">
			<g>
				<path d="M271.54,101.97c-16.32-2.88-31.1,3.61-33.02,14.49l-10.42,59.09l-0.93,5.28l-8.2,39.17l20,40
					c20,0,37.44-12.88,41.28-34.64l17.36-98.48C299.53,116,287.86,104.85,271.54,101.97z M285.44,23.19
					c-16.32-2.88-31.88,8.02-34.75,24.33c-2.88,16.32,8.02,31.88,24.33,34.75c16.32,2.88,31.88-8.02,34.75-24.33
					C312.65,41.63,301.75,26.07,285.44,23.19z"/>
			</g>
		</g>
	</g>
</g>
<g id="arrow_00000153702971317998129990000005453632192944294814_">
	<g id="arrow_00000097484670077479632110000009187629231534544262_" class="st0">
		<g id="arrow">
			<g>
				<polygon points="170,10 110,70 150,70 150,130 190,130 190,70 230,70 				"/>
			</g>
		</g>
	</g>
</g>
<g id="warning_x21__x21_">
	<rect y="100" width="30" height="30"/>
	<rect width="30" height="80"/>
	<rect x="60" y="100" width="30" height="30"/>
	<rect x="60" y="0" width="30" height="80"/>
</g>
</svg>
