<?xml version="1.0" encoding="utf-8"?>
<!-- Generator: Adobe Illustrator 27.4.0, SVG Export Plug-In . SVG Version: 6.00 Build 0)  -->
<svg version="1.1" xmlns="http://www.w3.org/2000/svg" xmlns:xlink="http://www.w3.org/1999/xlink" x="0px" y="0px"
	 viewBox="0 0 400 400" style="enable-background:new 0 0 400 400;" xml:space="preserve">
<style type="text/css">
	.st0{enable-background:new    ;}
</style>
<g id="seat_00000012446240921242349810000013622872642998655155_" class="st0">
	<g id="seat">
		<g>
			<polygon points="320.32,100.42 287.67,280 160,280 160,320 260,320 280.4,320 321.06,320 359.68,107.58 			"/>
		</g>
	</g>
</g>
<g id="people_00000107586303666823575820000008444456276571078274_" class="st0">
	<g id="people">
		<g>
			<polygon points="147.75,220 120,220 105.58,220 61.03,353.68 98.97,366.32 134.42,260 220,260 220,220 			"/>
		</g>
	</g>
</g>
<g id="people_copy_00000138538648730154986150000003058957876704924335_" class="st0">
	<g id="people_copy">
		<g>
			<path d="M252.57,101.97c-16.32-2.88-31.1,3.61-33.02,14.49l-10.42,59.09l-0.93,5.28L200,220l20,40c20,0,37.44-12.88,41.28-34.64
				l17.36-98.48C280.56,116,268.89,104.85,252.57,101.97z M266.47,23.19c-16.32-2.88-31.88,8.02-34.75,24.33
				c-2.88,16.32,8.02,31.88,24.33,34.75c16.32,2.88,31.88-8.02,34.75-24.33C293.68,41.63,282.78,26.07,266.47,23.19z"/>
		</g>
	</g>
</g>
<g id="arrow_00000097484670077479632110000009187629231534544262_" class="st0">
	<g id="arrow">
		<g>
			<polygon points="140,20 80,80 120,80 120,140 160,140 160,80 200,80 			"/>
		</g>
	</g>
</g>
</svg>
