<?xml version="1.0" encoding="utf-8"?>
<!-- Generator: Adobe Illustrator 27.4.0, SVG Export Plug-In . SVG Version: 6.00 Build 0)  -->
<svg version="1.1" id="arrow" xmlns="http://www.w3.org/2000/svg" xmlns:xlink="http://www.w3.org/1999/xlink" x="0px" y="0px"
	 viewBox="0 0 400 400" style="enable-background:new 0 0 400 400;" xml:space="preserve">
<style type="text/css">
	.st0{display:none;}
</style>
<g>
	<path d="M84.49,210.94l17.57,30.43c4.38,7.53,11.21,13.27,19.29,16.32l71.37,16.6L0,280l101.31-164.04L80,186.06
		C78.6,194.59,80.16,203.38,84.49,210.94z"/>
	<polygon points="197.98,165.69 106.13,178.15 120.34,129.38 130.57,153.3 226.18,149.42 174.75,229.82 190.61,251.1 141.27,239.01 
			"/>
	<path d="M116.99,227.97l-13.18-22.82c-0.32-0.58-0.53-1.22-0.63-1.88c-0.47-3.1,2.11-6.26,5.21-6.73l44.39-4.75l-26.5,36.78
		c-0.42,0.52-0.92,0.96-1.49,1.31C122.12,231.5,118.62,230.65,116.99,227.97z"/>
</g>
<path class="st0" d="M220,60c100,0,180,105.07,180,210c0,1.78-0.03,3.55-0.07,5.31C397.45,189.12,326.8,120,240,120
	c-60,0-100,40-120,80v-60l-63,30C100,80,160,60,220,60z"/>
<path d="M180,220c140-60,220,60.56,220,60.56S340,60,120,160h80L180,220z"/>
</svg>
