<svg xmlns="http://www.w3.org/2000/svg" width="400" height="400" viewBox="0 0 400 400">
  <defs>
    <style>
      .cls-1 {
        fill-rule: evenodd;
      }
    </style>
  </defs>
  <path id="hail" class="cls-1" d="M380,160a40,40,0,1,1-40-40A40,40,0,0,1,380,160ZM140,260v20H0V233.557C14.659,225.248,36.1,220,60,220,104.183,220,140,237.909,140,260ZM100,160a40,40,0,1,1-40-40h0A40,40,0,0,1,100,160Zm240,60c23.9,0,45.341,5.248,60,13.557V280H260V260C260,237.909,295.817,220,340,220Zm-112.682,8.36a190.581,190.581,0,0,0,0-136.72L256.4,83.708a220.849,220.849,0,0,1,0,152.584ZM120,160a69.679,69.679,0,0,0-10.15-36.323l29.737-8.11a100.006,100.006,0,0,1,0,88.866l-29.737-8.11A69.679,69.679,0,0,0,120,160Zm60,0a129.531,129.531,0,0,0-11.024-52.448l29.212-7.967a160.408,160.408,0,0,1,0,120.83l-29.212-7.967A129.531,129.531,0,0,0,180,160Z"/>
</svg>
