<?xml version="1.0" encoding="utf-8"?>
<!-- Generator: Adobe Illustrator 27.4.0, SVG Export Plug-In . SVG Version: 6.00 Build 0)  -->
<svg version="1.1" xmlns="http://www.w3.org/2000/svg" xmlns:xlink="http://www.w3.org/1999/xlink" x="0px" y="0px"
	 viewBox="0 0 400 400" style="enable-background:new 0 0 400 400;" xml:space="preserve">
<style type="text/css">
	.st0{fill-rule:evenodd;clip-rule:evenodd;}
</style>
<g id="Layer_1">
	<path class="st0" d="M210,80h-50h-40v240h40V220h50c38.66,0,70-31.34,70-70v0C280,111.34,248.66,80,210,80z M210,180h-50v-60h50
		c16.57,0,30,13.43,30,30S226.57,180,210,180z"/>
	<path class="st0" d="M340,0H60C26.86,0,0,26.86,0,60v280c0,33.14,26.86,60,60,60h220v-40H60c-11.05,0-20-8.95-20-20V60
		c0-11.05,8.95-20,20-20h280c11.05,0,20,8.95,20,20v160h40V60C400,26.86,373.14,0,340,0z"/>
</g>
<g id="question">
	<rect x="326.67" y="373.33" class="st0" width="26.67" height="26.67"/>
	<path class="st0" d="M340,240L340,240c-29.46,0-53.33,23.88-53.33,53.33v0h26.67v0c0-14.73,11.94-26.67,26.67-26.67h0
		c14.73,0,26.67,11.94,26.67,26.67v0c0,26.67-40,26.67-40,66.67h26.67c0-26.67,40-26.67,40-66.67v0
		C393.33,263.88,369.46,240,340,240L340,240z"/>
</g>
</svg>
