<?xml version="1.0" encoding="utf-8"?>
<!-- Generator: Adobe Illustrator 27.4.0, SVG Export Plug-In . SVG Version: 6.00 Build 0)  -->
<svg version="1.1" id="c8r" xmlns="http://www.w3.org/2000/svg" xmlns:xlink="http://www.w3.org/1999/xlink" x="0px" y="0px"
	 viewBox="0 0 400 400" style="enable-background:new 0 0 400 400;" xml:space="preserve">
<path d="M369,135.4l-13-12l-16-71l-39-5l-47,59l-105,11l-107,35l-2,21l-10.26,6.07V200v20.53L40,226.6l2,21l107,35l105,11l47,59
	l39-5l16-71l13-12l11-38V200v-26.6L369,135.4z M115,200v26l-65.3-11.3V200v-14.7L115,174V200z M320,220h-40v40h-40v-40h-40v-40h40
	v-40h40v40h40V220z"/>
</svg>
