<?xml version="1.0" encoding="utf-8"?>
<!-- Generator: Adobe Illustrator 27.4.0, SVG Export Plug-In . SVG Version: 6.00 Build 0)  -->
<svg version="1.1" xmlns="http://www.w3.org/2000/svg" xmlns:xlink="http://www.w3.org/1999/xlink" x="0px" y="0px"
	 viewBox="0 0 400 400" style="enable-background:new 0 0 400 400;" xml:space="preserve">
<style type="text/css">
	.st0{display:none;}
	.st1{display:inline;}
</style>
<g id="power" class="st0">
	<polygon class="st1" points="-0.08,55.91 -0.08,344 55.91,400 110.9,400 111,369.39 68.35,369.39 30.02,331.06 30.02,68.35 
		68.35,30.02 111,30.02 111,-0.09 55.91,-0.09 	"/>
	<polygon class="st1" points="250.78,69.55 162.28,69.55 140.4,204.22 175.93,208.63 148.53,343.5 259.61,188.67 203.92,184.05 	"/>
	<polygon class="st1" points="344.01,-0.09 288.92,-0.09 288.92,30.02 331.06,30.02 369.9,68.35 369.9,240 400,240 400,55.91 	"/>
</g>
<g id="engine" class="st0">
	<path class="st1" d="M286.49,24.58l62.7,89.73l-15.14,28.11l-42.16-41.08c-14.7-14.49-34.5-22.64-55.14-22.7h-73.51
		c-20.64,0.07-40.43,8.22-55.14,22.7L64.87,143.5l-14.05-29.19l62.7-89.73c11.22-15.69,29.36-24.96,48.65-24.86h76.76
		C257.83-0.03,275.49,9.2,286.49,24.58z M200,331.61l73.51-179.46l73.51,76.76l-55.14-6.49L200,399.71l-92.97-177.3l-54.05,6.49
		l73.51-76.76L200,331.61z M172.97,119.71h55.14c6.57,0.15,11.77,5.59,11.62,12.15c-0.03,1.39-0.31,2.77-0.81,4.06L200,222.42
		l-37.84-85.41c-2.39-6.12,0.63-14.1,6.75-16.48C170.21,120.02,171.58,119.74,172.97,119.71L172.97,119.71z"/>
</g>
<g id="shield" class="st0">
	<path class="st1" d="M240,340c0-24.28,8.66-46.54,23.05-63.86h-19.03l-18.82,32.68h-50.23l-18.82-32.68h-37.75l-25.06-43.46
		L112.15,200l-18.82-32.68l25.06-43.46h37.75l18.82-32.68h50.13l18.82,32.68h37.75l25.06,43.46L287.9,200l18.82,32.68l-9.85,17.07
		C309.94,243.5,324.56,240,340,240c11.83,0,23.18,2.06,33.72,5.83L400,200.32l-28.02-48.54h-37.65L309.27,108l18.61-32.68
		l-27.81-48.54h-56.05l-18.93,32.68h-50.13l-18.82-32.68h-56.05L72.07,75.32L90.89,108l-25.06,43.46H28.08L0.05,200l28.02,48.86
		h37.75l25.06,43.46l-18.82,32.36l28.02,48.54h56.05l18.82-32.68h50.13l18.82,32.68h1.74C242,362.82,240,351.65,240,340z"/>
</g>
<g id="weapon">
	<g>
		<polygon points="173.77,116.89 222.33,68.33 260.19,0.12 191.98,38.08 143.42,86.64 111.83,96.93 0,208.76 0,222.13 38.17,260.3 
			51.44,260.3 163.48,148.47 		"/>
		<path d="M240,340c0-51.69,39.22-94.22,89.53-99.46l32.5-32.5L400,139.83l-68.21,37.96l-48.66,48.66l-31.58,10.29L139.71,348.47
			v13.37l38.17,38.17h13.37l49.32-49.27C240.2,347.21,240,343.63,240,340z"/>
		<polygon points="243.73,186.74 292.29,138.18 330.25,69.98 262.04,107.94 213.48,156.5 181.9,166.79 69.86,278.62 69.86,291.99 
			108.03,330.16 121.4,330.16 233.34,218.33 		"/>
	</g>
</g>
<g id="toggle">
	<g id="toggle_00000003796461442717959090000016111378498880301219_">
		<g>
			<path d="M365,280.43v28.28l15,15v33.14l-23.43,23.43h-33.14L300,356.86v-33.14l15-15v-28.28l-35,35v49.71l35.15,35.15h49.71
				L400,365.14v-49.71L365,280.43z M352,280.29h-24v80h24V280.29z"/>
		</g>
	</g>
</g>
</svg>
