<svg xmlns="http://www.w3.org/2000/svg" width="400" height="400" viewBox="0 0 400 400">
  <defs>
    <style>
      .cls-1 {
        stroke: #000;
        stroke-width: 1px;
        fill-rule: evenodd;
      }
    </style>
  </defs>
  <path id="reset_power" class="cls-1" d="M380,77a20,20,0,1,1,20-20A20,20,0,0,1,380,77ZM44.115,70h311.77L200,340ZM185,254.019V168.66l-73.923-42.679ZM126.077,100L200,142.679,273.923,100H126.077ZM215,254.019l73.923-128.038L215,168.66v85.359ZM20,77A20,20,0,1,1,40,57,20,20,0,0,1,20,77ZM200,350a20,20,0,1,1-20,20A20,20,0,0,1,200,350Z"/>
</svg>
