<?xml version="1.0" encoding="utf-8"?>
<!-- Generator: Adobe Illustrator 27.4.0, SVG Export Plug-In . SVG Version: 6.00 Build 0)  -->
<svg version="1.1" xmlns="http://www.w3.org/2000/svg" xmlns:xlink="http://www.w3.org/1999/xlink" x="0px" y="0px"
	 viewBox="0 0 400 400" style="enable-background:new 0 0 400 400;" xml:space="preserve">
<style type="text/css">
	.st0{enable-background:new    ;}
	.st1{clip-path:url(#SVGID_00000117651269278662640140000003945754984881743293_);}
	.st2{clip-path:url(#SVGID_00000003105163178228994410000009352888425589224355_);}
	.st3{display:none;}
	.st4{display:inline;}
</style>
<g id="components" class="st0">
	<g id="engine">
		<g>
			<defs>
				<rect id="SVGID_1_" x="0" y="40" width="320" height="320"/>
			</defs>
			<clipPath id="SVGID_00000170274852422953141380000000966425453318202028_">
				<use xlink:href="#SVGID_1_"  style="overflow:visible;"/>
			</clipPath>
			<g style="clip-path:url(#SVGID_00000170274852422953141380000000966425453318202028_);">
				<defs>
					<rect id="SVGID_00000026882825510992240460000006099398638797727622_" x="0" y="40" width="320" height="320"/>
				</defs>
				<clipPath id="SVGID_00000100366921565791787600000007491184075913392016_">
					<use xlink:href="#SVGID_00000026882825510992240460000006099398638797727622_"  style="overflow:visible;"/>
				</clipPath>
				<path style="clip-path:url(#SVGID_00000100366921565791787600000007491184075913392016_);" d="M229.19,59.89l50.16,71.78
					l-12.11,22.49l-33.73-32.86c-11.76-11.59-27.6-18.11-44.11-18.16h-58.81c-16.51,0.05-32.35,6.57-44.11,18.16l-34.59,33.73
					l-11.24-23.35l50.16-71.78C99.79,47.34,114.3,39.93,129.73,40h61.41C206.26,40.2,220.39,47.59,229.19,59.89 M160,305.51
					l58.81-143.57l58.81,61.41l-44.11-5.19L160,360L85.62,218.16l-43.24,5.19l58.81-61.41L160,305.51z M138.38,136h44.11
					c5.25,0.12,9.42,4.47,9.3,9.72c-0.02,1.11-0.24,2.21-0.65,3.25L160,218.16l-30.27-68.32c-1.91-4.89,0.51-11.28,5.4-13.19
					C136.17,136.25,137.27,136.03,138.38,136"/>
			</g>
		</g>
	</g>
	<path id="shield" class="st3" d="M297.58,239.09L320,200.25l-22.42-38.84h-30.12l-20.05-35.03l14.89-26.14l-22.25-38.84H195.2
		l-15.15,26.14h-40.11l-15.06-26.14H80.04l-22.42,38.84l15.06,26.14l-20.05,34.78H22.42L0,200l22.42,39.09h30.21l20.05,34.78
		l-15.06,25.89l22.42,38.84h44.84l15.06-26.14h40.11l15.06,26.14h44.84l22.34-38.84l-15.06-26.14l20.22-34.52H297.58z M195.2,260.92
		l-15.06,26.14h-40.19l-15.06-26.14H94.68l-20.05-34.78L89.69,200l-15.06-26.14l20.05-34.78h30.21l15.06-26.14h40.11l15.06,26.14
		h30.21l20.05,34.78L230.31,200l15.06,26.14l-20.05,34.78H195.2z"/>
	<path id="weapon" class="st3" d="M130.78,158.77l-89.63,89.47H30.53L0,217.7V207l89.47-89.47l25.27-8.23l38.85-38.85l54.57-30.37
		l-30.29,54.57l-38.85,38.85L130.78,158.77z M194.98,189.38l38.85-38.85l30.37-54.57l-54.57,30.37l-38.85,38.85l-25.27,8.23
		l-89.63,89.47v10.7l30.53,30.53h10.7l89.55-89.47L194.98,189.38z M265.43,182.22l-38.93,38.93l-25.27,8.23l-89.47,89.38v10.7
		L142.3,360H153l89.55-89.47l8.23-25.27l38.85-38.85L320,151.85L265.43,182.22z"/>
</g>
<g id="inc" class="st3">
	<g id="arrow_00000049929326606137438940000014438440912879242147_" class="st4">
		<g>
			<polygon points="360,140 320,260 400,260 			"/>
		</g>
	</g>
</g>
<g id="max" class="st3">
	<g id="arrow_00000049928475865623846070000003027603394497379474_" class="st4">
		<g>
			<polygon points="360,220 320,340 400,340 			"/>
		</g>
	</g>
	<g id="arrow_00000155144003055516370190000014558006923990996401_" class="st4">
		<g>
			<polygon points="360,100 320,220 400,220 			"/>
		</g>
	</g>
	<rect id="top" x="320" y="60" class="st4" width="80" height="40"/>
</g>
<g id="dec" class="st3">
	<g id="arrow" class="st4">
		<g>
			<polygon points="320,140 360,260 400,140 			"/>
		</g>
	</g>
</g>
<g id="min">
	<g id="arrow_00000047767460683730394810000000439332938897625234_">
		<g>
			<polygon points="320,60 360,180 400,60 			"/>
		</g>
	</g>
	<g id="arrow_00000130643957558517520480000013059291127127352741_">
		<g>
			<polygon points="320,180 360,300 400,180 			"/>
		</g>
	</g>
	<rect id="line" x="320" y="300" transform="matrix(-1 -1.224647e-16 1.224647e-16 -1 720 640)" width="80" height="40"/>
</g>
</svg>
