<?xml version="1.0" encoding="utf-8"?>
<!-- Generator: Adobe Illustrator 27.4.0, SVG Export Plug-In . SVG Version: 6.00 Build 0)  -->
<svg version="1.1" xmlns="http://www.w3.org/2000/svg" xmlns:xlink="http://www.w3.org/1999/xlink" x="0px" y="0px"
	 viewBox="0 0 400 400" style="enable-background:new 0 0 400 400;" xml:space="preserve">
<style type="text/css">
	.st0{fill-rule:evenodd;clip-rule:evenodd;}
</style>
<g id="qt">
	<polygon points="186.88,141.51 186.88,126.88 213.12,126.88 213.12,141.51 229.2,175 235,175 235,105 165,105 165,175 170.8,175 	
		"/>
	<polygon points="162.11,193.11 109,140 200,49 291,140 237.89,193.11 244.7,207.3 312,140 200,28 88,140 155.3,207.3 	"/>
	<polygon points="150.76,216.76 74,140 200,14 326,140 249.24,216.76 253.78,226.22 340,140 200,0 60,140 146.22,226.22 	"/>
</g>
<g id="ship_00000091705665765715920020000016346531475982362499_">
	<path id="ship" class="st0" d="M242.86,340l8.57,60h-17.14l-8.57-51.43h-8.57v25.71h-34.29v-25.71h-8.57L165.71,400h-17.14l8.57-60
		L80,365.71v-34.29l77.14-60v-25.71L174.29,220l0,0l0,0v-8.57c0-17.14,17.14-51.43,17.14-51.43h17.14c0,0,17.14,34.29,17.14,51.43
		V220l17.14,25.71v25.71l77.14,60v34.29L242.86,340z"/>
</g>
</svg>
