<svg xmlns="http://www.w3.org/2000/svg" width="400" height="400" viewBox="0 0 400 400">
  <defs>
    <style>
      .cls-1 {
        fill-rule: evenodd;
      }
    </style>
  </defs>
  <path id="decr" class="cls-1" d="M200,0a249.288,249.288,0,0,1,93.105,17.928L282.331,45.939a220.6,220.6,0,0,0-164.662,0L106.9,17.928A249.288,249.288,0,0,1,200,0h0Zm67.966,83.288L257.192,111.3a150.381,150.381,0,0,0-114.384,0L132.034,83.288A180.46,180.46,0,0,1,267.966,83.288Zm-25.139,65.361-10.786,28.045a80.03,80.03,0,0,0-64.082,0l-10.786-28.045A110.357,110.357,0,0,1,242.827,148.649ZM217.652,214.1L200,260l-17.652-45.9A40.014,40.014,0,0,1,217.652,214.1ZM239.9,302.5a69.59,69.59,0,0,0-27.741-11.423L326.13,14.289l27.74,11.422ZM240,360a40,40,0,1,1-40-40A40,40,0,0,1,240,360ZM46.13,25.711L73.87,14.289,187.841,291.074A69.59,69.59,0,0,0,160.1,302.5Z"/>
</svg>
