<svg xmlns="http://www.w3.org/2000/svg" width="400" height="400" viewBox="0 0 400 400">
  <defs>
    <style>
      .cls-1 {
        fill-rule: evenodd;
      }
    </style>
  </defs>
  <path id="radar_scan_mode" class="cls-1" d="M348.492,111.508a210,210,0,0,0-296.984,0L30.294,90.294a240,240,0,0,1,339.412,0Zm-21.213,21.213-21.213,21.213a150,150,0,0,0-212.132,0L72.721,132.721A180,180,0,0,1,327.279,132.721Zm-42.426,42.426L263.64,196.36a90,90,0,0,0-127.28,0l-21.213-21.213A120,120,0,0,1,284.853,175.147ZM200,200a59.994,59.994,0,0,1,51.683,90.47l48.924,48.923-21.214,21.214L230.47,311.683A60,60,0,1,1,200,200Zm0,90a30,30,0,1,0-30-30A30,30,0,0,0,200,290Zm152.39,65.821-6.116-6.115,6.753,5.064C352.811,355.118,352.608,355.475,352.39,355.821Z"/>
</svg>
