<svg xmlns="http://www.w3.org/2000/svg" width="400" height="400" viewBox="0 0 400 400">
  <defs>
    <style>
      .cls-1 {
        stroke: #000;
        stroke-width: 1px;
        fill-rule: evenodd;
      }
    </style>
  </defs>
  <path id="explode" class="cls-1" d="M200,0l38.567,94.037,89.991-47.246-30.9,96.827,99.306,21.652L311.05,219.581,373.205,300,272.483,286.382,268.4,387.939,200,312.763l-68.4,75.176-4.079-101.557L26.795,300,88.95,219.581,3.038,165.27l99.306-21.652-30.9-96.827,89.991,47.246Zm-0.5,60,27.117,66.18,63.274-33.25-21.727,68.143,69.824,15.238-60.407,38.221,43.7,56.6-70.82-9.584L247.6,333.015l-48.1-52.9-48.1,52.9-2.868-71.471-70.82,9.584,43.7-56.6L61.012,176.311l69.824-15.238L109.109,92.93l63.274,33.25Zm0.5,60,15.663,38.3,36.549-19.244L239.661,178.5l40.332,8.819L245.1,209.436l25.244,32.755-40.907-5.547-1.657,41.365L200,247.39l-27.781,30.619-1.657-41.365-40.907,5.547L154.9,209.436l-34.892-22.121,40.332-8.819-12.551-39.438L184.337,158.3Zm-10,40h20v40H190V160Zm0,60h20v20H190V220Z"/>
</svg>
