<svg xmlns="http://www.w3.org/2000/svg" width="400" height="400" viewBox="0 0 400 400">
  <defs>
    <style>
      .cls-1 {
        fill-rule: evenodd;
      }
    </style>
  </defs>
  <path id="ship" class="cls-1" d="M235.7,240l7.143,50H228.562l-7.143-42.855h-7.143v21.427h-28.57V247.147h-7.142L171.421,290H157.136l7.143-50L100,261.432V232.861l64.283-50V161.436l14.285-21.428v-7.142c0-14.285,14.285-42.856,14.285-42.856h14.285s14.285,28.571,14.285,42.856v7.142L235.7,161.436v21.428l64.283,50v28.571Z"/>
  <path id="raised" class="cls-1" d="M121,290.286a119.875,119.875,0,0,0,158,0l52.7,60.224a199.971,199.971,0,0,1-263.392,0Z"/>
  <path id="normal" class="cls-1" d="M263.141,86.347a130.116,130.116,0,0,0-126.282,0l-14.57-26.228a160.139,160.139,0,0,1,155.422,0Zm50.512,50.512,26.228-14.57a160.142,160.142,0,0,1,0,155.422l-26.228-14.57A130.116,130.116,0,0,0,313.653,136.859ZM70,200a129.4,129.4,0,0,0,16.347,63.141l-26.228,14.57a160.139,160.139,0,0,1,0-155.422l26.228,14.57A129.4,129.4,0,0,0,70,200Z"/>
</svg>
