<svg xmlns="http://www.w3.org/2000/svg" width="400" height="400" viewBox="0 0 400 400">
  <defs>
    <style>
      .cls-1 {
        fill-rule: evenodd;
      }
    </style>
  </defs>
  <path id="ship" class="cls-1" d="M235.7,240l7.143,50H228.562l-7.143-42.855h-7.143v21.427h-28.57V247.147h-7.142L171.421,290H157.136l7.143-50L100,261.432V232.861l64.283-50V161.436l14.285-21.428v-7.142c0-14.285,14.285-42.856,14.285-42.856h14.285s14.285,28.571,14.285,42.856v7.142L235.7,161.436v21.428l64.283,50v28.571Z"/>
  <path id="raised" class="cls-1" d="M290.286,279a119.875,119.875,0,0,0,0-158L350.51,68.3a199.971,199.971,0,0,1,0,263.392Z"/>
  <path id="normal" class="cls-1" d="M86.347,136.859a130.116,130.116,0,0,0,0,126.282l-26.228,14.57a160.139,160.139,0,0,1,0-155.422Zm50.512-50.512-14.57-26.228a160.139,160.139,0,0,1,155.422,0l-14.57,26.228A130.116,130.116,0,0,0,136.859,86.347ZM200,330a129.405,129.405,0,0,0,63.141-16.347l14.57,26.228a160.142,160.142,0,0,1-155.422,0l14.57-26.228A129.405,129.405,0,0,0,200,330Z"/>
</svg>
