<svg xmlns="http://www.w3.org/2000/svg" width="400" height="400" viewBox="0 0 400 400">
  <defs>
    <style>
      .cls-1 {
        fill-rule: evenodd;
      }
    </style>
  </defs>
  <path id="target" class="cls-1" d="M340,380H300V340h40V300h40v40A40,40,0,0,1,340,380Zm0-320H300V20h40a40,40,0,0,1,40,40v40H340V60ZM200,0l30,60H170ZM20,340V300H60v40h40v40H60A40,40,0,0,1,20,340ZM60,100H20V60A40,40,0,0,1,60,20h40V60H60v40Z"/>
  <path id="attacker" class="cls-1" d="M200,260c58.054,0,106.476-24.049,117.6-56a120.024,120.024,0,0,1-235.19,0C93.524,235.951,141.946,260,200,260Zm20-80,80-80S300,252.5,220,180Zm-40,0-80-80S100,252.5,180,180Z"/>
</svg>
