<?xml version="1.0" encoding="utf-8"?>
<!-- Generator: Adobe Illustrator 27.4.0, SVG Export Plug-In . SVG Version: 6.00 Build 0)  -->
<svg version="1.1" xmlns="http://www.w3.org/2000/svg" xmlns:xlink="http://www.w3.org/1999/xlink" x="0px" y="0px"
	 viewBox="0 0 400 400" style="enable-background:new 0 0 400 400;" xml:space="preserve">
<style type="text/css">
	.st0{enable-background:new    ;}
</style>
<g id="off">
	<g id="target_x5F_full" class="st0">
		<g id="Image_xA0_1">
			<g>
				<path d="M60.09,300.05H20.12v39.97c0,22.07,17.9,39.97,39.97,39.97h39.97v-39.97H60.09V300.05z M20.12,60.22v39.97h39.97V60.22
					h39.97V20.24H60.09C38.03,20.24,20.12,38.15,20.12,60.22z M339.91,340.03h-39.97V380h39.97c22.07,0,39.97-17.9,39.97-39.97
					v-39.97h-39.97V340.03z M339.91,20.24h-39.97v39.97h39.97v39.97h39.97V60.22C379.88,38.15,361.97,20.24,339.91,20.24z
					 M170.02,60.22h59.96L200,0.26L170.02,60.22z"/>
			</g>
		</g>
	</g>
	<rect x="185" y="45" transform="matrix(0.7071 -0.7071 0.7071 0.7071 -82.8427 200)" width="30" height="310"/>
</g>
<g id="pin_x5F_1">
	<polygon points="90,120 60,120 60,150 90,150 90,280 120,280 120,120 	"/>
</g>
<g id="pin_x5F_2">
	<g>
		<path d="M230,179.71V150v0c0-16.57-13.43-30-30-30h-29.71L230,179.71z"/>
		<path d="M180,210h20c5.16,0,10.02-1.3,14.26-3.6l-26.4-26.4H180c-16.57,0-30,13.43-30,30v0v40v30h80v-30h-50V210z"/>
		<polygon points="150,142.14 150,150 157.86,150 		"/>
	</g>
</g>
<g id="pin_x5F_3">
	<g>
		<polygon points="260,252.14 260,280 287.86,280 		"/>
		<path d="M310,120h-50v30h50v30h-30v30h30v40h-9.71l25.51,25.51C334.32,270.21,340,260.77,340,250v-40c0-8.28-6.72-15-15-15
			c8.28,0,15-6.72,15-15v-30v0C340,133.43,326.57,120,310,120z"/>
	</g>
</g>
</svg>
