<?xml version="1.0" encoding="utf-8"?>
<!-- Generator: Adobe Illustrator 27.4.0, SVG Export Plug-In . SVG Version: 6.00 Build 0)  -->
<svg version="1.1" id="Layer_1" xmlns="http://www.w3.org/2000/svg" xmlns:xlink="http://www.w3.org/1999/xlink" x="0px" y="0px"
	 viewBox="0 0 96 96" style="enable-background:new 0 0 96 96;" xml:space="preserve">
<style type="text/css">
	.st0{fill-rule:evenodd;clip-rule:evenodd;}
	.st1{enable-background:new    ;}
</style>
<g id="cycle_x5F_forward">
	<rect x="88.8" y="67.2" width="7.2" height="28.8"/>
	<polygon points="86.4,81.6 67.2,67.2 67.2,96 	"/>
</g>
<g id="target_x5F_subscript">
	<path class="st0" d="M81.6,14.4H72V4.8h9.6c5.3,0,9.6,4.3,9.6,9.6V24h-9.6V14.4z M48,0l7.2,14.4H40.8L48,0z M4.8,81.6V72h9.6v9.6
		H24v9.6h-9.6C9.1,91.2,4.8,86.9,4.8,81.6z M14.4,24H4.8v-9.6c0-5.3,4.3-9.6,9.6-9.6H24v9.6h-9.6V24z"/>
</g>
<g id="attacker" class="st1">
	<g id="Image_xA0_22">
		<g>
			<path d="M48,62.4c-13.93,0-25.55-5.77-28.22-13.44C22.45,62.11,34.07,72,48,72s25.55-9.89,28.22-23.04
				C73.55,56.63,61.93,62.4,48,62.4z M72,24L52.8,43.2C72,60.6,72,24,72,24z M43.2,43.2L24,24C24,24,24,60.6,43.2,43.2z"/>
		</g>
	</g>
</g>
</svg>
