<?xml version="1.0" encoding="utf-8"?>
<!-- Generator: Adobe Illustrator 27.4.0, SVG Export Plug-In . SVG Version: 6.00 Build 0)  -->
<svg version="1.1" xmlns="http://www.w3.org/2000/svg" xmlns:xlink="http://www.w3.org/1999/xlink" x="0px" y="0px"
	 viewBox="0 0 96 96" style="enable-background:new 0 0 96 96;" xml:space="preserve">
<style type="text/css">
	.st0{display:none;enable-background:new    ;}
	.st1{display:inline;}
	.st2{enable-background:new    ;}
	.st3{display:none;}
	.st4{opacity:0.38;}
</style>
<g id="Image_xA0_1_00000043452795262851842200000013679053294208796603_" class="st0">
	<g id="Image_xA0_1" class="st1">
		<g>
			<path d="M14.4,72H4.8v9.6c0,5.3,4.3,9.6,9.6,9.6H24v-9.6h-9.6V72z M4.8,14.4V24h9.6v-9.6H24V4.8h-9.6C9.1,4.8,4.8,9.1,4.8,14.4z
				 M81.6,81.6H72v9.6h9.6c5.3,0,9.6-4.3,9.6-9.6V72h-9.6V81.6z M81.6,4.8H72v9.6h9.6V24h9.6v-9.6C91.2,9.1,86.9,4.8,81.6,4.8z
				 M40.8,14.4h14.4L48,0L40.8,14.4z"/>
		</g>
	</g>
</g>
<g id="Image_xA0_2_00000052082016144315097950000015563399589590882203_" class="st0">
	<g id="Image_xA0_2" class="st1">
		<g>
			<path d="M14.4,72H4.8v9.6c0,5.3,4.3,9.6,9.6,9.6H24v-9.6h-9.6V72z M81.6,24h9.6v-9.6c0-5.3-4.3-9.6-9.6-9.6H72v9.6h9.6V24z
				 M40.8,14.4h14.4L48,0L40.8,14.4z M4.8,14.4V24h9.6v-9.6H24V4.8h-9.6C9.1,4.8,4.8,9.1,4.8,14.4z M85.2,78V67.2H78V78H67.2v7.2H78
				V96h7.2V85.2H96V78H85.2z"/>
		</g>
	</g>
</g>
<g id="target_x5F_toggle_00000053527348931610006640000006004785556898508471_" class="st2">
	<g id="target_x5F_toggle">
		<g>
			<path d="M14.4,72H4.8v9.6c0,5.3,4.3,9.6,9.6,9.6H24v-9.6h-9.6V72z M81.6,24h9.6v-9.6c0-5.3-4.3-9.6-9.6-9.6H72v9.6h9.6V24z
				 M4.8,14.4V24h9.6v-9.6H24V4.8h-9.6C9.1,4.8,4.8,9.1,4.8,14.4z M87.6,67.24v6.79l3.6,3.6v7.95l-5.62,5.62h-7.95L72,85.58v-7.95
				l3.6-3.6v-6.79l-8.4,8.4v11.93L75.64,96h11.93L96,87.56V75.64L87.6,67.24z M40.8,14.4h14.4L48,0L40.8,14.4z M78.72,86.4h5.76
				V67.2h-5.76V86.4z"/>
		</g>
	</g>
</g>
<g id="Image_xA0_14_00000065784123293540802420000007347519500607496325_" class="st3">
	<g id="Image_xA0_5">
		<g class="st1">
			<path d="M48,28.8c-10.6,0-19.2,8.6-19.2,19.2S37.4,67.2,48,67.2S67.2,58.6,67.2,48S58.6,28.8,48,28.8z M48,60
				c-6.63,0-12-5.37-12-12c0-2,0.49-3.89,1.36-5.55l16.19,16.19C51.89,59.51,50,60,48,60z M58.64,53.55L42.45,37.36
				C44.11,36.49,46,36,48,36c6.63,0,12,5.37,12,12C60,50,59.51,51.89,58.64,53.55z"/>
		</g>
	</g>
	<g id="Image_xA0_6">
		<g class="st1">
			<path d="M36,36h7.2v-7.2h-9.6c-2.65,0-4.8,2.15-4.8,4.8v9.6H36V36z M36,52.8h-7.2v9.6c0,2.65,2.15,4.8,4.8,4.8h9.6V60H36V52.8z
				 M60,60h-7.2v7.2h9.6c2.65,0,4.8-2.15,4.8-4.8v-9.6H60V60z M48,43.2c-2.65,0-4.8,2.15-4.8,4.8s2.15,4.8,4.8,4.8s4.8-2.15,4.8-4.8
				S50.65,43.2,48,43.2z M62.4,28.8h-9.6V36H60v7.2h7.2v-9.6C67.2,30.95,65.05,28.8,62.4,28.8z"/>
		</g>
	</g>
	<g id="Image_xA0_7">
		<g class="st1">
			<path d="M48,33.6v-4.8L40.8,36l7.2,7.2v-4.8c5.3,0,9.6,4.3,9.6,9.6c0,2.65-1.07,5.05-2.81,6.79l3.39,3.39
				c2.61-2.61,4.22-6.21,4.22-10.18C62.4,40.05,55.95,33.6,48,33.6z M48,57.6c-5.3,0-9.6-4.3-9.6-9.6c0-2.65,1.07-5.05,2.81-6.79
				l-3.39-3.39C35.21,40.42,33.6,44.02,33.6,48c0,7.95,6.45,14.4,14.4,14.4v4.8l7.2-7.2L48,52.8V57.6z"/>
		</g>
	</g>
	<g id="Image_xA0_8">
		<g class="st1">
			<path d="M57.6,43.2c2.65,0,4.8-2.15,4.8-4.8c0-2.65-2.15-4.8-4.8-4.8c-2.65,0-4.8,2.15-4.8,4.8C52.8,41.05,54.95,43.2,57.6,43.2z
				 M38.4,43.2c2.65,0,4.8-2.15,4.8-4.8c0-2.65-2.15-4.8-4.8-4.8c-2.65,0-4.8,2.15-4.8,4.8C33.6,41.05,35.75,43.2,38.4,43.2z
				 M31.38,52.8c3.32,5.74,9.52,9.6,16.62,9.6s13.3-3.86,16.62-9.6H31.38z"/>
		</g>
	</g>
	<g id="Image_xA0_9">
		<g class="st1">
			<path d="M38.4,43.2c2.65,0,4.8-2.15,4.8-4.8c0-2.65-2.15-4.8-4.8-4.8c-2.65,0-4.8,2.15-4.8,4.8C33.6,41.05,35.75,43.2,38.4,43.2z
				 M57.6,43.2c2.65,0,4.8-2.15,4.8-4.8c0-2.65-2.15-4.8-4.8-4.8c-2.65,0-4.8,2.15-4.8,4.8C52.8,41.05,54.95,43.2,57.6,43.2z
				 M47.88,52.8c-7.13,0-13.35,3.86-16.68,9.6h33.35C61.23,56.66,55.01,52.8,47.88,52.8z"/>
		</g>
	</g>
	<g id="Image_xA0_10">
		<g class="st1">
			<path d="M47.88,52.8c-7.13,0-13.35,3.86-16.68,9.6h33.35C61.23,56.66,55.01,52.8,47.88,52.8z M32.11,47.13l5.09-5.09l5.09,5.09
				l3.39-3.39l-5.09-5.09l5.09-5.09l-3.39-3.39l-5.09,5.09l-5.09-5.09l-3.39,3.39l5.09,5.09l-5.09,5.09L32.11,47.13z M67.05,33.55
				l-3.39-3.39l-5.09,5.09l-5.09-5.09l-3.39,3.39l5.09,5.09l-5.09,5.09l3.39,3.39l5.09-5.09l5.09,5.09l3.39-3.39l-5.09-5.09
				L67.05,33.55z"/>
		</g>
	</g>
	<g id="Image_xA0_11" class="st4">
		<g class="st1">
			<path d="M62.4,43.2v-4.8c0-5.3-4.3-9.6-9.6-9.6H33.6v9.6h9.6h9.6v4.8h-9.6v9.6h9.6v4.8h-9.6h-9.6v9.6h19.2c5.3,0,9.6-4.3,9.6-9.6
				v-4.8c0-2.65-2.15-4.8-4.8-4.8C60.25,48,62.4,45.85,62.4,43.2z"/>
		</g>
	</g>
	<g id="Image_xA0_12">
		<g class="st1">
			<path d="M52.8,52.8c5.3,0,9.6-4.3,9.6-9.6v-4.8c0-5.3-4.3-9.6-9.6-9.6H33.6v9.6h4.8h4.8h9.6v4.8h-9.6c-5.3,0-9.6,4.3-9.6,9.6
				v14.4h9.6h19.2v-9.6h-9.6h-1.29H43.2v-4.8H52.8z"/>
		</g>
	</g>
	<g id="Image_xA0_13">
		<g class="st1">
			<polygon points="33.6,28.8 33.6,38.4 43.2,38.4 43.2,67.2 52.8,67.2 52.8,38.4 52.8,28.8 			"/>
		</g>
	</g>
</g>
<g id="Image_xA0_15_00000054968004621535871270000013575969191776555178_" class="st0">
	<g id="Image_xA0_15" class="st1">
		<g>
			<path d="M48,43.2c-2.65,0-4.8,2.15-4.8,4.8s2.15,4.8,4.8,4.8s4.8-2.15,4.8-4.8S50.65,43.2,48,43.2z M43.2,33.6l4.8,4.8l4.8-4.8
				V19.2h-9.6V33.6z M43.2,62.4v14.4h9.6V62.4L48,57.6L43.2,62.4z M62.4,43.2L57.6,48l4.8,4.8h14.4v-9.6H62.4z M19.2,43.2v9.6h14.4
				l4.8-4.8l-4.8-4.8H19.2z"/>
		</g>
	</g>
</g>
<g id="Image_xA0_16_00000152263200567183453280000009256005595964490638_" class="st0">
	<g id="Image_xA0_16" class="st1">
		<g>
			<path d="M48.07,64.9l16.97-16.97l-3.39-3.39L44.67,61.51L48.07,64.9z M34.49,30.96L17.52,47.93L34.49,64.9l16.97-16.97
				L34.49,30.96z M31.1,47.93l3.39-3.39l3.39,3.39l-3.39,3.39L31.1,47.93z M75.22,44.54L48.07,17.39l-3.39,3.39l27.15,27.15
				L44.67,75.09l3.39,3.39l30.55-30.55L75.22,44.54z M44.67,34.36l13.58,13.58l3.39-3.39L48.07,30.96L44.67,34.36z"/>
		</g>
	</g>
</g>
<g id="Image_xA0_17_00000000197246072775080530000011802592106744296125_" class="st0">
	<g id="Image_xA0_17" class="st1">
		<g>
			<path d="M24,28.8v9.6h7.2v-7.2h7.2V24h-9.6C26.15,24,24,26.15,24,28.8z M31.2,57.6H24v9.6c0,2.65,2.15,4.8,4.8,4.8h9.6v-7.2h-7.2
				V57.6z M67.2,24h-9.6v7.2h7.2v7.2H72v-9.6C72,26.15,69.85,24,67.2,24z M48,43.2c-2.65,0-4.8,2.15-4.8,4.8s2.15,4.8,4.8,4.8
				s4.8-2.15,4.8-4.8S50.65,43.2,48,43.2z M64.8,64.8h-7.2V72h9.6c2.65,0,4.8-2.15,4.8-4.8v-9.6h-7.2V64.8z"/>
		</g>
	</g>
</g>
<g id="Image_xA0_18_00000141419688318811991870000013295238253604335521_" class="st0">
	<g id="Image_xA0_18" class="st1">
		<g>
			<path d="M36,48c0-6.63,5.37-12,12-12v6.72l10.56-10.56L48,21.6v7.2c-10.6,0-19.2,8.6-19.2,19.2c0,4.08,1.27,7.85,3.44,10.96
				l5.22-5.22C36.53,52.03,36,50.08,36,48z M63.76,37.04l-5.22,5.22C59.47,43.97,60,45.92,60,48c0,6.63-5.37,12-12,12v-6.72
				L37.44,63.84L48,74.4v-7.2c10.6,0,19.2-8.6,19.2-19.2C67.2,43.92,65.93,40.15,63.76,37.04z"/>
		</g>
	</g>
</g>
<g id="Image_xA0_19_00000152954715169909161240000015267421816381975720_" class="st0">
	<g id="Image_xA0_19" class="st1">
		<g>
			<path d="M48,24c-13.25,0-24,10.75-24,24s10.75,24,24,24s24-10.75,24-24S61.25,24,48,24z M48,62.4c-7.95,0-14.4-6.45-14.4-14.4
				c0-2.22,0.5-4.33,1.4-6.21L54.21,61C52.33,61.9,50.22,62.4,48,62.4z M61,54.21L41.79,35c1.88-0.9,3.98-1.4,6.21-1.4
				c7.95,0,14.4,6.45,14.4,14.4C62.4,50.22,61.9,52.33,61,54.21z"/>
		</g>
	</g>
</g>
<g id="Image_xA0_20_00000032623153163117731140000014197824502721618856_" class="st0">
	<g id="Image_xA0_20" class="st1">
		<g>
			<path d="M62.4,40.8c3.98,0,7.2-3.22,7.2-7.2s-3.22-7.2-7.2-7.2c-3.98,0-7.2,3.22-7.2,7.2S58.42,40.8,62.4,40.8z M33.6,40.8
				c3.98,0,7.2-3.22,7.2-7.2s-3.22-7.2-7.2-7.2c-3.98,0-7.2,3.22-7.2,7.2S29.62,40.8,33.6,40.8z M23.05,57.6
				C28.03,66.21,37.34,72,48,72s19.97-5.79,24.95-14.4H23.05z"/>
		</g>
	</g>
</g>
<g id="Image_xA0_21_00000071548641164918331140000014172397588033114799_" class="st0">
	<g id="Image_xA0_21" class="st1">
		<g>
			<path d="M48,62.4c-13.93,0-25.55-5.77-28.22-13.44C22.45,62.11,34.07,72,48,72s25.55-9.89,28.22-23.04
				C73.55,56.63,61.93,62.4,48,62.4z"/>
		</g>
	</g>
</g>
<g id="Image_xA0_22_00000113311318939001342300000012080374212507830452_" class="st0">
	<g id="Image_xA0_22" class="st1">
		<g>
			<path d="M48,62.4c-13.93,0-25.55-5.77-28.22-13.44C22.45,62.11,34.07,72,48,72s25.55-9.89,28.22-23.04
				C73.55,56.63,61.93,62.4,48,62.4z M72,24L52.8,43.2C72,60.6,72,24,72,24z M43.2,43.2L24,24C24,24,24,60.6,43.2,43.2z"/>
		</g>
	</g>
</g>
<g id="Image_xA0_23_00000052102525993713919410000009545652869795346351_" class="st0">
	<g id="Image_xA0_23" class="st1">
		<g>
			<path d="M62.4,40.8c3.98,0,7.2-3.22,7.2-7.2s-3.22-7.2-7.2-7.2c-3.98,0-7.2,3.22-7.2,7.2S58.42,40.8,62.4,40.8z M33.6,40.8
				c3.98,0,7.2-3.22,7.2-7.2s-3.22-7.2-7.2-7.2c-3.98,0-7.2,3.22-7.2,7.2S29.62,40.8,33.6,40.8z M48,52.8
				c-10.67,0-19.98,5.79-24.96,14.4h49.92C67.98,58.59,58.67,52.8,48,52.8z"/>
		</g>
	</g>
</g>
<g id="pin3_00000161618015542317155140000008859590607013312946_" class="st2">
	<g id="pin3">
		<g>
			<path d="M67.2,43.2v-9.6c0-5.3-4.3-9.6-9.6-9.6H28.8v9.6H48h9.6v9.6H48h-9.6v9.6H48h9.6v9.6H48H28.8V72h28.8
				c5.3,0,9.6-4.3,9.6-9.6v-9.6c0-2.65-2.15-4.8-4.8-4.8C65.05,48,67.2,45.85,67.2,43.2z"/>
		</g>
	</g>
</g>
<g id="pin2" class="st0">
	<g id="Image_xA0_25" class="st1">
		<g>
			<path d="M48,52.8h9.6c5.3,0,9.6-4.3,9.6-9.6v-9.6c0-5.3-4.3-9.6-9.6-9.6H28.8v9.6H48h9.6v9.6H48h-9.6c-5.3,0-9.6,4.3-9.6,9.6v9.6
				V72h38.4v-9.6H48h-9.6v-9.6H48z"/>
		</g>
	</g>
</g>
<g id="pin1" class="st0">
	<g id="Image_xA0_26" class="st1">
		<g>
			<polygon points="28.8,24 28.8,33.6 43.2,33.6 43.2,72 52.8,72 52.8,33.6 52.8,24 			"/>
		</g>
	</g>
</g>
</svg>
