<?xml version="1.0" encoding="utf-8"?>
<!-- Generator: Adobe Illustrator 27.4.0, SVG Export Plug-In . SVG Version: 6.00 Build 0)  -->
<svg version="1.1" id="Layer_1" xmlns="http://www.w3.org/2000/svg" xmlns:xlink="http://www.w3.org/1999/xlink" x="0px" y="0px"
	 viewBox="0 0 400 400" style="enable-background:new 0 0 400 400;" xml:space="preserve">
<style type="text/css">
	.st0{enable-background:new    ;}
</style>
<g id="target_x5F_full" class="st0">
	<g id="Image_xA0_1">
		<g>
			<path d="M60.09,300.05H20.12v39.97c0,22.07,17.9,39.97,39.97,39.97h39.97v-39.97H60.09V300.05z M20.12,60.22v39.97h39.97V60.22
				h39.97V20.24H60.09C38.03,20.24,20.12,38.15,20.12,60.22z M339.91,340.03h-39.97V380h39.97c22.07,0,39.97-17.9,39.97-39.97
				v-39.97h-39.97V340.03z M339.91,20.24h-39.97v39.97h39.97v39.97h39.97V60.22C379.88,38.15,361.97,20.24,339.91,20.24z
				 M170.02,60.22h59.96L200,0.26L170.02,60.22z"/>
		</g>
	</g>
</g>
<path d="M309.6,309.6L309.6,309.6c-8.28,0-12.93,0-21.21,0L90.4,111.61c0-8.28,0-12.93,0-21.21l0,0c8.28,0,12.93,0,21.21,0
	L309.6,288.39C309.6,296.67,309.6,301.32,309.6,309.6z"/>
<path d="M90.4,309.6L90.4,309.6c0-8.28,0-12.93,0-21.21L288.39,90.4c8.28,0,12.93,0,21.21,0l0,0c0,8.28,0,12.93,0,21.21
	L111.61,309.6C103.33,309.6,98.68,309.6,90.4,309.6z"/>
</svg>
