<?xml version="1.0" encoding="utf-8"?>
<!-- Generator: Adobe Illustrator 27.4.0, SVG Export Plug-In . SVG Version: 6.00 Build 0)  -->
<svg version="1.1" id="Layer_1" xmlns="http://www.w3.org/2000/svg" xmlns:xlink="http://www.w3.org/1999/xlink" x="0px" y="0px"
	 viewBox="0 0 96 96" style="enable-background:new 0 0 96 96;" xml:space="preserve">
<style type="text/css">
	.st0{enable-background:new    ;}
</style>
<g id="target_x5F_full" class="st0">
	<g id="Image_xA0_1">
		<g>
			<path d="M14.4,72H4.8v9.6c0,5.3,4.3,9.6,9.6,9.6H24v-9.6h-9.6V72z M4.8,14.4V24h9.6v-9.6H24V4.8h-9.6C9.1,4.8,4.8,9.1,4.8,14.4z
				 M81.6,81.6H72v9.6h9.6c5.3,0,9.6-4.3,9.6-9.6V72h-9.6V81.6z M81.6,4.8H72v9.6h9.6V24h9.6v-9.6C91.2,9.1,86.9,4.8,81.6,4.8z
				 M40.8,14.4h14.4L48,0L40.8,14.4z"/>
		</g>
	</g>
</g>
<g id="subtarget" class="st0">
	<g id="Image_xA0_17">
		<g>
			<path d="M24,28.8v9.6h7.2v-7.2h7.2V24h-9.6C26.15,24,24,26.15,24,28.8z M31.2,57.6H24v9.6c0,2.65,2.15,4.8,4.8,4.8h9.6v-7.2h-7.2
				V57.6z M67.2,24h-9.6v7.2h7.2v7.2H72v-9.6C72,26.15,69.85,24,67.2,24z M48,43.2c-2.65,0-4.8,2.15-4.8,4.8s2.15,4.8,4.8,4.8
				s4.8-2.15,4.8-4.8S50.65,43.2,48,43.2z M64.8,64.8h-7.2V72h9.6c2.65,0,4.8-2.15,4.8-4.8v-9.6h-7.2C64.8,57.6,64.8,64.8,64.8,64.8
				z"/>
		</g>
	</g>
</g>
</svg>
