<?xml version="1.0" encoding="utf-8"?>
<!-- Generator: Adobe Illustrator 27.4.0, SVG Export Plug-In . SVG Version: 6.00 Build 0)  -->
<svg version="1.1" xmlns="http://www.w3.org/2000/svg" xmlns:xlink="http://www.w3.org/1999/xlink" x="0px" y="0px"
	 viewBox="0 0 400 400" style="enable-background:new 0 0 400 400;" xml:space="preserve">
<g id="turret_base">
	<polygon points="200,360 160,400 199.7,400 229.74,370 259.74,400 299.74,400 250,350 	"/>
</g>
<g id="turret_gun">
	<rect x="258.16" y="287.45" transform="matrix(0.9848 -0.1736 0.1736 0.9848 -46.8179 59.7676)" width="120" height="20"/>
	<polygon points="264.29,337.41 136.26,359.99 126.03,301.05 253.87,278.32 	"/>
	<rect x="357.25" y="272.03" transform="matrix(0.9848 -0.1736 0.1736 0.9848 -44.111 69.8699)" width="40" height="30"/>
</g>
<g id="gyro">
	<g>
		<path d="M140,0c-33.14,0-60,62.68-60,140s26.86,140,60,140s60-62.68,60-140S173.14,0,140,0z M140,250c-16.57,0-30-49.25-30-110
			s13.43-110,30-110s30,49.25,30,110S156.57,250,140,250z"/>
	</g>
	<g>
		<path d="M0,140c0,33.14,62.68,60,140,60s140-26.86,140-60s-62.68-60-140-60S0,106.86,0,140z M250,140c0,16.57-49.25,30-110,30
			S30,156.57,30,140s49.25-30,110-30S250,123.43,250,140z"/>
	</g>
</g>
</svg>
