<?xml version="1.0" encoding="utf-8"?>
<!-- Generator: Adobe Illustrator 27.4.0, SVG Export Plug-In . SVG Version: 6.00 Build 0)  -->
<svg version="1.1" id="icon" xmlns="http://www.w3.org/2000/svg" xmlns:xlink="http://www.w3.org/1999/xlink" x="0px" y="0px"
	 viewBox="0 0 400 400" style="enable-background:new 0 0 400 400;" xml:space="preserve">
<circle cx="200" cy="320" r="25"/>
<path d="M260,260h-20l-20-20h-40l-20,20h-20c-11.05,0-20,8.95-20,20v80c0,11.05,8.95,20,20,20h120c11.05,0,20-8.95,20-20v-80
	C280,268.95,271.05,260,260,260z M260,360H140v-80h30l20-20h20l20,20h30V360z"/>
<rect x="127.23" y="10.04" transform="matrix(0.9659 -0.2588 0.2588 0.9659 -25.2861 40.5538)" width="28.28" height="212.54"/>
<rect x="244.48" y="10.04" transform="matrix(0.9659 0.2588 -0.2588 0.9659 38.9157 -62.9738)" width="28.28" height="212.54"/>
<g>
	<path d="M200,200L248.38,5.94C232.56,2,216.31,0,200,0s-32.56,2-48.38,5.94L200,200z"/>
</g>
</svg>
