<?xml version="1.0" encoding="UTF-8" standalone="no"?>
<!DOCTYPE svg PUBLIC "-//W3C//DTD SVG 1.1//EN" "http://www.w3.org/Graphics/SVG/1.1/DTD/svg11.dtd">
<svg width="100%" height="100%" viewBox="0 0 400 400" version="1.1" xmlns="http://www.w3.org/2000/svg" xmlns:xlink="http://www.w3.org/1999/xlink" xml:space="preserve" xmlns:serif="http://www.serif.com/" style="fill-rule:evenodd;clip-rule:evenodd;stroke-linejoin:round;stroke-miterlimit:2;">
    <g id="icon">
        <g>
            <path d="M280,270L385,375L280,375L280,270Z"/>
            <path d="M106.754,70C66.34,99.052 40,146.474 40,200C40,288.306 111.694,360 200,360C217.458,360 234.266,357.198 250,352.019L250,393.688C234.017,397.808 217.262,400 200,400C89.617,400 0,310.383 0,200C0,134.625 31.434,76.535 80,40.031L80,70L106.754,70ZM305.786,320C339.023,290.673 360,247.767 360,200C360,111.694 288.306,40 200,40C182.542,40 165.733,42.802 150,47.981L150,6.312C165.983,2.192 182.738,0 200,0C310.383,0 400,89.617 400,200C400,265.375 368.566,323.465 320,359.969L320,320L305.786,320Z"/>
            <g transform="matrix(1,0,0,1,195.867,53.4281)">
                <path d="M-180.867,-28.428L-75.867,76.572L-75.867,-28.428L-180.867,-28.428Z" style="fill-rule:nonzero;"/>
            </g>
        </g>
        <path d="M300,144.034C324.739,158.466 340,178.222 340,200C340,244.153 277.268,280 200,280C122.732,280 60,244.153 60,200C60,178.222 75.261,158.466 100,144.034L100,179.155C93.58,185.502 90,192.562 90,200C90,227.596 139.289,250 200,250C260.711,250 310,227.596 310,200C310,192.562 306.42,185.502 300,179.155L300,144.034Z"/>
        <g transform="matrix(1,0,0,1,0,-120)">
            <circle cx="200" cy="320" r="25"/>
            <g transform="matrix(1,0,0,1,0,120)">
                <path d="M120,213.748L120,160C120,148.95 128.95,140 140,140L160,140L180,120L220,120L240,140L260,140C271.05,140 280,148.95 280,160L280,213.748C274.94,217.011 268.135,219.925 260,222.353L260,160L230,160L210,140L190,140L170,160L140,160L140,222.353C131.865,219.925 125.06,217.011 120,213.748ZM280,234.303L280,240C280,251.05 271.05,260 260,260L140,260C128.95,260 120,251.05 120,240L120,234.303C140.062,243.966 168.493,250 200,250C231.507,250 259.938,243.966 280,234.303Z" style="fill-rule:nonzero;"/>
            </g>
        </g>
    </g>
</svg>
