<?xml version="1.0" encoding="utf-8"?>
<!-- Generator: Adobe Illustrator 27.4.0, SVG Export Plug-In . SVG Version: 6.00 Build 0)  -->
<svg version="1.1" id="icon" xmlns="http://www.w3.org/2000/svg" xmlns:xlink="http://www.w3.org/1999/xlink" x="0px" y="0px"
	 viewBox="0 0 400 400" style="enable-background:new 0 0 400 400;" xml:space="preserve">
<circle cx="200" cy="280" r="25"/>
<path d="M120,240v80c0,11.05,8.95,20,20,20h120c11.05,0,20-8.95,20-20v-80c0-11.05-8.95-20-20-20h-20l-20-20h-40l-20,20h-20
	C128.95,220,120,228.95,120,240z M140,240h30l20-20h20l20,20h30v80H140V240z"/>
<polygon points="200,40 130,110 175,110 175,160 225,160 225,110 270,110 "/>
</svg>
