<?xml version="1.0" encoding="utf-8"?>
<!-- Generator: Adobe Illustrator 27.4.0, SVG Export Plug-In . SVG Version: 6.00 Build 0)  -->
<svg version="1.1" id="icon" xmlns="http://www.w3.org/2000/svg" xmlns:xlink="http://www.w3.org/1999/xlink" x="0px" y="0px"
	 viewBox="0 0 400 400" style="enable-background:new 0 0 400 400;" xml:space="preserve">
<path d="M240,200h80V86.67L253.33,20h-200C34.83,20,20,35,20,53.33v233.33C20,305.08,34.92,320,53.33,320H240V200z M170,286.67
	c-27.61,0-50-22.39-50-50c0-27.61,22.39-50,50-50s50,22.39,50,50C220,264.28,197.61,286.67,170,286.67z M53.33,120V53.33H220V120
	H53.33z"/>
<path id="_x38_" d="M340,220L340,220h-40l0,0c-22.09,0-40,17.91-40,40l0,0v20c0,11.05,8.95,20,20,20c-11.05,0-20,8.95-20,20l0,0v20
	c0,22.09,17.91,40,40,40l0,0h40l0,0c22.09,0,40-17.91,40-40v-20l0,0c0-11.05-8.95-20-20-20c11.05,0,20-8.95,20-20v-20l0,0
	C380,237.91,362.09,220,340,220z M340,340h-40v-20h20h20V340z M340,280h-20h-20v-20h40V280z"/>
</svg>
