<?xml version="1.0" encoding="utf-8"?>
<!-- Generator: Adobe Illustrator 27.4.0, SVG Export Plug-In . SVG Version: 6.00 Build 0)  -->
<svg version="1.1" id="icon" xmlns="http://www.w3.org/2000/svg" xmlns:xlink="http://www.w3.org/1999/xlink" x="0px" y="0px"
	 viewBox="0 0 400 400" style="enable-background:new 0 0 400 400;" xml:space="preserve">
<g>
	<g>
		<path d="M353.38,245.66c4.3-14.47,6.62-29.79,6.62-45.66c0-29.14-7.8-56.47-21.41-80h-57.76L353.38,245.66z"/>
	</g>
	<g>
		<path d="M200,40l-28.87,50h145.05C287.02,59.21,245.76,40,200,40L200,40z"/>
	</g>
	<g>
		<path d="M90.3,170l72.55-125.65c-43.27,10.29-79.74,38.15-101.43,75.63L90.3,170z"/>
	</g>
	<g>
		<path d="M228.87,310H83.82c29.16,30.79,70.43,50,116.18,50L228.87,310z"/>
	</g>
	<g>
		<path d="M309.7,230l-72.55,125.65c43.27-10.29,79.74-38.15,101.43-75.63L309.7,230z"/>
	</g>
	<g>
		<path d="M46.62,154.34C42.32,168.81,40,184.13,40,200c0,29.14,7.8,56.47,21.41,80h57.76L46.62,154.34z"/>
	</g>
</g>
</svg>
