<?xml version="1.0" encoding="utf-8"?>
<!-- Generator: Adobe Illustrator 27.4.0, SVG Export Plug-In . SVG Version: 6.00 Build 0)  -->
<svg version="1.1" id="icon" xmlns="http://www.w3.org/2000/svg" xmlns:xlink="http://www.w3.org/1999/xlink" x="0px" y="0px"
	 viewBox="0 0 400 400" style="enable-background:new 0 0 400 400;" xml:space="preserve">
<path id="_x38_" d="M340,220L340,220h-40h0c-22.09,0-40,17.91-40,40v0v20c0,11.05,8.95,20,20,20c-11.05,0-20,8.95-20,20v0v20
	c0,22.09,17.91,40,40,40h0h40h0c22.09,0,40-17.91,40-40v-20v0c0-11.05-8.95-20-20-20c11.05,0,20-8.95,20-20v-20v0
	C380,237.91,362.09,220,340,220z M340,340h-40v-20h20h20V340z M340,280h-20h-20v-20h40V280z"/>
<path d="M170,115c-41.42,0-75,33.58-75,75c0,41.42,33.58,75,75,75s75-33.58,75-75C245,148.58,211.42,115,170,115z M170,235
	c-24.85,0-45-20.15-45-45c0-24.85,20.15-45,45-45s45,20.15,45,45C215,214.85,194.85,235,170,235z"/>
<path d="M50,100h60.75l27.45-30h63.6l27.45,30H290v100h30V100c0-16.57-13.43-30-30-30h-47.55L215,40h-90L97.55,70H50
	c-16.57,0-30,13.43-30,30v180c0,16.57,13.43,30,30,30h190v-30H50V100z"/>
</svg>
