<?xml version="1.0" encoding="utf-8"?>
<!-- Generator: Adobe Illustrator 27.4.0, SVG Export Plug-In . SVG Version: 6.00 Build 0)  -->
<svg version="1.1" id="icon" xmlns="http://www.w3.org/2000/svg" xmlns:xlink="http://www.w3.org/1999/xlink" x="0px" y="0px"
	 viewBox="0 0 400 400" style="enable-background:new 0 0 400 400;" xml:space="preserve">
<polygon id="num" points="260,220 260,260 300,260 300,380 340,380 340,260 340,220 "/>
<path d="M240,200h80V86.67L253.33,20h-200C34.83,20,20,35,20,53.33v233.33C20,305.08,34.92,320,53.33,320H240V200z M170,286.67
	c-27.61,0-50-22.39-50-50c0-27.61,22.39-50,50-50s50,22.39,50,50C220,264.28,197.61,286.67,170,286.67z M53.33,120V53.33H220V120
	H53.33z"/>
</svg>
