<?xml version="1.0" encoding="utf-8"?>
<!-- Generator: Adobe Illustrator 27.4.0, SVG Export Plug-In . SVG Version: 6.00 Build 0)  -->
<svg version="1.1" id="icon" xmlns="http://www.w3.org/2000/svg" xmlns:xlink="http://www.w3.org/1999/xlink" x="0px" y="0px"
	 viewBox="0 0 400 400" style="enable-background:new 0 0 400 400;" xml:space="preserve">
<circle cx="200" cy="300" r="25"/>
<path d="M260,240h-20l-20-20h-40l-20,20h-20c-11.05,0-20,8.95-20,20v80c0,11.05,8.95,20,20,20h120c11.05,0,20-8.95,20-20v-80
	C280,248.95,271.05,240,260,240z M260,340H140v-80h30l20-20h20l20,20h30V340z"/>
<rect x="54.79" y="96.72" transform="matrix(0.7071 -0.7071 0.7071 0.7071 -99.2641 98.2233)" width="28.28" height="144.44"/>
<rect x="316.92" y="96.72" transform="matrix(0.7071 0.7071 -0.7071 0.7071 216.4214 -184.6194)" width="28.28" height="144.44"/>
<g>
	<path d="M200,185c17.54,0,34.16,3.93,49.04,10.96L352.03,92.97C311.72,52.67,257,30,200,30S88.28,52.67,47.97,92.97l102.99,102.99
		C165.84,188.93,182.46,185,200,185z"/>
</g>
</svg>
