<?xml version="1.0" encoding="utf-8"?>
<!-- Generator: Adobe Illustrator 27.4.0, SVG Export Plug-In . SVG Version: 6.00 Build 0)  -->
<svg version="1.1" id="icon" xmlns="http://www.w3.org/2000/svg" xmlns:xlink="http://www.w3.org/1999/xlink" x="0px" y="0px"
	 viewBox="0 0 400 400" style="enable-background:new 0 0 400 400;" xml:space="preserve">
<circle cx="120" cy="200" r="25"/>
<path d="M40,160v80c0,11.05,8.95,20,20,20h120c11.05,0,20-8.95,20-20v-80c0-11.05-8.95-20-20-20h-20l-20-20h-40l-20,20H60
	C48.95,140,40,148.95,40,160z M60,160h30l20-20h20l20,20h30v80H60V160z"/>
<polygon points="360,190 290,120 290,165 240,165 240,215 290,215 290,260 "/>
</svg>
