<?xml version="1.0" encoding="utf-8"?>
<!-- Generator: Adobe Illustrator 27.4.0, SVG Export Plug-In . SVG Version: 6.00 Build 0)  -->
<svg version="1.1" id="icon" xmlns="http://www.w3.org/2000/svg" xmlns:xlink="http://www.w3.org/1999/xlink" x="0px" y="0px"
	 viewBox="0 0 400 400" style="enable-background:new 0 0 400 400;" xml:space="preserve">
<path d="M240,200h80V86.67L253.33,20h-200C34.83,20,20,35,20,53.33v233.33C20,305.08,34.92,320,53.33,320H240V200z M170,286.67
	c-27.61,0-50-22.39-50-50c0-27.61,22.39-50,50-50s50,22.39,50,50C220,264.28,197.61,286.67,170,286.67z M53.33,120V53.33H220V120
	H53.33z"/>
<path id="_x39_" d="M300,320h40v20h-80v40h80l0,0l0,0c22.09,0,40-17.91,40-40v-20v-40v-20c0-22.09-17.91-40-40-40h-40
	c-22.09,0-40,17.91-40,40l0,0v20C260,302.09,277.91,320,300,320z M300,260h40v20h-40V260z"/>
</svg>
