<?xml version="1.0" encoding="utf-8"?>
<!-- Generator: Adobe Illustrator 27.4.0, SVG Export Plug-In . SVG Version: 6.00 Build 0)  -->
<svg version="1.1" id="Layer_2" xmlns="http://www.w3.org/2000/svg" xmlns:xlink="http://www.w3.org/1999/xlink" x="0px" y="0px"
	 viewBox="0 0 400 400" style="enable-background:new 0 0 400 400;" xml:space="preserve">
<g>
	<path d="M153.81,220L80.71,93.38C55.4,121.69,40,159.04,40,200c0,6.77,0.43,13.45,1.24,20H153.81z"/>
	<path d="M159.59,170l73.12-126.65C222.15,41.16,211.21,40,200,40c-36.33,0-69.83,12.12-96.69,32.52L159.59,170z"/>
	<path d="M205.77,150h146.25c-14.48-44.05-47.56-79.65-89.95-97.51L205.77,150z"/>
	<path d="M246.19,180l73.1,126.62C344.6,278.31,360,240.96,360,200c0-6.77-0.43-13.45-1.24-20H246.19z"/>
	<path d="M240.41,230l-73.12,126.65c10.56,2.19,21.5,3.35,32.71,3.35c36.33,0,69.83-12.12,96.69-32.52L240.41,230z"/>
	<path d="M194.23,250H47.98c14.48,44.05,47.56,79.65,89.95,97.51L194.23,250z"/>
</g>
</svg>
