<?xml version="1.0" encoding="utf-8"?>
<!-- Generator: Adobe Illustrator 27.4.0, SVG Export Plug-In . SVG Version: 6.00 Build 0)  -->
<svg version="1.1" id="icon" xmlns="http://www.w3.org/2000/svg" xmlns:xlink="http://www.w3.org/1999/xlink" x="0px" y="0px"
	 viewBox="0 0 400 400" style="enable-background:new 0 0 400 400;" xml:space="preserve">
<path d="M170,115c-41.42,0-75,33.58-75,75c0,41.42,33.58,75,75,75s75-33.58,75-75C245,148.58,211.42,115,170,115z M170,235
	c-24.85,0-45-20.15-45-45c0-24.85,20.15-45,45-45s45,20.15,45,45C215,214.85,194.85,235,170,235z"/>
<path d="M180,280H50V100h60.75l27.45-30h63.6l27.45,30H290v100h30V100c0-16.57-13.43-30-30-30h-47.55L215,40h-90L97.55,70H50
	c-16.57,0-30,13.43-30,30v180c0,16.57,13.43,30,30,30h130V280z"/>
<path d="M320,240c-44.18,0-80,35.82-80,80h-33.14l46.57,46.57L300,320h-30c0-27.61,22.39-50,50-50s50,22.39,50,50
	c0,27.61-22.39,50-50,50c-8.66,0-16.81-2.21-23.92-6.08l-21.75,21.75C287.28,394.69,303.02,400,320,400c44.18,0,80-35.82,80-80
	C400,275.82,364.18,240,320,240z"/>
</svg>
