<?xml version="1.0" encoding="utf-8"?>
<!-- Generator: Adobe Illustrator 27.4.0, SVG Export Plug-In . SVG Version: 6.00 Build 0)  -->
<svg version="1.1" xmlns="http://www.w3.org/2000/svg" xmlns:xlink="http://www.w3.org/1999/xlink" x="0px" y="0px"
	 viewBox="0 0 400 400" style="enable-background:new 0 0 400 400;" xml:space="preserve">
<g id="bomb">
	<polygon points="216.76,209.51 132.52,97.09 126.9,101.3 93.2,56.33 59.47,81.6 93.17,126.57 87.55,130.78 171.79,243.21 
		219.55,260.09 	"/>
	<polygon points="98.82,52.11 124.12,15.6 140.97,38.08 115.67,74.6 	"/>
	<polygon points="53.85,85.81 70.7,108.3 28.54,122.33 11.7,99.84 	"/>
</g>
<g id="target">
	<path d="M220,120c-12.6,0-24.8,1.67-36.41,4.79l23.25,31.03c4.31-0.54,8.7-0.82,13.16-0.82c57.99,0,105,47.01,105,105
		c0,57.99-47.01,105-105,105c-57.99,0-105-47.01-105-105c0-16.15,3.65-31.44,10.16-45.11l-22.93-30.61C88.16,206.11,80,232.1,80,260
		c0,77.32,62.68,140,140,140s140-62.68,140-140S297.32,120,220,120z"/>
</g>
</svg>
