<?xml version="1.0" encoding="utf-8"?>
<!-- Generator: Adobe Illustrator 27.4.0, SVG Export Plug-In . SVG Version: 6.00 Build 0)  -->
<svg version="1.1" id="icon" xmlns="http://www.w3.org/2000/svg" xmlns:xlink="http://www.w3.org/1999/xlink" x="0px" y="0px"
	 viewBox="0 0 400 400" style="enable-background:new 0 0 400 400;" xml:space="preserve">
<style type="text/css">
	.st0{fill-rule:evenodd;clip-rule:evenodd;}
</style>
<polygon points="40,0 0,0 0,320 40,320 58.44,205 83.44,75 "/>
<path d="M328.68,180.05l-3.54,6.12l-86.68-33.71l-1.29-4.83L105,90L85,190l69.46,16.02l13.54,11.9L380,275l-22-82.1L328.68,180.05z
	 M206.51,181.72l42.17-16.48l6.12,3.54l-42.17,16.48L206.51,181.72z M240.66,193.28l42.17-16.48l6.12,3.54l-42.17,16.48
	L240.66,193.28z M280.94,208.37l-6.12-3.54l42.17-16.48l6.12,3.54L280.94,208.37z"/>
<path id="arrow" class="st0" d="M265.27,303.14l-19.32-5.18l48.99-28.29l28.29,48.99l-19.32-5.18
	c-8.92,33.43-20.62,56.01-43.43,86.5L230,377.19C246.65,356.03,259.18,325.95,265.27,303.14z"/>
</svg>
