<?xml version="1.0" encoding="utf-8"?>
<!-- Generator: Adobe Illustrator 27.4.0, SVG Export Plug-In . SVG Version: 6.00 Build 0)  -->
<svg version="1.1" id="icon" xmlns="http://www.w3.org/2000/svg" xmlns:xlink="http://www.w3.org/1999/xlink" x="0px" y="0px"
	 viewBox="0 0 400 400" style="enable-background:new 0 0 400 400;" xml:space="preserve">
<style type="text/css">
	.st0{fill-rule:evenodd;clip-rule:evenodd;}
</style>
<polygon points="40,0 0,0 0,320 40,320 58.44,205 83.44,75 "/>
<path id="arrow" class="st0" d="M340,170l35,15c-15,35-28.71,56.42-53.2,80.86L335.94,280h-56.57v-56.57l14.14,14.14
	C310.22,220.89,330,195,340,170z"/>
<path d="M243.51,292.11l-6.12,3.54l-58.21-72.54l1.29-4.83l-79.83-115.02L77.69,225.63l1.96,1.87l5.78,17.08L240.49,400l22-82.1
	L243.51,292.11z M136.88,232.48l44.76,6.82l3.54,6.12l-44.76-6.82L136.88,232.48z M160.68,259.56l44.76,6.82l3.54,6.12l-44.76-6.82
	L160.68,259.56z M188.01,292.77l-3.54-6.12l44.76,6.82l3.54,6.12L188.01,292.77z"/>
</svg>
