<?xml version="1.0" encoding="utf-8"?>
<!-- Generator: Adobe Illustrator 27.4.0, SVG Export Plug-In . SVG Version: 6.00 Build 0)  -->
<svg version="1.1" xmlns="http://www.w3.org/2000/svg" xmlns:xlink="http://www.w3.org/1999/xlink" x="0px" y="0px"
	 viewBox="0 0 400 400" style="enable-background:new 0 0 400 400;" xml:space="preserve">
<style type="text/css">
	.st0{enable-background:new    ;}
	.st1{display:none;}
	.st2{display:inline;}
</style>
<g id="cooler" class="st0">
	<path d="M160,40c-36.09,0-69.32,12.15-96.11,32.39h-0.03l-0.02,0.04C25.14,101.65,0,147.88,0,200c0,88.23,71.78,160,160,160
		c36.09,0,69.32-12.15,96.11-32.39h0.03l0.03-0.05C294.85,298.33,320,252.1,320,200C320,111.78,248.22,40,160,40z M244.97,276.72
		c-22.03-1.53-42.13-13.13-54.46-31.44l-5.69-8.45l-23.79,8.05l2.11,14.28c4.28,28.91,25.7,52.32,54.14,59.15l17.53,4.23
		c-21.83,13.37-47.39,21.23-74.82,21.23c-2.91,0-5.76-0.27-8.62-0.44l-15.32-31.38c-9.7-19.83-9.7-43.04,0-62.89l4.47-9.15
		l-18.86-16.57l-11.3,8.97c-22.91,18.18-32.47,48.43-24.17,76.46l5.19,17.54c-25.75-14.05-46.63-35.81-59.81-62.08l19.51-28.96
		c12.34-18.32,32.43-29.91,54.46-31.46l10.18-0.7l4.93-24.63l-13.41-5.28c-27.19-10.76-58.18-3.93-78.3,17.28l-12.49,13.15
		c-0.04-1.22-0.2-2.4-0.2-3.62c0-29.22,8.82-56.41,23.86-79.13l34.91,2.41c22.03,1.53,42.13,13.13,54.46,31.44l5.69,8.45l23.79-8.05
		l-2.11-14.27c-4.29-28.91-25.71-52.33-54.14-59.15L85.16,77.5c21.85-13.37,47.42-21.23,74.84-21.23c2.91,0,5.76,0.27,8.62,0.44
		l15.33,31.38c9.69,19.83,9.69,43.04,0,62.89l-4.47,9.16l18.86,16.58l11.3-8.97c22.9-18.18,32.46-48.43,24.16-76.46l-5.2-17.53
		c25.77,14.05,46.64,35.81,59.83,62.08l-19.51,28.96c-12.36,18.31-32.43,29.91-54.48,31.46l-10.16,0.7l-4.93,24.63l13.41,5.28
		c27.19,10.75,58.18,3.9,78.31-17.3l12.49-13.15c0.03,1.22,0.18,2.39,0.18,3.61c0,29.22-8.82,56.41-23.86,79.13L244.97,276.72
		L244.97,276.72z"/>
</g>
<g id="inc">
	<g id="arrow_00000049929326606137438940000014438440912879242147_">
		<g>
			<polygon points="360,140 320,260 400,260 			"/>
		</g>
	</g>
</g>
<g id="dec" class="st1">
	<g id="arrow" class="st2">
		<g>
			<polygon points="320,140 360,260 400,140 			"/>
		</g>
	</g>
</g>
</svg>
