<?xml version="1.0" encoding="utf-8"?>
<!-- Generator: Adobe Illustrator 27.4.0, SVG Export Plug-In . SVG Version: 6.00 Build 0)  -->
<svg version="1.1" id="Layer_1" xmlns="http://www.w3.org/2000/svg" xmlns:xlink="http://www.w3.org/1999/xlink" x="0px" y="0px"
	 viewBox="0 0 400 400" style="enable-background:new 0 0 400 400;" xml:space="preserve">
<style type="text/css">
	.st0{fill-rule:evenodd;clip-rule:evenodd;}
</style>
<polygon class="st0" points="213.3,266.61 160.09,239.96 160.09,200 70,200 66.96,200 0,200 0,360 70,360 70,360 160.09,359.86 
	160.09,319.89 213.3,293.25 "/>
<polygon class="st0" points="330,200 330,200.27 213.3,200.07 213.3,226.71 266.52,253.36 266.52,306.64 213.3,333.29 213.3,359.93 
	330,359.93 330,360 400,360 400,200 "/>
<polygon class="st0" points="280,100 200,20 200,70 120,70 120,130 200,130 200,180 "/>
</svg>
