<?xml version="1.0" encoding="utf-8"?>
<!-- Generator: Adobe Illustrator 27.4.0, SVG Export Plug-In . SVG Version: 6.00 Build 0)  -->
<svg version="1.1" id="Layer_1" xmlns="http://www.w3.org/2000/svg" xmlns:xlink="http://www.w3.org/1999/xlink" x="0px" y="0px"
	 viewBox="0 0 400 400" style="enable-background:new 0 0 400 400;" xml:space="preserve">
<style type="text/css">
	.st0{fill-rule:evenodd;clip-rule:evenodd;}
</style>
<polygon class="st0" points="213.3,186.61 160.09,159.96 160.09,120 70,120 66.96,120 0,120 0,280 70,280 70,280 160.09,279.86 
	160.09,239.89 213.3,213.25 "/>
<path class="st0" d="M340,240c22.51,0,43.29,7.44,60,20V120h-70v0.27l-116.7-0.2v26.64l53.21,26.64v53.29l-53.21,26.64v26.64h46.75
	C278.3,255.68,307.32,240,340,240z"/>
<g id="toggle">
	<g id="toggle_00000003796461442717959090000016111378498880301219_">
		<g>
			<path d="M365,280.13v28.28l15,15v33.14l-23.43,23.43h-33.14L300,356.56v-33.14l15-15v-28.28l-35,35v49.71L315.15,400h49.71
				L400,364.84v-49.71L365,280.13z M352,279.99h-24v80h24V279.99z"/>
		</g>
	</g>
</g>
</svg>
