<?xml version="1.0" encoding="utf-8"?>
<!-- Generator: Adobe Illustrator 27.4.0, SVG Export Plug-In . SVG Version: 6.00 Build 0)  -->
<svg version="1.1" xmlns="http://www.w3.org/2000/svg" xmlns:xlink="http://www.w3.org/1999/xlink" x="0px" y="0px"
	 viewBox="0 0 400 400" style="enable-background:new 0 0 400 400;" xml:space="preserve">
<style type="text/css">
	.st0{enable-background:new    ;}
</style>
<g id="pilot_in_seat">
	<g id="seat_00000012446240921242349810000013622872642998655155_" class="st0">
		<g id="seat">
			<g>
				<polygon points="60.71,100.42 93.36,280 221.03,280 221.03,320 121.03,320 100.63,320 59.97,320 21.35,107.58 				"/>
			</g>
		</g>
	</g>
	<g id="people_00000107586303666823575820000008444456276571078274_" class="st0">
		<g id="people">
			<g>
				<polygon points="233.28,220 261.03,220 275.45,220 320,353.68 282.06,366.32 246.61,260 161.03,260 161.03,220 				"/>
			</g>
		</g>
	</g>
	<g id="people_copy_00000138538648730154986150000003058957876704924335_" class="st0">
		<g id="people_copy">
			<g>
				<path d="M102.39,126.88l17.36,98.48c3.84,21.76,21.28,34.64,41.28,34.64l20-40l-8.2-39.17l-0.93-5.28l-10.42-59.09
					c-1.92-10.88-16.7-17.37-33.02-14.49S100.47,116,102.39,126.88z M90.23,57.94c2.87,16.31,18.43,27.21,34.75,24.33
					c16.31-2.87,27.21-18.43,24.33-34.75c-2.87-16.31-18.43-27.21-34.75-24.33C98.25,26.07,87.35,41.63,90.23,57.94z"/>
			</g>
		</g>
	</g>
</g>
<g id="arrow_00000153702971317998129990000005453632192944294814_">
	<g id="arrow_00000174562948701453448170000015855318608135354802_" class="st0">
		<g id="arrow_00000037667165554071999760000009290231740508316829_">
			<g>
				<polygon points="230,10 290,70 250,70 250,130 210,130 210,70 170,70 				"/>
			</g>
		</g>
	</g>
</g>
<g id="warning_x21__x21_">
	<rect x="370" y="100" transform="matrix(-1 -4.489887e-11 4.489887e-11 -1 770 230)" width="30" height="30"/>
	<rect x="370" y="0" transform="matrix(-1 -4.489887e-11 4.489887e-11 -1 770 80)" width="30" height="80"/>
	<rect x="310" y="100" transform="matrix(-1 -4.486867e-11 4.486867e-11 -1 650 230)" width="30" height="30"/>
	<rect x="310" y="0" transform="matrix(-1 -4.486823e-11 4.486823e-11 -1 650 80)" width="30" height="80"/>
</g>
</svg>
