<?xml version="1.0" encoding="utf-8"?>
<!-- Generator: Adobe Illustrator 27.4.0, SVG Export Plug-In . SVG Version: 6.00 Build 0)  -->
<svg version="1.1" id="arrow" xmlns="http://www.w3.org/2000/svg" xmlns:xlink="http://www.w3.org/1999/xlink" x="0px" y="0px"
	 viewBox="0 0 400 400" style="enable-background:new 0 0 400 400;" xml:space="preserve">
<g>
	<path d="M164.95,226.91v-53.82c0.04-13.34,4.7-26.19,13.09-36.43L260,60L0,200l260,140l-81.95-76.67
		C169.66,253.1,165,240.25,164.95,226.91z"/>
	<polygon points="350.14,200 218.77,253.82 274.96,307.63 270.21,268.06 400,200 270.21,132.73 274.96,92.37 218.77,146.18 	"/>
	<path d="M195.03,179.42v40.36c0.02,1.02,0.22,2.02,0.59,2.97c1.75,4.48,7.59,6.69,12.07,4.94l62.52-27.7l-63.31-28.49
		c-0.95-0.37-1.95-0.57-2.97-0.59C199.12,170.81,195.14,174.62,195.03,179.42z"/>
</g>
</svg>
