<?xml version="1.0" encoding="utf-8"?>
<!-- Generator: Adobe Illustrator 27.4.0, SVG Export Plug-In . SVG Version: 6.00 Build 0)  -->
<svg version="1.1" id="icon" xmlns="http://www.w3.org/2000/svg" xmlns:xlink="http://www.w3.org/1999/xlink" x="0px" y="0px"
	 viewBox="0 0 400 400" style="enable-background:new 0 0 400 400;" xml:space="preserve">
<g>
	<path d="M72.5,91.69c13.27-13.06,31.12-20.42,49.75-20.48h66.32c18.62,0.05,36.48,7.41,49.75,20.48l4.28,4.18
		C240.92,90.88,240,85.55,240,80c0-12.09,4.29-23.17,11.43-31.81l-17.99-25.75v-0.01C223.51,8.55,207.58,0.23,190.52,0h-69.25
		c-17.4-0.08-33.76,8.28-43.89,22.44l-56.57,80.95l12.68,26.33L72.5,91.69z"/>
	<path d="M180.77,108.27h-49.75c-1.25,0.03-2.49,0.27-3.66,0.73c-5.52,2.15-8.25,9.35-6.09,14.87l34.14,77.05l35.11-78.03
		c0.45-1.16,0.7-2.41,0.73-3.66C191.38,113.31,186.69,108.41,180.77,108.27z"/>
	<polygon points="180,300 180,239.39 155.41,299.43 155.41,299.42 89.09,137.52 22.77,206.77 71.53,200.91 155.4,360.88 186.95,300 
			"/>
</g>
<circle cx="290" cy="80" r="30"/>
<path d="M330,120L330,120h-80h0c-27.61,0-50,22.39-50,50v110h30V170c0-5.52,4.48-10,10-10h0c5.52,0,10,4.48,10,10v110v120h29.96V280
	H300v120h30V280V170c0-5.52,4.48-10,10-10l0,0c5.52,0,10,4.48,10,10v110h30V170C380,142.39,357.61,120,330,120z"/>
</svg>
