<svg xmlns="http://www.w3.org/2000/svg" width="400" height="400" viewBox="0 0 400 400">
  <defs>
    <style>
      .cls-1 {
        stroke: #000;
        stroke-width: 1px;
        fill-rule: evenodd;
      }
    </style>
  </defs>
  <path id="gimbal" class="cls-1" d="M369.279,332.16L300,292.16l13.333-23.094,69.282,40Zm-69.416-39.8L173.488,219.4l5.131,2.963-13.333,23.094-7.515-4.339L286.53,315.456,273.2,338.55l-155.884-90-3.661-13.66-60.621-35-7.32-27.321,5-8.66-34.641-20,20-34.641,51.962,30-20,34.641L64.7,179.682,88.03,139.268l69.282,40-26.667,46.188,17.321,10L161.3,212.362l-17.321-10,13.334-23.094,155.884,90ZM122.671,159.268l6.467-11.2A69.737,69.737,0,0,1,110,100V0H250V100a69.982,69.982,0,0,1-86.233,68.087l-6.455,11.181ZM223.75,100A43.75,43.75,0,1,0,180,143.75,43.75,43.75,0,0,0,223.75,100ZM180,82.5A17.5,17.5,0,1,1,162.5,100,17.5,17.5,0,0,1,180,82.5ZM355.945,355.254l-13.333,23.094-69.282-40,13.333-23.094Z"/>
</svg>
