<?xml version="1.0" encoding="utf-8"?>
<!-- Generator: Adobe Illustrator 27.4.0, SVG Export Plug-In . SVG Version: 6.00 Build 0)  -->
<svg version="1.1" id="Layer_1" xmlns="http://www.w3.org/2000/svg" xmlns:xlink="http://www.w3.org/1999/xlink" x="0px" y="0px"
	 viewBox="0 0 400 400" style="enable-background:new 0 0 400 400;" xml:space="preserve">
<style type="text/css">
	.st0{fill-rule:evenodd;clip-rule:evenodd;}
</style>
<path class="st0" d="M360,280h-33.33l-109.4-82.05c1.77-5.67,2.73-11.7,2.73-17.95c0-33.14-26.86-60-60-60
	c-5.37,0-10.58,0.72-15.53,2.04L87.83,65.41H2.98l99.06,99.06c-1.32,4.96-2.04,10.16-2.04,15.53c0,13.5,4.46,25.95,11.98,35.98
	L69.3,280H40L0,260v40l40,20h320l40-20v-40L360,280z M160,200c-11.05,0-20-8.95-20-20s8.95-20,20-20s20,8.95,20,20
	S171.05,200,160,200z M117.37,280l27.89-41.83c4.72,1.19,9.65,1.83,14.74,1.83c12.3,0,23.74-3.71,33.25-10.06L260,280H160H117.37z"
	/>
<polyline class="st0" points="300,180 300,120 260,120 320,60 380,120 340,120 340,180 "/>
</svg>
