<?xml version="1.0" encoding="utf-8"?>
<!-- Generator: Adobe Illustrator 27.4.0, SVG Export Plug-In . SVG Version: 6.00 Build 0)  -->
<svg version="1.1" xmlns="http://www.w3.org/2000/svg" xmlns:xlink="http://www.w3.org/1999/xlink" x="0px" y="0px"
	 viewBox="0 0 400 400" style="enable-background:new 0 0 400 400;" xml:space="preserve">
<g id="icon">
	<polygon points="320,240 260,180 260,220 180,220 180,140 220,140 160,80 100,140 140,140 140,220 60,220 60,180 0,240 60,300 
		60,260 140,260 140,340 100,340 160,400 220,340 180,340 180,260 260,260 260,300 	"/>
</g>
<g id="lock">
	<path d="M386.68,66.67H380V40c0-22.09-17.91-40-40-40c-22.09,0-40,17.91-40,40v26.67h-19.85c-0.08,0-0.15,0.07-0.15,0.15v79.85
		L293.33,160h106.52c0.08,0,0.15-0.07,0.15-0.15V79.99L386.68,66.67z M320,40c0-11.05,8.95-20,20-20c11.05,0,20,8.95,20,20v26.67
		h-40V40z M380,140h-80V86.67h80V140z"/>
</g>
</svg>
