<?xml version="1.0" encoding="utf-8"?>
<!-- Generator: Adobe Illustrator 27.4.0, SVG Export Plug-In . SVG Version: 6.00 Build 0)  -->
<svg version="1.1" xmlns="http://www.w3.org/2000/svg" xmlns:xlink="http://www.w3.org/1999/xlink" x="0px" y="0px"
	 viewBox="0 0 400 400" style="enable-background:new 0 0 400 400;" xml:space="preserve">
<style type="text/css">
	.st0{fill-rule:evenodd;clip-rule:evenodd;}
</style>
<g id="icon">
	<path id="ship" class="st0" d="M251.07,360.22L264.29,400h-26.42l-13.21-34.09h-0.73c-4.09-21.49-24.83-35.6-46.32-31.51
		c-15.98,3.04-28.47,15.54-31.51,31.51h-0.73L132.15,400h-26.42l13.22-39.77L0,377.27l0-22.73l118.93-39.77v-17.05l26.43-17.05
		c0-1.07,0-2.84,0-5.68c0-11.36,26.43-34.09,26.43-34.09h26.42c0,0,26.43,22.73,26.43,34.09v5.68l26.43,17.05v17.05L370,354.54
		v22.73L251.07,360.22z M185,346.97c14.64-0.05,26.56,11.78,26.61,26.43c0.05,14.64-11.78,26.56-26.43,26.61
		s-26.56-11.78-26.61-26.43c0-0.03,0-0.06,0-0.09C158.55,358.86,170.38,346.99,185,346.97L185,346.97z"/>
	<g>
		<path class="st0" d="M124.95,269.17c-0.04-10.81-0.06-16.21-0.1-27.02c-22.12,0.9-41.79,4.94-62.49,12.88
			c-2.12-4.97-3.18-7.46-5.3-12.43c-7.81,13.77-13.59,26.99-18.13,42.16c13.6,0.98,26.48,2.74,39.33,7.56
			c-2.12-4.97-3.18-7.46-5.3-12.43C90.28,273.38,106.42,270.05,124.95,269.17z"/>
	</g>
	<g>
		<path class="st0" d="M245.05,269.17c0.04-10.81,0.06-16.21,0.1-27.02c22.12,0.9,41.79,4.94,62.49,12.88
			c2.12-4.97,3.18-7.46,5.3-12.43c7.81,13.77,13.59,26.99,18.13,42.16c-13.6,0.98-26.48,2.74-39.33,7.56
			c2.12-4.97,3.18-7.46,5.3-12.43C279.72,273.38,263.58,270.05,245.05,269.17z"/>
	</g>
	<g>
		<path d="M158.82,153.1c8.57-12.24,12.55-25.28,15.72-39.69c15.2,8,27.18,18.58,38.69,31.14c-5.44,0.85-8.16,1.28-13.6,2.14
			c2.13,13.59,2.13,27.48,0,41.07c5.44,0.85,8.16,1.28,13.6,2.14c-11.51,12.56-23.49,23.15-38.69,31.14
			c-3.17-14.41-7.15-27.46-15.72-39.69c5.44,0.85,8.16,1.28,13.6,2.14c1.18-11.56,1.18-20.96,0-32.52
			C166.98,151.81,164.26,152.24,158.82,153.1z"/>
	</g>
</g>
<g id="lock">
	<path id="lock_1" d="M386.68,66.67H280.15c-0.08,0-0.15,0.07-0.15,0.15v79.85L293.33,160h106.52c0.08,0,0.15-0.07,0.15-0.15V79.99
		L386.68,66.67L386.68,66.67z M380,140h-80V86.67h80V140z"/>
	<path id="lock_2" d="M340,0L340,0c-22.09,0-40,17.91-40,40v26.67h20V40c0-11.05,8.95-20,20-20c11.05,0,20,8.95,20,20v26.67h20V40
		C380,17.91,362.09,0,340,0z"/>
</g>
</svg>
