<svg xmlns="http://www.w3.org/2000/svg" width="400" height="400" viewBox="0 0 400 400">
  <defs>
    <style>
      .cls-1 {
        stroke: #000;
        stroke-width: 1px;
      }

      .cls-1, .cls-2 {
        fill-rule: evenodd;
      }
    </style>
  </defs>
  <path id="cursor" class="cls-1" d="M160,220a20,20,0,1,1-20,20A20,20,0,0,1,160,220Zm0-40-20-20V40h40V160ZM117.574,282.426v28.285L32.721,395.563,4.437,367.279l84.853-84.853h28.285Zm84.852,0h28.285l84.852,84.853-28.284,28.284-84.853-84.852V282.426Z"/>
  <path id="cycle" class="cls-2" d="M320,190v30l-44-44,44-44v28a50.012,50.012,0,0,0,43.917-73.917l21.752-21.752A79.984,79.984,0,0,1,320,190Zm0-130a50.012,50.012,0,0,0-43.917,73.917l-21.752,21.752A79.984,79.984,0,0,1,320,30V0l44,44L320,88V60Z"/>
</svg>
