<?xml version="1.0" encoding="utf-8"?>
<!-- Generator: Adobe Illustrator 27.4.0, SVG Export Plug-In . SVG Version: 6.00 Build 0)  -->
<svg version="1.1" id="icon" xmlns="http://www.w3.org/2000/svg" xmlns:xlink="http://www.w3.org/1999/xlink" x="0px" y="0px"
	 viewBox="0 0 400 400" style="enable-background:new 0 0 400 400;" xml:space="preserve">
<path d="M200,167.27c-18.07,0-32.73,14.65-32.73,32.73s14.65,32.73,32.73,32.73s32.73-14.65,32.73-32.73S218.07,167.27,200,167.27
	 M200,254.55c-30.12,0-54.55-24.42-54.55-54.55s24.42-54.55,54.55-54.55s54.55,24.42,54.55,54.55S230.12,254.55,200,254.55
	 M200,118.18c-54.55,0-101.13,33.93-120,81.82c18.87,47.89,65.45,81.82,120,81.82S301.13,247.89,320,200
	C301.13,152.11,254.55,118.18,200,118.18z"/>
<polygon points="60,20 20,60 60,100 40,120 120,120 120,40 100,60 "/>
<polygon points="340,380 380,340 340,300 360,280 280,280 280,360 300,340 "/>
<polygon points="380,60 340,20 300,60 280,40 280,120 360,120 340,100 "/>
<polygon points="20,340 60,380 100,340 120,360 120,280 40,280 60,300 "/>
</svg>
