<?xml version="1.0" encoding="utf-8"?>
<!-- Generator: Adobe Illustrator 27.4.0, SVG Export Plug-In . SVG Version: 6.00 Build 0)  -->
<svg version="1.1" id="Layer_1" xmlns="http://www.w3.org/2000/svg" xmlns:xlink="http://www.w3.org/1999/xlink" x="0px" y="0px"
	 viewBox="0 0 400 400" style="enable-background:new 0 0 400 400;" xml:space="preserve">
<style type="text/css">
	.st0{fill-rule:evenodd;clip-rule:evenodd;stroke:#000000;}
</style>
<path d="M200,305c8.4,0,15,6.6,15,15s-6.6,15-15,15c-8.4,0-15-6.6-15-15S191.6,305,200,305 M200,260c40.95,0,75.9,24.9,90,60
	c-14.1,35.1-49.05,60-90,60s-75.9-24.9-90-60C124.1,284.9,159.05,260,200,260 M200,282.5c-20.71,0-37.5,16.79-37.5,37.5
	c0,20.71,16.79,37.5,37.5,37.5s37.5-16.79,37.5-37.5C237.5,299.29,220.71,282.5,200,282.5"/>
<g id="ship">
	<path id="ship_00000082360423297364911300000009399933656309827479_" class="st0" d="M242.84,179.99l8.57,60h-17.14l-8.57-51.43
		h-8.57v25.71h-34.28v-25.71h-8.57l-8.57,51.43h-17.14l8.57-60L80,205.7v-34.28l77.14-60V85.71L174.28,60v-8.57
		C174.28,34.28,191.42,0,191.42,0h17.14c0,0,17.14,34.28,17.14,51.43V60l17.14,25.71v25.71l77.14,60v34.28L242.84,179.99z"/>
</g>
</svg>
