<?xml version="1.0" encoding="utf-8"?>
<!-- Generator: Adobe Illustrator 27.4.0, SVG Export Plug-In . SVG Version: 6.00 Build 0)  -->
<svg version="1.1" id="icon" xmlns="http://www.w3.org/2000/svg" xmlns:xlink="http://www.w3.org/1999/xlink" x="0px" y="0px"
	 viewBox="0 0 400 400" style="enable-background:new 0 0 400 400;" xml:space="preserve">
<path d="M60,320c-19.33,0-35-15.67-35-35c0-9.61,3.88-18.32,10.15-24.64l0,0l0.08-0.08c0.01-0.01,0.02-0.02,0.03-0.03L54.9,240.3
	C32.45,242.83,15,261.87,15,285c0,24.85,20.15,45,45,45c10.71,0,20.55-3.75,28.27-10H60z"/>
<path d="M90,225c0-1.72,0.04-3.42,0.12-5.12L45,265c-6.07,4.56-10,11.82-10,20c0,13.81,11.19,25,25,25h70.18
	C105.65,289.83,90,259.24,90,225z"/>
<path d="M260,80c-31.89,0-60.88,12.45-82.37,32.74l-0.01,0l-0.1,0.1c-1.78,1.69-3.51,3.43-5.19,5.23l-38.22,38.49l0,0
	C116.17,173.84,105,198.12,105,225c0,52.47,42.53,95,95,95h60c66.27,0,120-53.73,120-120S326.27,80,260,80z M260,290
	c-49.71,0-90-40.29-90-90s40.29-90,90-90s90,40.29,90,90S309.71,290,260,290z"/>
<g>
	<rect x="200" y="185" width="120" height="30"/>
</g>
<g>
	<rect x="245" y="140" width="30" height="120"/>
</g>
</svg>
