<?xml version="1.0" encoding="utf-8"?>
<!-- Generator: Adobe Illustrator 27.4.0, SVG Export Plug-In . SVG Version: 6.00 Build 0)  -->
<svg version="1.1" id="arrow" xmlns="http://www.w3.org/2000/svg" xmlns:xlink="http://www.w3.org/1999/xlink" x="0px" y="0px"
	 viewBox="0 0 400 400" style="enable-background:new 0 0 400 400;" xml:space="preserve">
<path d="M240,200h-80c-11.05,0-20,8.95-20,20v60c0,11.05,8.95,20,20,20h80c11.05,0,20-8.95,20-20v-60C260,208.95,251.05,200,240,200
	z M240,280h-80v-60h80V280z"/>
<path d="M240,80h-80c-11.05,0-20,8.95-20,20v60c0,11.05,8.95,20,20,20h80c11.05,0,20-8.95,20-20v-60C260,88.95,251.05,80,240,80z
	 M240,160h-80v-60h80V160z"/>
<path d="M380,200h-80c-11.05,0-20,8.95-20,20v60c0,11.05,8.95,20,20,20h80c11.05,0,20-8.95,20-20v-60C400,208.95,391.05,200,380,200
	z M380,280h-80v-60h80V280z"/>
<path d="M100,200H20c-11.05,0-20,8.95-20,20v60c0,11.05,8.95,20,20,20h80c11.05,0,20-8.95,20-20v-60C120,208.95,111.05,200,100,200z
	"/>
</svg>
