<?xml version="1.0" encoding="utf-8"?>
<!-- Generator: Adobe Illustrator 27.4.0, SVG Export Plug-In . SVG Version: 6.00 Build 0)  -->
<svg version="1.1" id="arrow" xmlns="http://www.w3.org/2000/svg" xmlns:xlink="http://www.w3.org/1999/xlink" x="0px" y="0px"
	 viewBox="0 0 400 400" style="enable-background:new 0 0 400 400;" xml:space="preserve">
<path d="M240,210h-80c-11.05,0-20,8.95-20,20v60c0,11.05,8.95,20,20,20h80c11.05,0,20-8.95,20-20v-60C260,218.95,251.05,210,240,210
	z M240,290h-80v-60h80V290z"/>
<path d="M240,90h-80c-11.05,0-20,8.95-20,20v60c0,11.05,8.95,20,20,20h80c11.05,0,20-8.95,20-20v-60C260,98.95,251.05,90,240,90z
	 M240,170h-80v-60h80V170z"/>
<path d="M380,150h-80c-11.05,0-20,8.95-20,20v60c0,11.05,8.95,20,20,20h80c11.05,0,20-8.95,20-20v-60C400,158.95,391.05,150,380,150
	z M380,230h-80v-60h80V230z"/>
<path d="M100,150H20c-11.05,0-20,8.95-20,20v60c0,11.05,8.95,20,20,20h80c11.05,0,20-8.95,20-20v-60C120,158.95,111.05,150,100,150z
	 M100,230H20v-60h80V230z"/>
<path d="M380,150h-80c-11.05,0-20,8.95-20,20v60c0,11.05,8.95,20,20,20h80c11.05,0,20-8.95,20-20v-60C400,158.95,391.05,150,380,150
	z"/>
</svg>
