<?xml version="1.0" encoding="utf-8"?>
<!-- Generator: Adobe Illustrator 27.4.0, SVG Export Plug-In . SVG Version: 6.00 Build 0)  -->
<svg version="1.1" id="icon" xmlns="http://www.w3.org/2000/svg" xmlns:xlink="http://www.w3.org/1999/xlink" x="0px" y="0px"
	 viewBox="0 0 400 400" style="enable-background:new 0 0 400 400;" xml:space="preserve">
<polygon points="70,200 70,170 40,170 40,230 70,230 140,230 140,200 "/>
<polygon points="330,170 330,200 260,200 260,230 330,230 360,230 360,170 "/>
<polygon points="70,80 70,50 40,50 40,110 70,110 140,110 140,80 "/>
<polygon points="330,50 330,80 260,80 260,110 330,110 360,110 360,50 "/>
<polygon points="70,320 70,290 40,290 40,350 70,350 140,350 140,320 "/>
<polygon points="330,290 330,320 260,320 260,350 330,350 360,350 360,290 "/>
</svg>
