<?xml version="1.0" encoding="utf-8"?>
<!-- Generator: Adobe Illustrator 27.4.0, SVG Export Plug-In . SVG Version: 6.00 Build 0)  -->
<svg version="1.1" xmlns="http://www.w3.org/2000/svg" xmlns:xlink="http://www.w3.org/1999/xlink" x="0px" y="0px"
	 viewBox="0 0 400 400" style="enable-background:new 0 0 400 400;" xml:space="preserve">
<g id="power">
	<polygon points="-0.08,55.91 -0.08,344 55.91,400 110.9,400 111,369.39 68.35,369.39 30.02,331.06 30.02,68.35 68.35,30.02 
		111,30.02 111,-0.09 55.91,-0.09 	"/>
	<polygon points="250.78,69.55 162.28,69.55 140.4,204.22 175.93,208.63 148.53,343.5 259.61,188.67 203.92,184.05 	"/>
	<polygon points="344.01,-0.09 288.92,-0.09 288.92,30.02 331.06,30.02 369.9,68.35 369.9,240 400,240 400,55.91 	"/>
</g>
<g id="toggle">
	<g id="toggle_00000003796461442717959090000016111378498880301219_">
		<g>
			<path d="M365,280.43v28.28l15,15v33.14l-23.43,23.43h-33.14L300,356.86v-33.14l15-15v-28.28l-35,35v49.71l35.15,35.15h49.71
				L400,365.14v-49.71L365,280.43z M352,280.29h-24v80h24V280.29z"/>
		</g>
	</g>
</g>
</svg>
