<svg xmlns="http://www.w3.org/2000/svg" width="400" height="400" viewBox="0 0 400 400">
  <defs>
    <style>
      .cls-1 {
        fill-rule: evenodd;
      }
    </style>
  </defs>
  <path id="incr" class="cls-1" d="M267.058,259.9a69.875,69.875,0,0,0-14.587-26.215l120.244-66.8,14.57,26.224ZM200,130A149.6,149.6,0,0,0,89.476,178.6L62.638,163.688a179.975,179.975,0,0,1,274.724,0L310.525,178.6A149.6,149.6,0,0,0,200,130ZM132.942,259.9L12.715,193.112l14.569-26.224,120.244,66.8A69.875,69.875,0,0,0,132.942,259.9ZM200,170a109.6,109.6,0,0,1,74.183,28.787L245.9,214.5a79.917,79.917,0,0,0-91.806,0l-28.28-15.711A109.6,109.6,0,0,1,200,170Zm0,70h0a40,40,0,1,1-40,40A40,40,0,0,1,200,240Z"/>
</svg>
