<svg xmlns="http://www.w3.org/2000/svg" width="400" height="400" viewBox="0 0 400 400">
  <defs>
    <style>
      .cls-1 {
        fill-rule: evenodd;
      }
    </style>
  </defs>
  <path id="ship" class="cls-1" d="M248.386,147.371l40.507,20.3-20.2,20.2-36.163-15.96-0.556.556a42.828,42.828,0,0,0-59.5,59.5l-0.556.556,15.96,36.163-20.2,20.2-20.3-40.507L69.488,352.331,52.114,334.956l60.508-121.319L99.591,200.606l7.172-33.234c-0.815-.814-2.172-2.172-4.344-4.344-8.687-8.687-5.859-46.265-5.859-46.265l20.2-20.2s37.578-2.829,46.265,5.859l4.344,4.344,33.234-7.172,13.031,13.031L334.956,52.114l17.375,17.375Zm-60.643,40.372a28.667,28.667,0,1,1,.068,40.474A28.621,28.621,0,0,1,187.743,187.743Z"/>
  <path id="形状_1" data-name="形状 1" class="cls-1" d="M341.137,341.137a160,160,0,0,0-8.374-234.071L363.851,85.3a200.012,200.012,0,0,1-22.43,256.117Z"/>
  <path id="形状_1_拷贝" data-name="形状 1 拷贝" class="cls-1" d="M12,172A159.381,159.381,0,0,0,51.008,276.7L33.023,310.1A200.02,200.02,0,0,1,58.579,58.579l0.284,0.284A159.5,159.5,0,0,0,12,172Z"/>
</svg>
