<svg xmlns="http://www.w3.org/2000/svg" width="400" height="400" viewBox="0 0 400 400">
  <defs>
    <style>
      .cls-1 {
        fill-rule: evenodd;
      }
    </style>
  </defs>
  <path id="ship" class="cls-1" d="M151.614,147.371l-40.507,20.3,20.2,20.2,36.163-15.96,0.556,0.556a42.828,42.828,0,0,1,59.5,59.5l0.556,0.556-15.96,36.163,20.2,20.2,20.3-40.507,77.883,103.945,17.374-17.375L287.378,213.637l13.031-13.031-7.172-33.234,4.344-4.344c8.687-8.687,5.859-46.265,5.859-46.265l-20.2-20.2s-37.578-2.829-46.265,5.859l-4.344,4.344-33.234-7.172-13.031,13.031L65.044,52.114,47.669,69.488Zm60.643,40.372a28.667,28.667,0,1,0-.068,40.474A28.621,28.621,0,0,0,212.257,187.743Z"/>
  <path id="形状_1" data-name="形状 1" class="cls-1" d="M58.863,341.137a160,160,0,0,1,8.374-234.071L36.149,85.3a200.013,200.013,0,0,0,22.43,256.117Z"/>
  <path id="形状_1_拷贝" data-name="形状 1 拷贝" class="cls-1" d="M388,172a159.382,159.382,0,0,1-39.008,104.7l17.985,33.4A200.021,200.021,0,0,0,341.421,58.579l-0.284.284A159.5,159.5,0,0,1,388,172Z"/>
</svg>
