<?xml version="1.0" encoding="utf-8"?>
<!-- Generator: Adobe Illustrator 27.4.0, SVG Export Plug-In . SVG Version: 6.00 Build 0)  -->
<svg version="1.1" xmlns="http://www.w3.org/2000/svg" xmlns:xlink="http://www.w3.org/1999/xlink" x="0px" y="0px"
	 viewBox="0 0 400 400" style="enable-background:new 0 0 400 400;" xml:space="preserve">
<g id="speed_x5F_meter">
	<g id="meter">
		<g>
			<polygon points="80,20 80,130 40,130 40,150 80,150 80,180 40,180 40,200 80,200 80,230 0,230 0,250 80,250 80,280 40,280 
				40,300 80,300 80,330 40,330 40,350 80,350 80,380 0,380 0,400 80,400 120,400 120,20 			"/>
		</g>
	</g>
	<polygon id="vector" points="100,0 170,70 150,90 100,40 50,90 30,70 	"/>
</g>
<g id="limit_00000087378121553653842480000007337962761360369792_">
	<polygon points="160,140 140,160 160,180 400,180 400,140 	"/>
	<polygon points="220,260 260,260 260,340 300,340 300,260 340,260 280,200 	"/>
</g>
</svg>
