<?xml version="1.0" encoding="utf-8"?>
<!-- Generator: Adobe Illustrator 27.4.0, SVG Export Plug-In . SVG Version: 6.00 Build 0)  -->
<svg version="1.1" id="Layer_1" xmlns="http://www.w3.org/2000/svg" xmlns:xlink="http://www.w3.org/1999/xlink" x="0px" y="0px"
	 viewBox="0 0 24 24" style="enable-background:new 0 0 24 24;" xml:space="preserve">
<rect x="22.25" y="16" width="1.75" height="6"/>
<rect x="19.25" y="16" width="1.75" height="6"/>
<g>
	<rect x="11" y="8" width="2" height="6"/>
	<path d="M19.03,7.39l1.42-1.42C20,5.46,19.55,5,19.04,4.56L17.62,6c-1.55-1.26-3.5-2-5.62-2c-4.97,0-9,4.03-9,9s4.03,9,9,9v-2
		c-3.87,0-7-3.13-7-7s3.13-7,7-7s7,3.13,7,7c0.7,0,1.36,0.13,2,0.35c0-0.12,0-0.23,0-0.35C21,10.88,20.26,8.93,19.03,7.39z"/>
	<rect x="9" y="1" width="6" height="2"/>
	<polygon points="14.25,22 19.25,19 14.25,16 	"/>
</g>
</svg>
