<svg xmlns="http://www.w3.org/2000/svg" width="400" height="400" viewBox="0 0 400 400">
  <defs>
    <style>
      .cls-1, .cls-2 {
        fill-rule: evenodd;
      }

      .cls-2 {
        stroke: #000;
        stroke-width: 1px;
      }
    </style>
  </defs>
  <path id="ship" class="cls-1" d="M250,210l10,70H240l-10-60H220v30H180V220H170l-10,60H140l10-70L60,240V200l90-70V100l20-30v0h0V60c0-20,20-60,20-60h20s20,40,20,60V70l20,30v30l90,70v40Z"/>
  <path id="trail0" class="cls-2" d="M180,270h40L200,400Z"/>
  <path id="trail1" class="cls-2" d="M280,247h30L295,400Z"/>
  <path id="trail2" class="cls-2" d="M90,247h30L105,400Z"/>
</svg>
