<?xml version="1.0" encoding="utf-8"?>
<!-- Generator: Adobe Illustrator 27.4.0, SVG Export Plug-In . SVG Version: 6.00 Build 0)  -->
<svg version="1.1" id="icon" xmlns="http://www.w3.org/2000/svg" xmlns:xlink="http://www.w3.org/1999/xlink" x="0px" y="0px"
	 viewBox="0 0 400 400" style="enable-background:new 0 0 400 400;" xml:space="preserve">
<g id="yaw">
	<path d="M333.04,70.73c2.08-13.17,4.16-26.34,6.24-39.51c22.18,23.53,41.84,48.48,59.26,75.72c-27.6,11.79-53.27,25.75-77.98,42.81
		c2.08-13.17,4.16-26.34,6.24-39.51c-44.82-6.39-88.79-6.38-133.61,0c2.08,13.17,4.16,26.34,6.24,39.51
		c-24.7-17.06-50.38-31.02-77.98-42.81c17.42-27.25,37.08-52.2,59.26-75.72c2.08,13.17,4.16,26.34,6.24,39.51
		C235.91,63.7,284.1,63.7,333.04,70.73z"/>
</g>
<path id="roll" d="M200,300c0-44.18-35.82-80-80-80s-80,35.82-80,80c0,19.55,7.02,37.44,18.67,51.33L40,370h70v-70l-22.83,22.83
	C82.66,316.35,80,308.49,80,300c0-22.09,17.91-40,40-40s40,17.91,40,40c0,8.49-2.66,16.35-7.17,22.83L130,300v70h70l-18.67-18.67
	C192.98,337.44,200,319.55,200,300z"/>
<rect id="toggle" x="175.86" y="-16.27" transform="matrix(0.7071 -0.7071 0.7071 0.7071 -92.8427 195.8579)" width="28.28" height="452.55"/>
</svg>
