<?xml version="1.0" encoding="utf-8"?>
<!-- Generator: Adobe Illustrator 27.4.0, SVG Export Plug-In . SVG Version: 6.00 Build 0)  -->
<svg version="1.1" id="icon" xmlns="http://www.w3.org/2000/svg" xmlns:xlink="http://www.w3.org/1999/xlink" x="0px" y="0px"
	 viewBox="0 0 400 400" style="enable-background:new 0 0 400 400;" xml:space="preserve">
<g id="yaw">
	<path d="M66.96,70.73c-2.08-13.17-4.16-26.34-6.24-39.51C38.54,54.75,18.88,79.7,1.46,106.94c27.6,11.79,53.27,25.75,77.98,42.81
		c-2.08-13.17-4.16-26.34-6.24-39.51c44.82-6.39,88.79-6.38,133.61,0c-2.08,13.17-4.16,26.34-6.24,39.51
		c24.7-17.06,50.38-31.02,77.98-42.81c-17.42-27.25-37.08-52.2-59.26-75.72c-2.08,13.17-4.16,26.34-6.24,39.51
		C164.09,63.7,115.9,63.7,66.96,70.73z"/>
</g>
<path id="roll" d="M200,300c0-44.18,35.82-80,80-80s80,35.82,80,80c0,19.55-7.02,37.44-18.67,51.33L360,370h-70v-70l22.83,22.83
	c4.51-6.47,7.17-14.34,7.17-22.83c0-22.09-17.91-40-40-40s-40,17.91-40,40c0,8.49,2.66,16.35,7.17,22.83L270,300v70h-70l18.67-18.67
	C207.02,337.44,200,319.55,200,300z"/>
<rect id="toggle" x="-16.27" y="195.86" transform="matrix(0.7071 -0.7071 0.7071 0.7071 -86.9848 210)" width="452.55" height="28.28"/>
</svg>
