<?xml version="1.0" encoding="utf-8"?>
<!-- Generator: Adobe Illustrator 27.4.0, SVG Export Plug-In . SVG Version: 6.00 Build 0)  -->
<svg version="1.1" id="Layer_1" xmlns="http://www.w3.org/2000/svg" xmlns:xlink="http://www.w3.org/1999/xlink" x="0px" y="0px"
	 viewBox="0 0 96 96" style="enable-background:new 0 0 96 96;" xml:space="preserve">
<style type="text/css">
	.st0{fill-rule:evenodd;clip-rule:evenodd;}
</style>
<g id="cycle_x5F_backward">
	<rect x="67.2" y="67.2" width="7.2" height="28.8"/>
	<polygon points="76.8,81.6 96,96 96,67.2 	"/>
</g>
<g id="target_x5F_subscript">
	<path class="st0" d="M81.6,14.4H72V4.8h9.6c5.3,0,9.6,4.3,9.6,9.6V24h-9.6V14.4z M48,0l7.2,14.4H40.8L48,0z M4.8,81.6V72h9.6v9.6
		H24v9.6h-9.6C9.1,91.2,4.8,86.9,4.8,81.6z M14.4,24H4.8v-9.6c0-5.3,4.3-9.6,9.6-9.6H24v9.6h-9.6V24z"/>
</g>
<g>
	<path d="M24,28.8v9.6h7.2v-7.2h7.2V24h-9.6C26.15,24,24,26.15,24,28.8z"/>
	<circle cx="48" cy="48" r="4.8"/>
	<path d="M31.2,57.6H24v9.6c0,2.65,2.15,4.8,4.8,4.8h9.6v-7.2h-7.2V57.6z"/>
	<path d="M67.2,24h-9.6v7.2h7.2v7.2H72v-9.6C72,26.15,69.85,24,67.2,24z"/>
	<rect x="64.8" y="57.6" width="7.2" height="7.2"/>
	<rect x="57.6" y="64.8" width="7.2" height="7.2"/>
</g>
</svg>
