<?xml version="1.0" encoding="utf-8"?>
<!-- Generator: Adobe Illustrator 27.4.0, SVG Export Plug-In . SVG Version: 6.00 Build 0)  -->
<svg version="1.1" id="Layer_3" xmlns="http://www.w3.org/2000/svg" xmlns:xlink="http://www.w3.org/1999/xlink" x="0px" y="0px"
	 viewBox="0 0 400 400" style="enable-background:new 0 0 400 400;" xml:space="preserve">
<path d="M180,300c0-22.09-17.91-40-40-40L0,260l0,80l140,0l0,0C162.09,340,180,322.09,180,300z M160,300c0,11.05-8.95,20-20,20
	c-11.05,0-20-8.95-20-20c0-11.05,8.95-20,20-20C151.05,280,160,288.95,160,300z"/>
<rect x="136.28" y="216.2" transform="matrix(0.7071 -0.7071 0.7071 0.7071 -107.3326 213.2737)" width="135" height="40"/>
<rect x="329.64" y="138.11" transform="matrix(0.7071 -0.7071 0.7071 0.7071 -1.4658 302.6887)" width="70" height="30"/>
<rect x="251.86" y="60.33" transform="matrix(0.7071 -0.7071 0.7071 0.7071 30.7525 224.9069)" width="70" height="30"/>
<path d="M293.93,146.04c-15.62-15.62-40.95-15.62-56.57,0s-15.62,40.95,0,56.57s40.95,15.62,56.57,0
	C309.55,186.99,309.55,161.66,293.93,146.04z M279.79,160.18c7.81,7.81,7.81,20.47,0,28.28s-20.47,7.81-28.28,0
	c-7.81-7.81-7.81-20.47,0-28.28C259.32,152.37,271.98,152.37,279.79,160.18z"/>
<path d="M276.26,146.27c-9.3-3.51-19.99-2.24-28.28,3.82V93.01l14.14-14.14l14.14,14.14V146.27z"/>
<path d="M346.97,192h-57.08c6.06-8.29,7.33-18.98,3.82-28.28h53.26l14.14,14.14L346.97,192z"/>
</svg>
