<svg xmlns="http://www.w3.org/2000/svg" width="400" height="400" viewBox="0 0 400 400">
  <defs>
    <style>
      .cls-1 {
        stroke: #000;
        stroke-width: 1px;
        fill-rule: evenodd;
      }
    </style>
  </defs>
  <path id="vtol" class="cls-1" d="M259.918,253.219l-49.5-49.5,99.053-99.053L295.331,90.527,196.278,189.58l-49.5-49.5L274.134,12.729l42.435,14.134,56.568,56.569,14.134,42.435Zm-84.894,56.61s0.008-28.292-14.134-42.435L132.606,239.11c-14.143-14.142-42.435-14.134-42.435-14.134l42.459-70.743L245.767,267.37Zm-28.2-28.4-42.4,14.146,14.146-42.4ZM97.372,246.112l-28.29,84.806,84.806-28.29L132.674,352.1l-7.06-21.2-84.806,28.29L69.1,274.386l-21.2-7.06Z"/>
  <path id="arrow" class="cls-1" d="M380,320l-40,40V340a279.278,279.278,0,0,1-101.154-18.846L270.3,289.705A239.953,239.953,0,0,0,340,300V280ZM110.3,129.705L78.846,161.154A279.282,279.282,0,0,1,60,60H40L80,20l40,40H100A239.954,239.954,0,0,0,110.3,129.705Z"/>
</svg>
