<?xml version="1.0" encoding="UTF-8" standalone="no"?>
<!DOCTYPE svg PUBLIC "-//W3C//DTD SVG 1.1//EN" "http://www.w3.org/Graphics/SVG/1.1/DTD/svg11.dtd">
<svg width="100%" height="100%" viewBox="0 0 400 400" version="1.1" xmlns="http://www.w3.org/2000/svg" xmlns:xlink="http://www.w3.org/1999/xlink" xml:space="preserve" xmlns:serif="http://www.serif.com/" style="fill-rule:evenodd;clip-rule:evenodd;stroke-linejoin:round;stroke-miterlimit:2;">
    <path d="M111.87,152.98C121.05,135.8 135.29,121.2 153.54,111.64L130.52,56.07C97.07,72.17 71.56,98.64 56.28,129.95L111.87,152.98Z" style="fill-rule:nonzero;"/>
    <path d="M171.2,104.42C190.81,98.49 211.1,98.9 229.64,104.66L252.66,49.09C219.83,37.64 183.17,36.8 148.18,48.83L171.2,104.42Z" style="fill-rule:nonzero;"/>
    <path d="M247.23,112.01C264.28,121.13 278.79,135.21 288.35,153.27L343.93,130.25C327.82,97 301.44,71.64 270.26,56.42L247.23,112.01Z" style="fill-rule:nonzero;"/>
    <path d="M295.75,229.15L351.34,252.18C362.63,219.37 363.35,182.79 351.24,147.88L295.66,170.9C301.66,190.42 301.36,210.64 295.75,229.15Z" style="fill-rule:nonzero;"/>
    <path d="M48.94,147.56C37.44,180.53 36.64,217.35 48.83,252.48L104.41,229.46C98.34,209.71 98.71,189.25 104.51,170.58L48.94,147.56Z" style="fill-rule:nonzero;"/>
    <path d="M288.51,246.79C279.47,263.96 265.42,278.61 247.36,288.28L270.39,343.88C303.64,327.64 328.96,301.13 344.09,269.81L288.51,246.79Z" style="fill-rule:nonzero;"/>
    <path d="M229.76,295.66C210.09,301.81 189.71,301.55 171.07,295.89L148.04,351.48C180.99,362.82 217.74,363.5 252.78,351.23L229.76,295.66Z" style="fill-rule:nonzero;"/>
    <path d="M153.42,288.65C136.12,279.55 121.39,265.35 111.72,247.09L56.14,270.11C72.36,303.57 98.97,329.04 130.41,344.22L153.42,288.65Z" style="fill-rule:nonzero;"/>
    <path d="M200,120C244.153,120 280,155.847 280,200C280,244.153 244.153,280 200,280C155.847,280 120,244.153 120,200C120,155.847 155.847,120 200,120ZM200,265.48L275,190.48L237.5,152.98L162.5,152.98L125,190.48L200,265.48ZM200,234.23L193.75,202.98L206.25,202.98L200,234.23ZM168.75,171.73L173.44,190.48L150,190.48L168.75,171.73ZM181.25,221.73L162.5,202.98L176.56,202.98L181.25,221.73ZM231.25,171.73L250,190.48L226.56,190.48L231.25,171.73ZM218.75,221.73L223.44,202.98L237.5,202.98L218.75,221.73ZM212.5,171.73L208.75,190.48L191.25,190.48L187.5,171.73L212.5,171.73Z"/>
</svg>
