<svg xmlns="http://www.w3.org/2000/svg" width="400" height="400" viewBox="0 0 400 400">
  <defs>
    <style>
      .cls-1, .cls-2 {
        fill-rule: evenodd;
      }

      .cls-2 {
        stroke: #000;
        stroke-width: 1px;
      }
    </style>
  </defs>
  <path id="ship" class="cls-1" d="M293.858,156.853l-30.427,40.568-10.142-10.142,25.356-35.5-5.071-5.071L258.36,161.924,238.076,141.64l15.213-15.214-5.071-5.071-35.5,25.356-10.142-10.142,40.568-30.427L182.294,75.716l20.285-20.284,81.137,10.142L298.929,50.36l25.355-5.071,5.071-5.071c10.142-10.142,40.569-20.284,40.569-20.284l10.142,10.142S369.924,60.5,359.782,70.645l-5.071,5.071-5.071,25.355-15.214,15.213,10.143,81.137-20.285,20.285Z"/>
  <path id="椭圆_1" data-name="椭圆 1" class="cls-1" d="M115.141,317.4a59.929,59.929,0,0,0-32.536-32.536L229.018,170.982ZM80.97,361.329a29.91,29.91,0,1,1,0-42.3A29.91,29.91,0,0,1,80.97,361.329Z"/>
  <path id="heat" class="cls-2" d="M360,360s0-30-10-40-10-40-10-40h20s0,30,10,40,10,40,10,40H360Zm-20,20H320V360s0-30-10-40-10-40-10-40V260h20v20s0,30,10,40,10,40,10,40v20Zm-60-20s0-30-10-40-10-40-10-40h20s0,30,10,40,10,40,10,40H280Z"/>
</svg>
