<?xml version="1.0" encoding="utf-8"?>
<!-- Generator: Adobe Illustrator 27.4.0, SVG Export Plug-In . SVG Version: 6.00 Build 0)  -->
<svg version="1.1" id="Layer_1" xmlns="http://www.w3.org/2000/svg" xmlns:xlink="http://www.w3.org/1999/xlink" x="0px" y="0px"
	 viewBox="0 0 400 400" style="enable-background:new 0 0 400 400;" xml:space="preserve">
<style type="text/css">
	.st0{fill-rule:evenodd;clip-rule:evenodd;}
	.st1{fill-rule:evenodd;clip-rule:evenodd;stroke:#000000;}
	.st2{display:none;}
	.st3{display:inline;}
</style>
<path id="ship" class="st0" d="M294.05,156.94l-30.43,40.57l-10.14-10.14l25.36-35.5l-5.07-5.07l-15.21,15.22l-20.28-20.28
	l15.21-15.21l-5.07-5.07l-35.5,25.36l-10.14-10.14l40.57-30.43l-60.85-30.43l20.29-20.28l81.14,10.14l15.21-15.21l25.36-5.07
	l5.07-5.07c10.14-10.14,40.57-20.28,40.57-20.28l10.14,10.14c0,0-10.14,30.42-20.28,40.57l-5.07,5.07l-5.07,25.36l-15.21,15.21
	l10.14,81.14l-20.29,20.29L294.05,156.94z"/>
<path id="heat" class="st1" d="M360.2,360.09c0,0,0-30-10-40s-10-40-10-40h20c0,0,0,30,10,40s10,40,10,40H360.2z M340.2,380.09h-20
	v-20c0,0,0-30-10-40s-10-40-10-40v-20h20v20c0,0,0,30,10,40s10,40,10,40V380.09z M280.2,360.09c0,0,0-30-10-40s-10-40-10-40h20
	c0,0,0,30,10,40s10,40,10,40H280.2z"/>
<path id="decoy" class="st0" d="M115.34,317.49c-6.08-14.74-17.79-26.45-32.54-32.54l146.41-113.88L115.34,317.49z M81.17,361.42
	c-11.68,11.68-30.62,11.68-42.3,0s-11.68-30.62,0-42.3c11.68-11.68,30.62-11.68,42.3,0C92.85,330.8,92.85,349.74,81.17,361.42
	C81.17,361.42,81.17,361.42,81.17,361.42z"/>
<path id="decoy_00000065758998563792635140000014470318559823194809_" class="st0" d="M77.9,252.91c-1.7-13.06-8.54-24.9-19-32.91
	l141.12-59.54L77.9,252.91z M41.25,280.65c-11.81,6.82-26.92,2.77-33.74-9.04s-2.77-26.92,9.04-33.74
	c11.81-6.82,26.92-2.77,33.74,9.04C57.12,258.72,53.07,273.83,41.25,280.65C41.26,280.65,41.25,280.65,41.25,280.65z"/>
<path id="decoy_00000145766631715856472320000006570566187475476886_" class="st0" d="M180.73,341.02c-8-10.46-19.85-17.3-32.91-19
	l92.45-122.13L180.73,341.02z M162.86,383.36c-6.82,11.81-21.93,15.86-33.74,9.04s-15.86-21.93-9.04-33.74
	c6.82-11.81,21.93-15.86,33.74-9.04C165.63,356.44,169.68,371.54,162.86,383.36C162.86,383.36,162.86,383.36,162.86,383.36z"/>
<g id="emergency" class="st2">
	<rect x="80" y="120" class="st3" width="30" height="30"/>
	<rect x="80" y="20" class="st3" width="30" height="80"/>
</g>
</svg>
