<?xml version="1.0" encoding="utf-8"?>
<!-- Generator: Adobe Illustrator 27.4.0, SVG Export Plug-In . SVG Version: 6.00 Build 0)  -->
<svg version="1.1" xmlns="http://www.w3.org/2000/svg" xmlns:xlink="http://www.w3.org/1999/xlink" x="0px" y="0px"
	 viewBox="0 0 400 400" style="enable-background:new 0 0 400 400;" xml:space="preserve">
<g id="icon">
	<g id="gyro">
		<g>
			<path d="M140,120c-33.14,0-60,62.68-60,140s26.86,140,60,140s60-62.68,60-140S173.14,120,140,120z M140,370
				c-16.57,0-30-49.25-30-110s13.43-110,30-110s30,49.25,30,110S156.57,370,140,370z"/>
		</g>
		<g>
			<path d="M0,260c0,33.14,62.68,60,140,60s140-26.86,140-60s-62.68-60-140-60S0,226.86,0,260z M250,260c0,16.57-49.25,30-110,30
				S30,276.57,30,260s49.25-30,110-30S250,243.43,250,260z"/>
		</g>
	</g>
</g>
<g id="look">
	<path d="M300,83.33c9.33,0,16.67,7.33,16.67,16.67s-7.33,16.67-16.67,16.67c-9.33,0-16.67-7.33-16.67-16.67S290.67,83.33,300,83.33
		"/>
	<path d="M300,33.33c-45.5,0-84.33,27.67-100,66.67c15.67,39,54.5,66.67,100,66.67S384.33,139,400,100
		C384.33,61,345.5,33.33,300,33.33z M300,141.67c-23.01,0-41.67-18.65-41.67-41.67S276.99,58.33,300,58.33
		c23.01,0,41.67,18.65,41.67,41.67S323.01,141.67,300,141.67z"/>
</g>
</svg>
