<?xml version="1.0" encoding="utf-8"?>
<!-- Generator: Adobe Illustrator 27.4.0, SVG Export Plug-In . SVG Version: 6.00 Build 0)  -->
<svg version="1.1" id="icon" xmlns="http://www.w3.org/2000/svg" xmlns:xlink="http://www.w3.org/1999/xlink" x="0px" y="0px"
	 viewBox="0 0 400 400" style="enable-background:new 0 0 400 400;" xml:space="preserve">
<g id="gimbal">
	<path d="M248.53,238.53c-0.24,3.1-0.5,6.18-0.8,9.2C232.66,249.21,216.63,250,200,250s-32.66-0.79-47.74-2.26
		C150.79,232.66,150,216.63,150,200s0.79-32.66,2.26-47.74c3.03-0.3,6.1-0.56,9.2-0.8l-41.79-41.79c-0.62,2.71-1.21,5.45-1.78,8.22
		C48.39,132.01,0,163.46,0,200c0,36.54,48.39,67.99,117.91,82.09C132.01,351.61,163.46,400,200,400s67.99-48.39,82.09-117.91
		c2.78-0.56,5.52-1.16,8.22-1.78L248.53,238.53z M111.97,241.75C68.61,232.81,40,217.45,40,200c0-17.45,28.61-32.81,71.97-41.75
		C110.68,171.71,110,185.68,110,200S110.68,228.29,111.97,241.75z M200,360c-17.45,0-32.81-28.61-41.75-71.97
		c13.47,1.29,27.43,1.97,41.75,1.97s28.29-0.68,41.75-1.97C232.81,331.39,217.45,360,200,360z"/>
	<path d="M158.9,108.9C167.93,67.27,182.96,40,200,40c17.45,0,32.81,28.61,41.75,71.97C228.29,110.68,214.32,110,200,110
		c-13.11,0-25.93,0.58-38.34,1.66L200,150c16.63,0,32.66,0.79,47.74,2.26c1.47,15.08,2.26,31.11,2.26,47.74l38.34,38.34
		c1.09-12.41,1.66-25.22,1.66-38.34c0-14.32-0.68-28.29-1.97-41.75C331.39,167.19,360,182.55,360,200c0,17.04-27.27,32.07-68.9,41.1
		l30.4,30.4c47.73-16.45,78.5-42.35,78.5-71.5c0-36.54-48.39-67.99-117.91-82.09C267.99,48.39,236.54,0,200,0
		c-29.14,0-55.05,30.78-71.5,78.5L158.9,108.9z"/>
</g>
<rect x="180.86" y="-21.27" transform="matrix(0.7071 -0.7071 0.7071 0.7071 -87.8427 197.9289)" width="28.28" height="452.55"/>
</svg>
