<?xml version="1.0" encoding="utf-8"?>
<!-- Generator: Adobe Illustrator 27.4.0, SVG Export Plug-In . SVG Version: 6.00 Build 0)  -->
<svg version="1.1" xmlns="http://www.w3.org/2000/svg" xmlns:xlink="http://www.w3.org/1999/xlink" x="0px" y="0px"
	 viewBox="0 0 400 400" style="enable-background:new 0 0 400 400;" xml:space="preserve">
<g id="icon">
	<g id="gyro">
		<g>
			<path d="M140,120c-33.14,0-60,62.68-60,140s26.86,140,60,140s60-62.68,60-140S173.14,120,140,120z M140,370
				c-16.57,0-30-49.25-30-110s13.43-110,30-110s30,49.25,30,110S156.57,370,140,370z"/>
		</g>
		<g>
			<path d="M0,260c0,33.14,62.68,60,140,60s140-26.86,140-60s-62.68-60-140-60S0,226.86,0,260z M250,260c0,16.57-49.25,30-110,30
				S30,276.57,30,260s49.25-30,110-30S250,243.43,250,260z"/>
		</g>
	</g>
</g>
<g id="lock">
	<path d="M382.24,88.89h-8.91V53.33C373.33,23.88,349.46,0,320,0h0c-29.46,0-53.33,23.88-53.33,53.33v35.56H240.2
		c-0.11,0-0.2,0.09-0.2,0.2v106.47c6.91,6.91,10.86,10.86,17.78,17.78H399.8c0.11,0,0.2-0.09,0.2-0.2V106.65
		C393.06,99.71,389.18,95.82,382.24,88.89z M293.33,53.33c0-14.73,11.94-26.67,26.67-26.67s26.67,11.94,26.67,26.67v35.56h-53.33
		V53.33z M373.33,186.67H266.67v-71.11h106.67V186.67z"/>
</g>
</svg>
