<?xml version="1.0" encoding="utf-8"?>
<!-- Generator: Adobe Illustrator 27.4.0, SVG Export Plug-In . SVG Version: 6.00 Build 0)  -->
<svg version="1.1" id="icon" xmlns="http://www.w3.org/2000/svg" xmlns:xlink="http://www.w3.org/1999/xlink" x="0px" y="0px"
	 viewBox="0 0 400 400" style="enable-background:new 0 0 400 400;" xml:space="preserve">
<path d="M180,335c0-13.9,3.77-27.1,10.55-39l-3.2-19.13l39.61-39.51l10-30.71l52.11-52.11l35.31,35.31l11.8-18.3l-7.1-57.01
	l48.21-48.21L400,0l-66.32,22.71l-48.21,48.21l-57.01-7.1l-18.3,11.8l35.31,35.31l-52.11,52.11l-30.71,10.1l-39.51,39.51
	l-84.92-14.2L0,225.56l72.12,38.01l-10,23.01l51.31,51.31l23.01-10L174.44,400l17.16-24.2C184.17,363.44,180,349.61,180,335z"/>
<g>
	<path d="M300,316.67c9.33,0,16.67,7.33,16.67,16.67c0,9.33-7.33,16.67-16.67,16.67c-9.33,0-16.67-7.33-16.67-16.67
		C283.33,324,290.67,316.67,300,316.67"/>
	<path d="M300,266.67c-45.5,0-84.33,27.67-100,66.67c15.67,39,54.5,66.67,100,66.67s84.33-27.67,100-66.67
		C384.33,294.33,345.5,266.67,300,266.67z M300,375c-23.01,0-41.67-18.65-41.67-41.67s18.65-41.67,41.67-41.67
		c23.01,0,41.67,18.65,41.67,41.67S323.01,375,300,375z"/>
</g>
</svg>
