<?xml version="1.0" encoding="utf-8"?>
<!-- Generator: Adobe Illustrator 27.4.0, SVG Export Plug-In . SVG Version: 6.00 Build 0)  -->
<svg version="1.1" id="icon" xmlns="http://www.w3.org/2000/svg" xmlns:xlink="http://www.w3.org/1999/xlink" x="0px" y="0px"
	 viewBox="0 0 400 400" style="enable-background:new 0 0 400 400;" xml:space="preserve">
<polygon points="201.55,361.79 187.35,276.87 226.96,237.36 236.96,206.65 289.07,154.54 324.38,189.85 336.18,171.54 
	329.08,114.53 377.29,66.32 400,0 333.68,22.71 285.47,70.92 228.46,63.82 210.15,75.62 245.46,110.93 193.35,163.04 162.64,173.14 
	123.13,212.65 38.21,198.45 0,225.56 72.12,263.57 62.12,286.57 113.43,337.88 136.43,327.88 174.44,400 "/>
<g id="toggle">
	<g id="toggle_00000003796461442717959090000016111378498880301219_">
		<g>
			<path d="M365,280.13v28.28l15,15v33.14l-23.43,23.43h-33.14L300,356.56v-33.14l15-15v-28.28l-35,35v49.71L315.15,400h49.71
				L400,364.84v-49.71L365,280.13z M352,279.99h-24v80h24V279.99z"/>
		</g>
	</g>
</g>
</svg>
