<?xml version="1.0" encoding="utf-8"?>
<!-- Generator: Adobe Illustrator 27.4.0, SVG Export Plug-In . SVG Version: 6.00 Build 0)  -->
<svg version="1.1" id="icon" xmlns="http://www.w3.org/2000/svg" xmlns:xlink="http://www.w3.org/1999/xlink" x="0px" y="0px"
	 viewBox="0 0 400 400" style="enable-background:new 0 0 400 400;" xml:space="preserve">
<polygon id="missile" points="265.28,223.9 225.66,195.63 225.7,164.02 217.43,147.75 217.43,106.09 245.65,106.09 243.05,94.06 
	217.43,74.11 217.43,35.58 200,0 182.57,35.58 182.57,74.11 156.95,94.06 154.35,106.09 182.57,106.09 182.57,147.75 174.34,164.06 
	174.34,195.63 134.72,223.9 130.28,250 174.3,236.37 179.49,249.56 220.51,249.56 225.7,236.37 269.72,250 "/>
<path id="fire" d="M182.67,304.67L200,400l17.33-95.33l17.33,26l-8.67-52c0-2.45-6.09-7.09-11-8.67l-15,30l-15-30
	c-4.91,1.57-11,6.22-11,8.67l-8.67,52L182.67,304.67z"/>
</svg>
