<?xml version="1.0" encoding="utf-8"?>
<!-- Generator: Adobe Illustrator 27.4.0, SVG Export Plug-In . SVG Version: 6.00 Build 0)  -->
<svg version="1.1" id="icon" xmlns="http://www.w3.org/2000/svg" xmlns:xlink="http://www.w3.org/1999/xlink" x="0px" y="0px"
	 viewBox="0 0 400 400" style="enable-background:new 0 0 400 400;" xml:space="preserve">
<polygon points="201.55,361.79 187.35,276.87 226.96,237.36 236.96,206.65 289.07,154.54 324.38,189.85 336.18,171.54 
	329.08,114.53 377.29,66.32 400,0 333.68,22.71 285.47,70.92 228.46,63.82 210.15,75.62 245.46,110.93 193.35,163.04 162.64,173.14 
	123.13,212.65 38.21,198.45 0,225.56 72.12,263.57 62.12,286.57 113.43,337.88 136.43,327.88 174.44,400 "/>
<polygon points="355,370 355,280 325,280 300,280 300,310 325,310 325,370 300,370 300,380 300,400 325,400 355,400 379.96,400 
	379.96,380 380,380 380,370 "/>
</svg>
