<?xml version="1.0" encoding="utf-8"?>
<!-- Generator: Adobe Illustrator 27.4.0, SVG Export Plug-In . SVG Version: 6.00 Build 0)  -->
<svg version="1.1" id="icon" xmlns="http://www.w3.org/2000/svg" xmlns:xlink="http://www.w3.org/1999/xlink" x="0px" y="0px"
	 viewBox="0 0 400 400" style="enable-background:new 0 0 400 400;" xml:space="preserve">
<g>
	<g>
		<path d="M400,200c0-41.93-12.91-80.83-34.96-112.98l-4.28,12.51l-1.5,4.39l-3.28,3.28l-15.74,15.74
			C352.83,145.79,360,172.06,360,200c0,41.64-15.91,79.55-41.98,108.02L280,270v105h105l-38.68-38.68
			C379.62,300.6,400,252.68,400,200z"/>
	</g>
	<g>
		<path d="M277.07,59.76l15.74-15.74l3.28-3.28l4.39-1.5l12.51-4.28C280.83,12.91,241.93,0,200,0c-17.27,0-34.02,2.2-50,6.31v41.67
			c15.73-5.17,32.54-7.98,50-7.98C227.94,40,254.21,47.17,277.07,59.76z"/>
	</g>
</g>
<g>
	<g>
		<path d="M195.87,371.57l-18.83,26.54l-15.17-28.79l-8.57-16.26c-50.8-15.48-90.88-55.56-106.36-106.36l-16.26-8.57L1.88,222.96
			l26.54-18.83l11.63-8.25c1.01-40.02,16.72-76.38,41.93-103.9L120,130V25H15l38.68,38.68C20.38,99.4,0,147.31,0,200
			c0,110.46,89.54,200,200,200c17.27,0,34.02-2.2,50-6.31v-41.67c-14.49,4.77-29.89,7.52-45.88,7.93L195.87,371.57z"/>
	</g>
</g>
<polygon id="missile" points="201.24,329.43 189.88,261.5 221.57,229.89 229.57,205.32 271.26,163.63 299.5,191.88 308.95,177.23 
	303.27,131.62 341.84,93.05 360,40 306.95,58.16 268.38,96.73 222.77,91.05 208.12,100.5 236.37,128.74 194.68,170.43 
	170.11,178.51 138.5,210.12 70.57,198.76 40,220.45 97.69,250.85 89.69,269.26 130.74,310.31 149.15,302.31 179.55,360 "/>
</svg>
