<?xml version="1.0" encoding="utf-8"?>
<!-- Generator: Adobe Illustrator 27.4.0, SVG Export Plug-In . SVG Version: 6.00 Build 0)  -->
<svg version="1.1" id="icon" xmlns="http://www.w3.org/2000/svg" xmlns:xlink="http://www.w3.org/1999/xlink" x="0px" y="0px"
	 viewBox="0 0 400 400" style="enable-background:new 0 0 400 400;" xml:space="preserve">
<g>
	<g>
		<path d="M91.98,81.98C120.45,55.92,158.36,40,200,40c27.94,0,54.21,7.17,77.07,19.76l15.74-15.74l3.28-3.28l4.39-1.5l12.51-4.28
			C280.83,12.91,241.93,0,200,0C147.31,0,99.4,20.38,63.68,53.68L25,15v105h105L91.98,81.98z"/>
	</g>
	<g>
		<path d="M365.04,87.02l-4.28,12.51l-1.5,4.39l-3.28,3.28l-15.74,15.74C352.83,145.79,360,172.06,360,200
			c0,17.46-2.81,34.27-7.98,50h41.67c4.12-15.98,6.31-32.73,6.31-50C400,158.07,387.09,119.17,365.04,87.02z"/>
	</g>
</g>
<g>
	<g>
		<path d="M308.02,318.02c-27.52,25.21-63.88,40.92-103.9,41.93l-8.25,11.63l-18.83,26.54l-15.17-28.79l-8.57-16.26
			c-50.8-15.48-90.88-55.56-106.36-106.36l-16.26-8.57L1.88,222.96l26.54-18.83l11.63-8.25c0.41-15.99,3.16-31.39,7.93-45.88H6.31
			C2.2,165.98,0,182.73,0,200c0,110.46,89.54,200,200,200c52.68,0,100.6-20.38,136.32-53.68L375,385V280H270L308.02,318.02z"/>
	</g>
</g>
<polygon id="missile" points="201.24,329.43 189.88,261.5 221.57,229.89 229.57,205.32 271.26,163.63 299.5,191.88 308.95,177.23 
	303.27,131.62 341.84,93.05 360,40 306.95,58.16 268.38,96.73 222.77,91.05 208.12,100.5 236.37,128.74 194.68,170.43 
	170.11,178.51 138.5,210.12 70.57,198.76 40,220.45 97.69,250.85 89.69,269.26 130.74,310.31 149.15,302.31 179.55,360 "/>
</svg>
