<?xml version="1.0" encoding="utf-8"?>
<!-- Generator: Adobe Illustrator 27.4.0, SVG Export Plug-In . SVG Version: 6.00 Build 0)  -->
<svg version="1.1" id="icon" xmlns="http://www.w3.org/2000/svg" xmlns:xlink="http://www.w3.org/1999/xlink" x="0px" y="0px"
	 viewBox="0 0 400 400" style="enable-background:new 0 0 400 400;" xml:space="preserve">
<style type="text/css">
	.st0{fill-rule:evenodd;clip-rule:evenodd;}
</style>
<g>
	<path class="st0" d="M210,50h10V30h-10c-11.05,0-20,8.95-20,20v10h20V50z"/>
	<path class="st0" d="M210,90V80h-20v10c0,11.05,8.95,20,20,20h10V90H210z"/>
	<path class="st0" d="M250,30h-10v20h10v10h20V50C270,38.95,261.05,30,250,30z"/>
	<path class="st0" d="M250,90h-10v20h10c11.05,0,20-8.95,20-20V80h-20V90z"/>
</g>
<rect x="94.47" y="145.43" transform="matrix(0.7071 -0.7071 0.7071 0.7071 -64.632 148.9645)" class="st0" width="106.07" height="14.14"/>
<polygon class="st0" points="70,170 130,230 30,270 "/>
<g>
	<path class="st0" d="M150,310h10v-20h-10c-11.05,0-20,8.95-20,20v10h20V310z"/>
	<path class="st0" d="M150,350v-10h-20v10c0,11.05,8.95,20,20,20h10v-20H150z"/>
	<path class="st0" d="M190,290h-10v20h10v10h20v-10C210,298.95,201.05,290,190,290z"/>
	<path class="st0" d="M190,350h-10v20h10c11.05,0,20-8.95,20-20v-10h-20V350z"/>
</g>
<rect x="203.61" y="250.43" transform="matrix(0.7071 -0.7071 0.7071 0.7071 -111.0534 246.8934)" class="st0" width="77.78" height="14.14"/>
<polygon class="st0" points="320,120 380,180 280,220 "/>
</svg>
