<?xml version="1.0" encoding="utf-8"?>
<!-- Generator: Adobe Illustrator 27.4.0, SVG Export Plug-In . SVG Version: 6.00 Build 0)  -->
<svg version="1.1" id="icon" xmlns="http://www.w3.org/2000/svg" xmlns:xlink="http://www.w3.org/1999/xlink" x="0px" y="0px"
	 viewBox="0 0 400 400" style="enable-background:new 0 0 400 400;" xml:space="preserve">
<style type="text/css">
	.st0{fill-rule:evenodd;clip-rule:evenodd;}
</style>
<path id="ship" class="st0" d="M167.18,181.54l30.77-41.03l10.26,10.26l-25.64,35.9l5.13,5.13l15.39-15.39l20.51,20.51l-15.38,15.39
	l5.13,5.13l35.9-25.64l10.26,10.26l-41.03,30.77L280,263.59l-20.51,20.51l-82.05-10.26l-15.38,15.39l-25.64,5.13
	c-0.96,0.96-2.56,2.56-5.13,5.13C121.03,309.74,90.26,320,90.26,320L80,309.74c0,0,10.26-30.77,20.51-41.03
	c2.56-2.56,4.17-4.17,5.13-5.13l5.13-25.64l15.39-15.38l-10.26-82.05L136.41,120L167.18,181.54z"/>
<g>
	<path class="st0" d="M320,40h10V20h-10c-11.05,0-20,8.95-20,20v10h20V40z"/>
	<path class="st0" d="M320,80V70h-20v10c0,11.05,8.95,20,20,20h10V80H320z"/>
	<path class="st0" d="M360,20h-10v20h10v10h20V40C380,28.95,371.05,20,360,20z"/>
	<path class="st0" d="M360,80h-10v20h10c11.05,0,20-8.95,20-20V70h-20V80z"/>
</g>
<rect x="210.5" y="132.93" transform="matrix(0.7071 -0.7071 0.7071 0.7071 -22.8427 224.8528)" class="st0" width="98.99" height="14.14"/>
</svg>
