<svg xmlns="http://www.w3.org/2000/svg" width="400" height="400" viewBox="0 0 400 400">
  <defs>
    <style>
      .cls-1 {
        fill-rule: evenodd;
      }
    </style>
  </defs>
  <path id="ship" class="cls-1" d="M235.7,240l7.143,50H228.562l-7.143-42.855h-7.143v21.427h-28.57V247.147h-7.142L171.421,290H157.136l7.143-50L100,261.432V232.861l64.283-50V161.436l14.285-21.428v-7.142c0-14.285,14.285-42.856,14.285-42.856h14.285s14.285,28.571,14.285,42.856v7.142L235.7,161.436v21.428l64.283,50v28.571Z"/>
  <path id="reset" class="cls-1" d="M279.813,97.384a130,130,0,0,0-159.626,0L101.769,73.7a160,160,0,0,1,196.462,0ZM120.187,302.616a130,130,0,0,0,159.626,0L298.231,326.3a160,160,0,0,1-196.462,0ZM70,200a129.435,129.435,0,0,0,27.384,79.813L73.7,298.231a160,160,0,0,1,0-196.462l23.681,18.418A129.435,129.435,0,0,0,70,200Zm260,0a129.433,129.433,0,0,0-27.384-79.813L326.3,101.769a160,160,0,0,1,0,196.462l-23.681-18.418A129.433,129.433,0,0,0,330,200Z"/>
</svg>
