<?xml version="1.0" encoding="utf-8"?>
<!-- Generator: Adobe Illustrator 27.4.0, SVG Export Plug-In . SVG Version: 6.00 Build 0)  -->
<svg version="1.1" id="icon" xmlns="http://www.w3.org/2000/svg" xmlns:xlink="http://www.w3.org/1999/xlink" x="0px" y="0px"
	 viewBox="0 0 400 400" style="enable-background:new 0 0 400 400;" xml:space="preserve">
<polygon id="fire" points="200,0 180,280 220,280 "/>
<polygon id="flame_00000056426375556838153670000009607956572172394139_" points="198.08,271.92 218.08,291.92 320,170 "/>
<polygon id="flame" points="181.92,291.92 201.92,271.92 80,170 "/>
<g id="barrel">
	<path d="M223.83,193.19l2.34,32.8c2.32,1.13,4.55,2.41,6.7,3.81l23.7-19.81C247.05,202.31,235.95,196.51,223.83,193.19z"/>
	<path d="M256.93,261.04C258.91,267,260,273.37,260,280c0,33.14-26.86,60-60,60s-60-26.86-60-60c0-6.63,1.09-13,3.07-18.96
		l-21.33-25.52C114.27,248.64,110,263.82,110,280v120h180V280c0-16.18-4.27-31.36-11.74-44.47L256.93,261.04z"/>
	<path d="M167.14,229.81c2.14-1.41,4.37-2.69,6.7-3.81l2.34-32.8c-12.13,3.32-23.23,9.11-32.74,16.8L167.14,229.81z"/>
	<circle cx="200" cy="280" r="40"/>
</g>
</svg>
