<?xml version="1.0" encoding="utf-8"?>
<!-- Generator: Adobe Illustrator 27.4.0, SVG Export Plug-In . SVG Version: 6.00 Build 0)  -->
<svg version="1.1" id="icon" xmlns="http://www.w3.org/2000/svg" xmlns:xlink="http://www.w3.org/1999/xlink" x="0px" y="0px"
	 viewBox="0 0 400 400" style="enable-background:new 0 0 400 400;" xml:space="preserve">
<path d="M200,320c-39.64,0-72.52-10.81-78.87-25H120v105h160V295h-1.13C272.52,309.19,239.64,320,200,320z"/>
<path d="M240,220L200,0l-40,220l-40-60l20,120c0,5.65,7.05,10.76,18.37,14.39L150,240l19.03,15.22L200,180l30.97,75.22L250,240
	l-8.37,54.39C252.95,290.76,260,285.65,260,280l20-120L240,220z"/>
<path d="M224.66,294.18L200,235l-24.66,59.18c-0.22,0.27-0.34,0.54-0.34,0.82c0,2.76,11.19,5,25,5s25-2.24,25-5
	C225,294.72,224.88,294.45,224.66,294.18z"/>
<path d="M370,280h-50v30h50v15h-20c-16.57,0-30,13.43-30,30v0v45h26.67H400v-30h-50v-15h20c16.57,0,30-13.43,30-30v-15v0
	C400,293.43,386.57,280,370,280z"/>
</svg>
