<?xml version="1.0" encoding="UTF-8" standalone="no"?>
<!DOCTYPE svg PUBLIC "-//W3C//DTD SVG 1.1//EN" "http://www.w3.org/Graphics/SVG/1.1/DTD/svg11.dtd">
<svg width="100%" height="100%" viewBox="0 0 400 400" version="1.1" xmlns="http://www.w3.org/2000/svg" xmlns:xlink="http://www.w3.org/1999/xlink" xml:space="preserve" xmlns:serif="http://www.serif.com/" style="fill-rule:evenodd;clip-rule:evenodd;stroke-linejoin:round;stroke-miterlimit:2;">
    <g id="icon">
        <g transform="matrix(-1,0,0,1,400,0)">
            <path d="M360,0C382.083,0 400,17.917 400,40L400,180L320,100L360,100L360,40L280,40L280,0L360,0ZM120,400L40,400C17.917,400 0,382.083 0,360L0,220L80,300L40,300L40,360L120,360L120,400Z"/>
        </g>
        <g id="ship" transform="matrix(4.16667,0,0,4.16667,20,20)">
            <path d="M57.6,28.11L72,26.06L72,30.17L59.66,32.23L59.66,34.29L65.83,34.29L65.83,42.52L59.66,42.52L59.66,44.58L72,46.63L72,50.74L57.6,48.68L63.77,67.19L55.54,67.19L41.14,48.68L34.97,48.68L28.8,44.57L26.74,44.57C22.63,44.57 14.4,40.46 14.4,40.46L14.4,36.35C14.4,36.35 22.63,32.24 26.74,32.24L28.8,32.24L34.97,28.13L41.14,28.13L55.54,9.6L63.77,9.6L57.6,28.11Z"/>
        </g>
        <g transform="matrix(4.16667,0,0,4.16667,20,20)">
            <path d="M43.2,67.2L28.8,81.6L33.6,86.4L43.2,76.8L52.8,86.4L57.6,81.6L43.2,67.2Z"/>
        </g>
    </g>
</svg>
