<?xml version="1.0" encoding="utf-8"?>
<!-- Generator: Adobe Illustrator 27.4.0, SVG Export Plug-In . SVG Version: 6.00 Build 0)  -->
<svg version="1.1" id="Layer_1" xmlns="http://www.w3.org/2000/svg" xmlns:xlink="http://www.w3.org/1999/xlink" x="0px" y="0px"
	 viewBox="0 0 96 96" style="enable-background:new 0 0 96 96;" xml:space="preserve">
<style type="text/css">
	.st0{enable-background:new    ;}
	.st1{display:none;enable-background:new    ;}
	.st2{display:inline;}
	.st3{display:none;}
	.st4{display:inline;fill-rule:evenodd;clip-rule:evenodd;}
	.st5{display:inline;opacity:0.38;}
</style>
<g id="target_x5F_full" class="st0">
	<g id="Image_xA0_1">
		<g>
			<path d="M14.4,72H4.8v9.6c0,5.3,4.3,9.6,9.6,9.6H24v-9.6h-9.6V72z M4.8,14.4V24h9.6v-9.6H24V4.8h-9.6C9.1,4.8,4.8,9.1,4.8,14.4z
				 M81.6,81.6H72v9.6h9.6c5.3,0,9.6-4.3,9.6-9.6V72h-9.6V81.6z M81.6,4.8H72v9.6h9.6V24h9.6v-9.6C91.2,9.1,86.9,4.8,81.6,4.8z
				 M40.8,14.4h14.4L48,0L40.8,14.4z"/>
		</g>
	</g>
</g>
<g id="plus" class="st1">
	<g id="Image_xA0_2" class="st2">
		<g>
			<polygon points="96,78 85.2,78 85.2,67.2 78,67.2 78,78 67.2,78 67.2,85.2 78,85.2 78,96 85.2,96 85.2,85.2 96,85.2 			"/>
		</g>
	</g>
</g>
<g id="toggle" class="st1">
	<g id="target_x5F_toggle" class="st2">
		<g>
			<path d="M87.6,67.24v6.79l3.6,3.6v7.95l-5.62,5.62h-7.95L72,85.58v-7.95l3.6-3.6v-6.79l-8.4,8.4v11.93L75.64,96h11.93L96,87.56
				V75.64L87.6,67.24z M84.48,67.2h-5.76v19.2h5.76V67.2z"/>
		</g>
	</g>
</g>
<g id="cycle_x5F_forward" class="st3">
	<path class="st2" d="M81.6,81.6l6.37-6.37c-1.62-1.62-3.89-2.63-6.37-2.63c-4.97,0-9,4.03-9,9s4.03,9,9,9c2.95,0,5.54-1.4,7.2-3.6
		h6.16c-2.12,5.29-7.31,9-13.36,9c-7.96,0-14.4-6.44-14.4-14.4s6.44-14.4,14.4-14.4c4,0,7.6,1.62,10.19,4.21L96,67.2v14.4H81.6z"/>
</g>
<g id="cycle_x5F_backward" class="st3">
	<path class="st2" d="M67.2,81.6V67.2l4.21,4.21C74,68.82,77.6,67.2,81.6,67.2c7.96,0,14.4,6.44,14.4,14.4S89.56,96,81.6,96
		c-6.05,0-11.23-3.71-13.36-9h6.16c1.66,2.2,4.25,3.6,7.2,3.6c4.97,0,9-4.03,9-9s-4.03-9-9-9c-2.48,0-4.75,1.01-6.37,2.63l6.37,6.37
		H67.2z"/>
</g>
<g id="target_x5F_subscript" class="st3">
	<path class="st4" d="M81.6,14.4H72V4.8h9.6c5.3,0,9.6,4.3,9.6,9.6V24h-9.6V14.4z M48,0l7.2,14.4H40.8L48,0z M4.8,81.6V72h9.6v9.6
		H24v9.6h-9.6C9.1,91.2,4.8,86.9,4.8,81.6z M14.4,24H4.8v-9.6c0-5.3,4.3-9.6,9.6-9.6H24v9.6h-9.6V24z"/>
</g>
<g id="deprecated" class="st3">
	<g id="Image_xA0_5" class="st2">
		<g>
			<path d="M48,28.8c-10.6,0-19.2,8.6-19.2,19.2S37.4,67.2,48,67.2S67.2,58.6,67.2,48S58.6,28.8,48,28.8z M48,60
				c-6.63,0-12-5.37-12-12c0-2,0.49-3.89,1.36-5.55l16.19,16.19C51.89,59.51,50,60,48,60z M58.64,53.55L42.45,37.36
				C44.11,36.49,46,36,48,36c6.63,0,12,5.37,12,12C60,50,59.51,51.89,58.64,53.55z"/>
		</g>
	</g>
	<g id="Image_xA0_6" class="st2">
		<g>
			<path d="M36,36h7.2v-7.2h-9.6c-2.65,0-4.8,2.15-4.8,4.8v9.6H36V36z M36,52.8h-7.2v9.6c0,2.65,2.15,4.8,4.8,4.8h9.6V60H36V52.8z
				 M60,60h-7.2v7.2h9.6c2.65,0,4.8-2.15,4.8-4.8v-9.6H60V60z M48,43.2c-2.65,0-4.8,2.15-4.8,4.8s2.15,4.8,4.8,4.8s4.8-2.15,4.8-4.8
				S50.65,43.2,48,43.2z M62.4,28.8h-9.6V36H60v7.2h7.2v-9.6C67.2,30.95,65.05,28.8,62.4,28.8z"/>
		</g>
	</g>
	<g id="Image_xA0_7" class="st2">
		<g>
			<path d="M48,33.6v-4.8L40.8,36l7.2,7.2v-4.8c5.3,0,9.6,4.3,9.6,9.6c0,2.65-1.07,5.05-2.81,6.79l3.39,3.39
				c2.61-2.61,4.22-6.21,4.22-10.18C62.4,40.05,55.95,33.6,48,33.6z M48,57.6c-5.3,0-9.6-4.3-9.6-9.6c0-2.65,1.07-5.05,2.81-6.79
				l-3.39-3.39c-2.61,2.6-4.22,6.2-4.22,10.18c0,7.95,6.45,14.4,14.4,14.4v4.8l7.2-7.2L48,52.8V57.6z"/>
		</g>
	</g>
	<g id="Image_xA0_8" class="st2">
		<g>
			<path d="M57.6,43.2c2.65,0,4.8-2.15,4.8-4.8c0-2.65-2.15-4.8-4.8-4.8c-2.65,0-4.8,2.15-4.8,4.8S54.95,43.2,57.6,43.2z M38.4,43.2
				c2.65,0,4.8-2.15,4.8-4.8c0-2.65-2.15-4.8-4.8-4.8c-2.65,0-4.8,2.15-4.8,4.8C33.6,41.05,35.75,43.2,38.4,43.2z M31.38,52.8
				c3.32,5.74,9.52,9.6,16.62,9.6s13.3-3.86,16.62-9.6C64.62,52.8,31.38,52.8,31.38,52.8z"/>
		</g>
	</g>
	<g id="Image_xA0_9" class="st2">
		<g>
			<path d="M38.4,43.2c2.65,0,4.8-2.15,4.8-4.8c0-2.65-2.15-4.8-4.8-4.8c-2.65,0-4.8,2.15-4.8,4.8C33.6,41.05,35.75,43.2,38.4,43.2z
				 M57.6,43.2c2.65,0,4.8-2.15,4.8-4.8c0-2.65-2.15-4.8-4.8-4.8c-2.65,0-4.8,2.15-4.8,4.8S54.95,43.2,57.6,43.2z M47.88,52.8
				c-7.13,0-13.35,3.86-16.68,9.6h33.35C61.23,56.66,55.01,52.8,47.88,52.8z"/>
		</g>
	</g>
	<g id="Image_xA0_10" class="st2">
		<g>
			<path d="M47.88,52.8c-7.13,0-13.35,3.86-16.68,9.6h33.35C61.23,56.66,55.01,52.8,47.88,52.8z M32.11,47.13l5.09-5.09l5.09,5.09
				l3.39-3.39l-5.09-5.09l5.09-5.09l-3.39-3.39l-5.09,5.09l-5.09-5.09l-3.39,3.39l5.09,5.09l-5.09,5.09L32.11,47.13z M67.05,33.55
				l-3.39-3.39l-5.09,5.09l-5.09-5.09l-3.39,3.39l5.09,5.09l-5.09,5.09l3.39,3.39l5.09-5.09l5.09,5.09l3.39-3.39l-5.09-5.09
				L67.05,33.55z"/>
		</g>
	</g>
	<g id="Image_xA0_11" class="st5">
		<g>
			<path d="M62.4,43.2v-4.8c0-5.3-4.3-9.6-9.6-9.6H33.6v9.6h9.6h9.6v4.8h-9.6v9.6h9.6v4.8h-9.6h-9.6v9.6h19.2c5.3,0,9.6-4.3,9.6-9.6
				v-4.8c0-2.65-2.15-4.8-4.8-4.8C60.25,48,62.4,45.85,62.4,43.2z"/>
		</g>
	</g>
	<g id="Image_xA0_12" class="st2">
		<g>
			<path d="M52.8,52.8c5.3,0,9.6-4.3,9.6-9.6v-4.8c0-5.3-4.3-9.6-9.6-9.6H33.6v9.6h4.8h4.8h9.6v4.8h-9.6c-5.3,0-9.6,4.3-9.6,9.6
				v14.4h9.6h19.2v-9.6h-9.6h-1.29H43.2v-4.8H52.8z"/>
		</g>
	</g>
	<g id="Image_xA0_13" class="st2">
		<g>
			<polygon points="33.6,28.8 33.6,38.4 43.2,38.4 43.2,67.2 52.8,67.2 52.8,38.4 52.8,28.8 			"/>
		</g>
	</g>
</g>
<g id="under_x5F_reticle" class="st1">
	<g id="Image_xA0_15" class="st2">
		<g>
			<path d="M48,43.2c-2.65,0-4.8,2.15-4.8,4.8s2.15,4.8,4.8,4.8s4.8-2.15,4.8-4.8S50.65,43.2,48,43.2z M43.2,33.6l4.8,4.8l4.8-4.8
				V19.2h-9.6C43.2,19.2,43.2,33.6,43.2,33.6z M43.2,62.4v14.4h9.6V62.4L48,57.6L43.2,62.4z M62.4,43.2L57.6,48l4.8,4.8h14.4v-9.6
				C76.8,43.2,62.4,43.2,62.4,43.2z M19.2,43.2v9.6h14.4l4.8-4.8l-4.8-4.8C33.6,43.2,19.2,43.2,19.2,43.2z"/>
		</g>
	</g>
</g>
<g id="hail_x5F_deprecated" class="st1">
	<g id="Image_xA0_16" class="st2">
		<g>
			<path d="M48.07,64.9l16.97-16.97l-3.39-3.39L44.67,61.51L48.07,64.9z M34.49,30.96L17.52,47.93L34.49,64.9l16.97-16.97
				L34.49,30.96z M31.1,47.93l3.39-3.39l3.39,3.39l-3.39,3.39L31.1,47.93z M75.22,44.54L48.07,17.39l-3.39,3.39l27.15,27.15
				L44.67,75.09l3.39,3.39l30.55-30.55L75.22,44.54z M44.67,34.36l13.58,13.58l3.39-3.39L48.07,30.96L44.67,34.36z"/>
		</g>
	</g>
</g>
<g id="subtarget" class="st1">
	<g id="Image_xA0_17" class="st2">
		<g>
			<path d="M24,28.8v9.6h7.2v-7.2h7.2V24h-9.6C26.15,24,24,26.15,24,28.8z M31.2,57.6H24v9.6c0,2.65,2.15,4.8,4.8,4.8h9.6v-7.2h-7.2
				V57.6z M67.2,24h-9.6v7.2h7.2v7.2H72v-9.6C72,26.15,69.85,24,67.2,24z M48,43.2c-2.65,0-4.8,2.15-4.8,4.8s2.15,4.8,4.8,4.8
				s4.8-2.15,4.8-4.8S50.65,43.2,48,43.2z M64.8,64.8h-7.2V72h9.6c2.65,0,4.8-2.15,4.8-4.8v-9.6h-7.2C64.8,57.6,64.8,64.8,64.8,64.8
				z"/>
		</g>
	</g>
</g>
<g id="all_x5F_cycle_x5F_deprecated" class="st1">
	<g id="Image_xA0_18" class="st2">
		<g>
			<path d="M36,48c0-6.63,5.37-12,12-12v6.72l10.56-10.56L48,21.6v7.2c-10.6,0-19.2,8.6-19.2,19.2c0,4.08,1.27,7.85,3.44,10.96
				l5.22-5.22C36.53,52.03,36,50.08,36,48z M63.76,37.04l-5.22,5.22C59.47,43.97,60,45.92,60,48c0,6.63-5.37,12-12,12v-6.72
				L37.44,63.84L48,74.4v-7.2c10.6,0,19.2-8.6,19.2-19.2C67.2,43.92,65.93,40.15,63.76,37.04z"/>
		</g>
	</g>
</g>
<g id="all" class="st3">
	<rect x="43.2" y="24" class="st2" width="9.6" height="48"/>
	<rect x="43.2" y="24" transform="matrix(0.5 -0.866 0.866 0.5 -17.5711 65.5679)" class="st2" width="9.6" height="48"/>
	<rect x="24" y="43.2" transform="matrix(0.866 -0.5 0.5 0.866 -17.5687 30.4321)" class="st2" width="48" height="9.6"/>
</g>
<g id="clear_x5F_pin" class="st1">
	<g id="Image_xA0_19" class="st2">
		<g>
			<path d="M48,24c-13.25,0-24,10.75-24,24s10.75,24,24,24s24-10.75,24-24S61.25,24,48,24z M48,62.4c-7.95,0-14.4-6.45-14.4-14.4
				c0-2.22,0.5-4.33,1.4-6.21L54.21,61C52.33,61.9,50.22,62.4,48,62.4z M61,54.21L41.79,35c1.88-0.9,3.98-1.4,6.21-1.4
				c7.95,0,14.4,6.45,14.4,14.4C62.4,50.22,61.9,52.33,61,54.21z"/>
		</g>
	</g>
</g>
<g id="friendly" class="st1">
	<g id="Image_xA0_20" class="st2">
		<g>
			<path d="M62.4,40.8c3.98,0,7.2-3.22,7.2-7.2s-3.22-7.2-7.2-7.2s-7.2,3.22-7.2,7.2S58.42,40.8,62.4,40.8z M33.6,40.8
				c3.98,0,7.2-3.22,7.2-7.2s-3.22-7.2-7.2-7.2s-7.2,3.22-7.2,7.2S29.62,40.8,33.6,40.8z M23.05,57.6C28.03,66.21,37.34,72,48,72
				s19.97-5.79,24.95-14.4H23.05z"/>
		</g>
	</g>
</g>
<g id="attacker_x5F_smile" class="st1">
	<g id="Image_xA0_21" class="st2">
		<g>
			<path d="M48,62.4c-13.93,0-25.55-5.77-28.22-13.44C22.45,62.11,34.07,72,48,72s25.55-9.89,28.22-23.04
				C73.55,56.63,61.93,62.4,48,62.4z"/>
		</g>
	</g>
</g>
<g id="attacker" class="st1">
	<g id="Image_xA0_22" class="st2">
		<g>
			<path d="M48,62.4c-13.93,0-25.55-5.77-28.22-13.44C22.45,62.11,34.07,72,48,72s25.55-9.89,28.22-23.04
				C73.55,56.63,61.93,62.4,48,62.4z M72,24L52.8,43.2C72,60.6,72,24,72,24z M43.2,43.2L24,24C24,24,24,60.6,43.2,43.2z"/>
		</g>
	</g>
</g>
<g id="hostile" class="st1">
	<g id="Image_xA0_23" class="st2">
		<g>
			<path d="M62.4,40.8c3.98,0,7.2-3.22,7.2-7.2s-3.22-7.2-7.2-7.2s-7.2,3.22-7.2,7.2S58.42,40.8,62.4,40.8z M33.6,40.8
				c3.98,0,7.2-3.22,7.2-7.2s-3.22-7.2-7.2-7.2s-7.2,3.22-7.2,7.2S29.62,40.8,33.6,40.8z M48,52.8c-10.67,0-19.98,5.79-24.96,14.4
				h49.92C67.98,58.59,58.67,52.8,48,52.8z"/>
		</g>
	</g>
</g>
<g id="pin3_00000161618015542317155140000008859590607013312946_" class="st1">
	<g id="pin3" class="st2">
		<g>
			<path d="M67.2,43.2v-9.6c0-5.3-4.3-9.6-9.6-9.6H28.8v9.6H48h9.6v9.6H48h-9.6v9.6H48h9.6v9.6H48H28.8V72h28.8
				c5.3,0,9.6-4.3,9.6-9.6v-9.6c0-2.65-2.15-4.8-4.8-4.8C65.05,48,67.2,45.85,67.2,43.2z"/>
		</g>
	</g>
</g>
<g id="pin2" class="st1">
	<g id="Image_xA0_25" class="st2">
		<g>
			<path d="M48,52.8h9.6c5.3,0,9.6-4.3,9.6-9.6v-9.6c0-5.3-4.3-9.6-9.6-9.6H28.8v9.6H48h9.6v9.6H48h-9.6c-5.3,0-9.6,4.3-9.6,9.6v9.6
				V72h38.4v-9.6H48h-9.6v-9.6C38.4,52.8,48,52.8,48,52.8z"/>
		</g>
	</g>
</g>
<g id="pin1" class="st0">
	<g id="Image_xA0_26">
		<g>
			<polygon points="33.6,24 33.6,33.6 43.2,33.6 43.2,72 52.8,72 52.8,33.6 52.8,24 			"/>
		</g>
	</g>
</g>
</svg>
