<?xml version="1.0" encoding="utf-8"?>
<!-- Generator: Adobe Illustrator 27.4.0, SVG Export Plug-In . SVG Version: 6.00 Build 0)  -->
<svg version="1.1" id="Layer_1" xmlns="http://www.w3.org/2000/svg" xmlns:xlink="http://www.w3.org/1999/xlink" x="0px" y="0px"
	 viewBox="0 0 96 96" style="enable-background:new 0 0 96 96;" xml:space="preserve">
<style type="text/css">
	.st0{fill-rule:evenodd;clip-rule:evenodd;}
	.st1{enable-background:new    ;}
</style>
<g id="cycle_x5F_forward">
	<rect x="88.8" y="67.2" width="7.2" height="28.8"/>
	<polygon points="86.4,81.6 67.2,67.2 67.2,96 	"/>
</g>
<g id="target_x5F_subscript">
	<path class="st0" d="M81.6,14.4H72V4.8h9.6c5.3,0,9.6,4.3,9.6,9.6V24h-9.6V14.4z M48,0l7.2,14.4H40.8L48,0z M4.8,81.6V72h9.6v9.6
		H24v9.6h-9.6C9.1,91.2,4.8,86.9,4.8,81.6z M14.4,24H4.8v-9.6c0-5.3,4.3-9.6,9.6-9.6H24v9.6h-9.6V24z"/>
</g>
<g id="friendly" class="st1">
	<g id="Image_xA0_20">
		<g>
			<path d="M62.4,40.8c3.98,0,7.2-3.22,7.2-7.2s-3.22-7.2-7.2-7.2s-7.2,3.22-7.2,7.2S58.42,40.8,62.4,40.8z M33.6,40.8
				c3.98,0,7.2-3.22,7.2-7.2s-3.22-7.2-7.2-7.2s-7.2,3.22-7.2,7.2S29.62,40.8,33.6,40.8z M23.05,57.6C28.03,66.21,37.34,72,48,72
				s19.97-5.79,24.95-14.4H23.05z"/>
		</g>
	</g>
</g>
</svg>
