<?xml version="1.0" encoding="utf-8"?>
<!-- Generator: Adobe Illustrator 27.4.0, SVG Export Plug-In . SVG Version: 6.00 Build 0)  -->
<svg version="1.1" xmlns="http://www.w3.org/2000/svg" xmlns:xlink="http://www.w3.org/1999/xlink" x="0px" y="0px"
	 viewBox="0 0 96 96" style="enable-background:new 0 0 96 96;" xml:space="preserve">
<style type="text/css">
	.st0{fill-rule:evenodd;clip-rule:evenodd;}
</style>
<g id="Layer_1">
	<polygon class="st0" points="48,76.8 33.6,91.2 38.4,96 48,86.4 57.6,96 62.4,91.2 	"/>
</g>
<g id="Layer_2">
	<path class="st0" d="M72,14.4H24c-2.65,0-4.8,2.15-4.8,4.8V67.2c0,2.65,2.15,4.8,4.8,4.8H72c2.65,0,4.8-2.15,4.8-4.8V19.2
		C76.8,16.55,74.65,14.4,72,14.4z M62.4,38.4c0,5.3-4.3,9.6-9.6,9.6h-9.6v4.8h19.2v9.6H33.6v-9.6V48c0-5.3,4.3-9.6,9.6-9.6h9.6v-4.8
		H33.6V24h19.2c5.3,0,9.6,4.3,9.6,9.6V38.4z"/>
</g>
</svg>
