<?xml version="1.0" encoding="utf-8"?>
<!-- Generator: Adobe Illustrator 27.4.0, SVG Export Plug-In . SVG Version: 6.00 Build 0)  -->
<svg version="1.1" xmlns="http://www.w3.org/2000/svg" xmlns:xlink="http://www.w3.org/1999/xlink" x="0px" y="0px"
	 viewBox="0 0 400 400" style="enable-background:new 0 0 400 400;" xml:space="preserve">
<style type="text/css">
	.st0{enable-background:new    ;}
	.st1{fill-rule:evenodd;clip-rule:evenodd;}
</style>
<g id="Layer_1">
	<g id="target_x5F_full" class="st0">
		<g id="Image_xA0_1">
			<g>
				<path d="M60.09,300.05H20.12v39.97c0,22.07,17.9,39.97,39.97,39.97h39.97v-39.97H60.09V300.05z M20.12,60.22v39.97h39.97V60.22
					h39.97V20.24H60.09C38.03,20.24,20.12,38.15,20.12,60.22z M339.91,340.03h-39.97V380h39.97c22.07,0,39.97-17.9,39.97-39.97
					v-39.97h-39.97V340.03z M339.91,20.24h-39.97v39.97h39.97v39.97h39.97V60.22C379.88,38.15,361.97,20.24,339.91,20.24z
					 M170.02,60.22h59.96L200,0.26L170.02,60.22z"/>
			</g>
		</g>
	</g>
</g>
<g id="Layer_2">
	<path id="ship" class="st1" d="M250.01,164.45L300,157.3v14.27l-42.84,7.15v7.15h21.42v28.57h-21.42v7.15l42.84,7.15V243
		l-49.99-7.15l21.42,64.25h-28.57l-49.99-64.25h-21.42l-21.42-14.27l0,0l0,0h-7.15c-14.27,0-42.84-14.27-42.84-14.27v-14.27
		c0,0,28.57-14.27,42.84-14.27h7.15l21.42-14.27h21.42l49.99-64.32h28.57L250.01,164.45z"/>
	<polygon class="st1" points="200.03,330.14 150.04,380.13 166.7,396.79 200.03,363.47 233.35,396.79 250.01,380.13 	"/>
</g>
</svg>
