<?xml version="1.0" encoding="utf-8"?>
<!-- Generator: Adobe Illustrator 27.4.0, SVG Export Plug-In . SVG Version: 6.00 Build 0)  -->
<svg version="1.1" id="Layer_1" xmlns="http://www.w3.org/2000/svg" xmlns:xlink="http://www.w3.org/1999/xlink" x="0px" y="0px"
	 viewBox="0 0 96 96" style="enable-background:new 0 0 96 96;" xml:space="preserve">
<path d="M14.4,14.4V24H24v-9.6h9.6V4.8H24C18.7,4.8,14.4,9.1,14.4,14.4z M81.6,72H72v9.6h9.6c5.3,0,9.6-4.3,9.6-9.6v-9.6h-9.6V72z
	 M81.6,4.8H72v9.6h9.6V24h9.6v-9.6C91.2,9.1,86.9,4.8,81.6,4.8z M45.6,14.4H60L52.8,0L45.6,14.4z"/>
<circle cx="52.8" cy="43.2" r="7.2"/>
<path d="M24,72.8c2.24,0,4,1.76,4,4c0,2.24-1.76,4-4,4s-4-1.76-4-4C20,74.56,21.76,72.8,24,72.8 M24,60.8c10.92,0,20.24,6.64,24,16
	c-3.76,9.36-13.08,16-24,16s-20.24-6.64-24-16C3.76,67.44,13.08,60.8,24,60.8 M24,66.8c-5.52,0-10,4.48-10,10c0,5.52,4.48,10,10,10
	s10-4.48,10-10C34,71.28,29.52,66.8,24,66.8"/>
</svg>
