<?xml version="1.0" encoding="UTF-8" standalone="no"?>
<!DOCTYPE svg PUBLIC "-//W3C//DTD SVG 1.1//EN" "http://www.w3.org/Graphics/SVG/1.1/DTD/svg11.dtd">
<svg width="100%" height="100%" viewBox="0 0 400 400" version="1.1" xmlns="http://www.w3.org/2000/svg" xmlns:xlink="http://www.w3.org/1999/xlink" xml:space="preserve" xmlns:serif="http://www.serif.com/" style="fill-rule:evenodd;clip-rule:evenodd;stroke-linejoin:round;stroke-miterlimit:2;">
    <g id="icon">
        <g transform="matrix(-1,0,0,1,400,0)">
            <path d="M340,20C362.083,20 380,37.917 380,60L380,200L300,120L340,120L340,60L260,60L260,20L340,20ZM140,380L60,380C37.917,380 20,362.083 20,340L20,200L100,280L60,280L60,340L140,340L140,380ZM200,0L230,60L170,60L200,0ZM60,100L20,100L20,60C20,37.917 37.917,20 60,20L100,20L100,60L60,60L60,100ZM340,340L340,300L380,300L380,340C380,362.091 362.091,380 340,380L300,380L300,340L340,340Z"/>
        </g>
        <g>
            <g transform="matrix(4.16667,0,0,4.16667,0,0)">
                <rect x="43.2" y="24" width="9.6" height="48"/>
            </g>
            <g transform="matrix(2.08333,-3.60833,3.60833,2.08333,-73.2129,273.2)">
                <rect x="43.2" y="24" width="9.6" height="48"/>
            </g>
            <g transform="matrix(3.60833,-2.08333,2.08333,3.60833,-73.2029,126.8)">
                <rect x="24" y="43.2" width="48" height="9.6"/>
            </g>
        </g>
    </g>
</svg>
