<?xml version="1.0" encoding="utf-8"?>
<!-- Generator: Adobe Illustrator 27.4.0, SVG Export Plug-In . SVG Version: 6.00 Build 0)  -->
<svg version="1.1" id="Layer_1" xmlns="http://www.w3.org/2000/svg" xmlns:xlink="http://www.w3.org/1999/xlink" x="0px" y="0px"
	 viewBox="0 0 96 96" style="enable-background:new 0 0 96 96;" xml:space="preserve">
<style type="text/css">
	.st0{enable-background:new    ;}
</style>
<g id="target_x5F_full" class="st0">
	<g id="Image_xA0_1">
		<g>
			<path d="M14.4,72H4.8v9.6c0,5.3,4.3,9.6,9.6,9.6H24v-9.6h-9.6V72z M4.8,14.4V24h9.6v-9.6H24V4.8h-9.6C9.1,4.8,4.8,9.1,4.8,14.4z
				 M81.6,81.6H72v9.6h9.6c5.3,0,9.6-4.3,9.6-9.6V72h-9.6V81.6z M81.6,4.8H72v9.6h9.6V24h9.6v-9.6C91.2,9.1,86.9,4.8,81.6,4.8z
				 M40.8,14.4h14.4L48,0L40.8,14.4z"/>
		</g>
	</g>
</g>
<polygon points="28.8,28.8 25.2,28.8 19.2,28.8 19.2,36 25.2,36 25.2,67.2 32.4,67.2 32.4,28.8 "/>
<polygon points="38.4,48 52.8,33.6 57.6,38.4 48,48 57.6,57.6 52.8,62.4 "/>
<polygon points="57.6,48 72,33.6 76.8,38.4 67.2,48 76.8,57.6 72,62.4 "/>
</svg>
