<?xml version="1.0" encoding="utf-8"?>
<!-- Generator: Adobe Illustrator 27.4.0, SVG Export Plug-In . SVG Version: 6.00 Build 0)  -->
<svg version="1.1" id="Layer_1" xmlns="http://www.w3.org/2000/svg" xmlns:xlink="http://www.w3.org/1999/xlink" x="0px" y="0px"
	 viewBox="0 0 96 96" style="enable-background:new 0 0 96 96;" xml:space="preserve">
<path d="M14.4,14.4V24H24v-9.6h9.6V4.8H24C18.7,4.8,14.4,9.1,14.4,14.4z M81.6,72H72v9.6h9.6c5.3,0,9.6-4.3,9.6-9.6v-9.6h-9.6V72z
	 M81.6,4.8H72v9.6h9.6V24h9.6v-9.6C91.2,9.1,86.9,4.8,81.6,4.8z M45.6,14.4H60L52.8,0L45.6,14.4z"/>
<circle cx="52.8" cy="43.2" r="7.2"/>
<path d="M0,64.84c0,9.3,7.54,16.84,16.84,16.84c9.3,0,16.84-7.54,16.84-16.84S26.14,48,16.84,48C7.54,48,0,55.54,0,64.84z
	 M26.95,64.84c0,5.58-4.52,10.11-10.11,10.11c-5.58,0-10.11-4.52-10.11-10.11s4.52-10.11,10.11-10.11
	C22.42,54.74,26.95,59.26,26.95,64.84z"/>
<rect x="33.06" y="72.13" transform="matrix(0.7071 -0.7071 0.7071 0.7071 -49.1144 50.6905)" width="7.15" height="25.01"/>
</svg>
