<?xml version="1.0" encoding="utf-8"?>
<!-- Generator: Adobe Illustrator 27.4.0, SVG Export Plug-In . SVG Version: 6.00 Build 0)  -->
<svg version="1.1" id="Layer_1" xmlns="http://www.w3.org/2000/svg" xmlns:xlink="http://www.w3.org/1999/xlink" x="0px" y="0px"
	 viewBox="0 0 96 96" style="enable-background:new 0 0 96 96;" xml:space="preserve">
<path d="M14.4,14.4V24H24v-9.6h9.6V4.8H24C18.7,4.8,14.4,9.1,14.4,14.4z M81.6,72H72v9.6h9.6c5.3,0,9.6-4.3,9.6-9.6v-9.6h-9.6V72z
	 M81.6,4.8H72v9.6h9.6V24h9.6v-9.6C91.2,9.1,86.9,4.8,81.6,4.8z M45.6,14.4H60L52.8,0L45.6,14.4z"/>
<circle cx="52.8" cy="43.2" r="7.2"/>
<path d="M32,72h5.33c0-7.36-5.97-13.33-13.33-13.33V64C28.42,64,32,67.58,32,72 M42.67,72H48c0-13.33-10.75-24-24-24v5.33
	C34.29,53.33,42.67,61.68,42.67,72 M45.33,81.33c-3.33,0-6.53-0.53-9.52-1.52c-0.93-0.29-1.97-0.08-2.72,0.67l-5.87,5.87
	c-7.55-3.84-13.73-10.03-17.57-17.57l5.87-5.87c0.75-0.75,0.96-1.79,0.67-2.72c-0.99-2.99-1.52-6.19-1.52-9.52
	c0-1.47-1.19-2.67-2.67-2.67H2.67C1.19,48,0,49.19,0,50.67C0,75.7,20.3,96,45.33,96c1.47,0,2.67-1.19,2.67-2.67V84
	C48,82.53,46.81,81.33,45.33,81.33z"/>
</svg>
