<?xml version="1.0" encoding="UTF-8" standalone="no"?>
<!DOCTYPE svg PUBLIC "-//W3C//DTD SVG 1.1//EN" "http://www.w3.org/Graphics/SVG/1.1/DTD/svg11.dtd">
<svg width="100%" height="100%" viewBox="0 0 400 400" version="1.1" xmlns="http://www.w3.org/2000/svg" xmlns:xlink="http://www.w3.org/1999/xlink" xml:space="preserve" xmlns:serif="http://www.serif.com/" style="fill-rule:evenodd;clip-rule:evenodd;stroke-linejoin:round;stroke-miterlimit:2;">
    <g id="icon">
        <g transform="matrix(-1,0,0,1,400,0)">
            <path d="M340,20C362.083,20 380,37.917 380,60L380,200L300,120L340,120L340,60L260,60L260,20L340,20ZM140,380L60,380C37.917,380 20,362.083 20,340L20,200L100,280L60,280L60,340L140,340L140,380ZM200,0L230,60L170,60L200,0ZM60,100L20,100L20,60C20,37.917 37.917,20 60,20L100,20L100,60L60,60L60,100ZM340,340L340,300L380,300L380,340C380,362.091 362.091,380 340,380L300,380L300,340L340,340Z"/>
        </g>
        <g transform="matrix(4.16667,0,0,4.16667,0,0)">
            <path d="M62.4,40.8C66.38,40.8 69.6,37.58 69.6,33.6C69.6,29.62 66.38,26.4 62.4,26.4C58.42,26.4 55.2,29.62 55.2,33.6C55.2,37.58 58.42,40.8 62.4,40.8ZM33.6,40.8C37.58,40.8 40.8,37.58 40.8,33.6C40.8,29.62 37.58,26.4 33.6,26.4C29.62,26.4 26.4,29.62 26.4,33.6C26.4,37.58 29.62,40.8 33.6,40.8ZM48,52.8C37.33,52.8 28.02,58.59 23.04,67.2L72.96,67.2C67.98,58.59 58.67,52.8 48,52.8Z" style="fill-rule:nonzero;"/>
        </g>
    </g>
</svg>
