<?xml version="1.0" encoding="utf-8"?>
<!-- Generator: Adobe Illustrator 27.4.0, SVG Export Plug-In . SVG Version: 6.00 Build 0)  -->
<svg version="1.1" id="Layer_2" xmlns="http://www.w3.org/2000/svg" xmlns:xlink="http://www.w3.org/1999/xlink" x="0px" y="0px"
	 viewBox="0 0 96 96" style="enable-background:new 0 0 96 96;" xml:space="preserve">
<style type="text/css">
	.st0{fill-rule:evenodd;clip-rule:evenodd;}
</style>
<path class="st0" d="M57.6,33.6H9.6c-2.65,0-4.8,2.15-4.8,4.8V86.4c0,2.65,2.15,4.8,4.8,4.8H57.6c2.65,0,4.8-2.15,4.8-4.8V38.4
	C62.4,35.75,60.25,33.6,57.6,33.6z M52.8,76.8L48,81.6L33.6,67.2L19.2,81.6l-4.8-4.8l14.4-14.4L14.4,48l4.8-4.8l14.4,14.4L48,43.2
	l4.8,4.8L38.4,62.4L52.8,76.8z"/>
<path class="st0" d="M72,19.2H19.2v7.2h50.4v50.4h7.2V24C76.8,21.35,74.65,19.2,72,19.2z"/>
<path class="st0" d="M86.4,4.8H33.6V12H84v50.4h7.2V9.6C91.2,6.95,89.05,4.8,86.4,4.8z"/>
</svg>
