<?xml version="1.0" encoding="utf-8"?>
<!-- Generator: Adobe Illustrator 27.4.0, SVG Export Plug-In . SVG Version: 6.00 Build 0)  -->
<svg version="1.1" id="icon" xmlns="http://www.w3.org/2000/svg" xmlns:xlink="http://www.w3.org/1999/xlink" x="0px" y="0px"
	 viewBox="0 0 400 400" style="enable-background:new 0 0 400 400;" xml:space="preserve">
<path d="M111.87,152.98c9.18-17.18,23.42-31.78,41.67-41.34l-23.02-55.57c-33.45,16.1-58.96,42.57-74.24,73.88L111.87,152.98z"/>
<path d="M171.2,104.42c19.61-5.93,39.9-5.52,58.44,0.24l23.02-55.57c-32.83-11.45-69.49-12.29-104.48-0.26L171.2,104.42z"/>
<path d="M247.23,112.01c17.05,9.12,31.56,23.2,41.12,41.26l55.58-23.02C327.82,97,301.44,71.64,270.26,56.42L247.23,112.01z"/>
<path d="M295.75,229.15l55.59,23.03c11.29-32.81,12.01-69.39-0.1-104.3l-55.58,23.02C301.66,190.42,301.36,210.64,295.75,229.15z"/>
<path d="M48.94,147.56c-11.5,32.97-12.3,69.79-0.11,104.92l55.58-23.02c-6.07-19.75-5.7-40.21,0.1-58.88L48.94,147.56z"/>
<path d="M288.51,246.79c-9.04,17.17-23.09,31.82-41.15,41.49l23.03,55.6c33.25-16.24,58.57-42.75,73.7-74.07L288.51,246.79z"/>
<path d="M229.76,295.66c-19.67,6.15-40.05,5.89-58.69,0.23l-23.03,55.59c32.95,11.34,69.7,12.02,104.74-0.25L229.76,295.66z"/>
<path d="M153.42,288.65c-17.3-9.1-32.03-23.3-41.7-41.56l-55.58,23.02c16.22,33.46,42.83,58.93,74.27,74.11L153.42,288.65z"/>
<path d="M273.95,169.56c-16.91-40.82-63.71-60.2-104.53-43.3c-40.82,16.91-60.2,63.71-43.3,104.53
	c16.91,40.82,63.71,60.2,104.53,43.3S290.85,210.38,273.95,169.56z M200,260c-33.14,0-60-26.86-60-60s26.86-60,60-60s60,26.86,60,60
	S233.14,260,200,260z"/>
</svg>
