<?xml version="1.0" encoding="utf-8"?>
<!-- Generator: Adobe Illustrator 27.4.0, SVG Export Plug-In . SVG Version: 6.00 Build 0)  -->
<svg version="1.1" xmlns="http://www.w3.org/2000/svg" xmlns:xlink="http://www.w3.org/1999/xlink" x="0px" y="0px"
	 viewBox="0 0 400 400" style="enable-background:new 0 0 400 400;" xml:space="preserve">
<g id="Layer_3">
	<path d="M180,300.02c0-22.09-17.91-40-40-40l-140,0l0,80l140,0l0,0C162.09,340.02,180,322.11,180,300.02z M160,300.02
		c0,11.05-8.95,20-20,20s-20-8.95-20-20c0-11.05,8.95-20,20-20S160,288.98,160,300.02z"/>
	<rect x="136.28" y="216.22" transform="matrix(0.7071 -0.7071 0.7071 0.7071 -107.3491 213.2806)" width="135" height="40"/>
	<path d="M293.93,146.07c-15.62-15.62-40.95-15.62-56.57,0s-15.62,40.95,0,56.57s40.95,15.62,56.57,0
		C309.55,187.01,309.55,161.69,293.93,146.07z M279.79,160.21c7.81,7.81,7.81,20.47,0,28.28c-7.81,7.81-20.47,7.81-28.28,0
		c-7.81-7.81-7.81-20.47,0-28.28C259.32,152.4,271.98,152.4,279.79,160.21z"/>
	<g>
		<path d="M378.79,117.78l-45.96,45.96h-39.11c3.51,9.3,2.24,19.99-3.82,28.28h57.08l3.54-3.54l10.61-10.61L400,138.99
			L378.79,117.78z"/>
		<path d="M322.22,61.21L301.01,40l-49.5,49.5v0l-3.54,3.54v57.08c8.29-6.06,18.98-7.33,28.28-3.82v-39.11L322.22,61.21z"/>
	</g>
</g>
<g id="Layer_2">
	<g id="toggle_00000003796461442717959090000016111378498880301219_">
		<g>
			<path d="M365,280.15v28.28l15,15v33.14L356.57,380h-33.14L300,356.57v-33.14l15-15v-28.28l-35,35v49.71L315.15,400h49.71
				L400,364.85v-49.71L365,280.15z M352,280h-24v80h24V280z"/>
		</g>
	</g>
</g>
</svg>
