<?xml version="1.0" encoding="UTF-8" standalone="no"?>
<!DOCTYPE svg PUBLIC "-//W3C//DTD SVG 1.1//EN" "http://www.w3.org/Graphics/SVG/1.1/DTD/svg11.dtd">
<svg width="100%" height="100%" viewBox="0 0 400 400" version="1.1" xmlns="http://www.w3.org/2000/svg" xmlns:xlink="http://www.w3.org/1999/xlink" xml:space="preserve" xmlns:serif="http://www.serif.com/" style="fill-rule:evenodd;clip-rule:evenodd;stroke-linejoin:round;stroke-miterlimit:2;">
    <g id="icon">
        <g>
            <path d="M60,140C93.115,140 120,166.885 120,200C120,233.115 93.115,260 60,260C26.885,260 0,233.115 0,200C0,166.885 26.885,140 60,140ZM60,160C37.923,160 20,177.923 20,200C20,222.077 37.923,240 60,240C82.077,240 100,222.077 100,200C100,177.923 82.077,160 60,160Z"/>
            <g transform="matrix(1,0,0,1,280,0)">
                <path d="M60,140C93.115,140 120,166.885 120,200C120,233.115 93.115,260 60,260C26.885,260 0,233.115 0,200C0,166.885 26.885,140 60,140ZM60,160C37.923,160 20,177.923 20,200C20,222.077 37.923,240 60,240C82.077,240 100,222.077 100,200C100,177.923 82.077,160 60,160Z"/>
            </g>
            <g transform="matrix(1,0,0,1,0,-5)">
                <rect x="60" y="190" width="280" height="30"/>
            </g>
        </g>
        <g transform="matrix(6.12323e-17,-1,1,6.12323e-17,0,400)">
            <path d="M60,140C93.115,140 120,166.885 120,200C120,233.115 93.115,260 60,260C26.885,260 0,233.115 0,200C0,166.885 26.885,140 60,140ZM60,160C37.923,160 20,177.923 20,200C20,222.077 37.923,240 60,240C82.077,240 100,222.077 100,200C100,177.923 82.077,160 60,160Z"/>
            <g transform="matrix(1,0,0,1,280,0)">
                <path d="M60,140C93.115,140 120,166.885 120,200C120,233.115 93.115,260 60,260C26.885,260 0,233.115 0,200C0,166.885 26.885,140 60,140ZM60,160C37.923,160 20,177.923 20,200C20,222.077 37.923,240 60,240C82.077,240 100,222.077 100,200C100,177.923 82.077,160 60,160Z"/>
            </g>
            <g transform="matrix(6.12323e-17,1,-1,6.12323e-17,400,-2.44929e-14)">
                <path d="M185,240L215,240L215,340L185,340L185,240ZM215,160L185,160L185,60L215,60L215,160Z"/>
            </g>
        </g>
    </g>
</svg>
