<?xml version="1.0" encoding="utf-8"?>
<!-- Generator: Adobe Illustrator 27.4.0, SVG Export Plug-In . SVG Version: 6.00 Build 0)  -->
<svg version="1.1" id="icon" xmlns="http://www.w3.org/2000/svg" xmlns:xlink="http://www.w3.org/1999/xlink" x="0px" y="0px"
	 viewBox="0 0 400 400" style="enable-background:new 0 0 400 400;" xml:space="preserve">
<path id="arm" d="M59.63,16.26L94.86,51.5v21.93c-4.96,1.36-9.65,3.98-13.55,7.88c-3.9,3.9-6.52,8.59-7.88,13.55H51.5L16.26,59.63
	L0,75.89l37.95,37.95h0l2.71,2.71h34.83c1.45,2.93,3.38,5.69,5.82,8.13c8.02,8.02,19.39,10.66,29.62,7.93l58.78,58.78
	c-0.67,2.53-1.04,5.18-1.04,7.92l0,200.68H230l0-200.68c0-16.94-13.73-30.66-30.66-30.66c-2.75,0-5.42,0.37-7.95,1.05l-58.77-58.77
	c2.73-10.23,0.09-21.59-7.93-29.62c-2.44-2.44-5.2-4.38-8.13-5.82V40.66l-2.71-2.71l-8.13-8.13L75.89,0L59.63,16.26z M214.67,199.32
	c0,8.47-6.86,15.33-15.33,15.33c-8.47,0-15.33-6.86-15.33-15.33c0-8.47,6.86-15.33,15.33-15.33
	C207.8,183.99,214.67,190.85,214.67,199.32z M113.84,92.15c5.99,5.99,5.99,15.7,0,21.68l0,0c-5.99,5.99-15.7,5.99-21.68,0
	c-5.99-5.99-5.99-15.7,0-21.68C98.14,86.16,107.85,86.16,113.84,92.15z"/>
<g id="cycle">
	<path d="M340,300c11.05,0,21.04,4.48,28.28,11.72l-14.14,14.14h42.43v-42.43l-14.15,14.15C371.56,286.72,356.57,280,340,280
		c-31.45,0-57.23,24.2-59.78,55h20.1C302.78,315.27,319.6,300,340,300z"/>
	<path d="M379.68,345c-2.46,19.73-19.28,35-39.68,35c-11.05,0-21.04-4.48-28.28-11.72l14.14-14.14h-42.43v42.43l14.15-14.15
		C308.44,393.28,323.43,400,340,400c31.45,0,57.23-24.2,59.78-55H379.68z"/>
</g>
</svg>
