<?xml version="1.0" encoding="utf-8"?>
<!-- Generator: Adobe Illustrator 27.4.0, SVG Export Plug-In . SVG Version: 6.00 Build 0)  -->
<svg version="1.1" id="icon" xmlns="http://www.w3.org/2000/svg" xmlns:xlink="http://www.w3.org/1999/xlink" x="0px" y="0px"
	 viewBox="0 0 400 400" style="enable-background:new 0 0 400 400;" xml:space="preserve">
<path d="M110,0v65L89.77,85.23C83.94,81.91,77.19,80,70,80c-7.19,0-13.94,1.91-19.77,5.23L30,65V0H0l0,70l0,0v5l32.13,32.13
	C30.76,111.17,30,115.5,30,120c0,14.8,8.05,27.72,20,34.64v100.73C38.05,262.28,30,275.2,30,290v110h80V290
	c0-14.8-8.05-27.72-20-34.64V154.64c11.95-6.92,20-19.83,20-34.64c0-4.5-0.76-8.83-2.13-12.87L140,75v-5V55V0H110z M70,310
	c-11.05,0-20-8.95-20-20c0-11.05,8.95-20,20-20s20,8.95,20,20C90,301.05,81.05,310,70,310z M70,140L70,140c-11.05,0-20-8.95-20-20
	c0-11.05,8.95-20,20-20c11.05,0,20,8.95,20,20C90,131.05,81.05,140,70,140z"/>
<path d="M370,0v65l-20.23,20.23C343.94,81.91,337.19,80,330,80c-7.19,0-13.94,1.91-19.77,5.23L290,65V0h-30l0,70l0,0v5l32.13,32.13
	c-1.37,4.04-2.13,8.37-2.13,12.87c0,14.8,8.05,27.72,20,34.64v100.73c-11.95,6.92-20,19.83-20,34.64v110h80V290
	c0-14.8-8.05-27.72-20-34.64V154.64c11.95-6.92,20-19.83,20-34.64c0-4.5-0.76-8.83-2.13-12.87L400,75v-5V55V0H370z M330,310
	c-11.05,0-20-8.95-20-20c0-11.05,8.95-20,20-20s20,8.95,20,20C350,301.05,341.05,310,330,310z M330,140L330,140
	c-11.05,0-20-8.95-20-20c0-11.05,8.95-20,20-20c11.05,0,20,8.95,20,20C350,131.05,341.05,140,330,140z"/>
<polygon points="100,200 160,140 160,180 240,180 240,140 300,200 240,260 240,220 160,220 160,260 "/>
</svg>
