<?xml version="1.0" encoding="utf-8"?>
<!-- Generator: Adobe Illustrator 27.4.0, SVG Export Plug-In . SVG Version: 6.00 Build 0)  -->
<svg version="1.1" id="icon" xmlns="http://www.w3.org/2000/svg" xmlns:xlink="http://www.w3.org/1999/xlink" x="0px" y="0px"
	 viewBox="0 0 400 400" style="enable-background:new 0 0 400 400;" xml:space="preserve">
<path id="arm" d="M324.11,0L294.3,29.81l-8.13,8.13l-2.71,2.71v34.83c-2.93,1.45-5.69,3.38-8.13,5.82
	c-8.02,8.02-10.66,19.39-7.93,29.62l-58.77,58.77c-2.54-0.68-5.2-1.05-7.95-1.05c-16.94,0-30.66,13.73-30.66,30.66L170,400h61.33
	l0-200.68c0-2.74-0.36-5.4-1.04-7.92l58.78-58.78c10.23,2.73,21.59,0.09,29.62-7.93c2.44-2.44,4.38-5.2,5.82-8.13h34.83l2.71-2.71h0
	L400,75.89l-16.26-16.26L348.5,94.86h-21.93c-1.36-4.96-3.98-9.65-7.88-13.55c-3.9-3.9-8.59-6.52-13.55-7.88V51.5l35.23-35.23
	L324.11,0z M200.66,183.99c8.47,0,15.33,6.86,15.33,15.33c0,8.47-6.86,15.33-15.33,15.33c-8.47,0-15.33-6.86-15.33-15.33
	C185.33,190.85,192.2,183.99,200.66,183.99z M307.85,92.15c5.99,5.99,5.99,15.7,0,21.68c-5.99,5.99-15.7,5.99-21.68,0l0,0
	c-5.99-5.99-5.99-15.7,0-21.68C292.15,86.16,301.86,86.16,307.85,92.15z"/>
<g id="cycle">
	<path d="M340.22,300c11.05,0,21.04,4.48,28.28,11.72l-14.14,14.14h42.43v-42.43l-14.15,14.15C371.79,286.72,356.79,280,340.22,280
		c-31.45,0-57.23,24.2-59.78,55h20.1C303.01,315.27,319.83,300,340.22,300z"/>
	<path d="M379.9,345c-2.46,19.73-19.28,35-39.68,35c-11.05,0-21.04-4.48-28.28-11.72l14.14-14.14h-42.43v42.43l14.15-14.15
		c10.85,10.86,25.85,17.58,42.42,17.58c31.45,0,57.23-24.2,59.78-55H379.9z"/>
</g>
</svg>
