<?xml version="1.0" encoding="utf-8"?>
<!-- Generator: Adobe Illustrator 27.4.0, SVG Export Plug-In . SVG Version: 6.00 Build 0)  -->
<svg version="1.1" id="laser" xmlns="http://www.w3.org/2000/svg" xmlns:xlink="http://www.w3.org/1999/xlink" x="0px" y="0px"
	 viewBox="0 0 400 400" style="enable-background:new 0 0 400 400;" xml:space="preserve">
<rect x="140" y="300" width="120" height="100"/>
<circle cx="200" cy="80" r="25"/>
<rect x="185" y="80" width="30" height="200"/>
<rect x="90" y="70" width="60" height="20"/>
<rect x="250" y="70" width="60" height="20"/>
<rect x="121.89" y="17.14" transform="matrix(0.7071 0.7071 -0.7071 0.7071 62.2918 -96.0965)" width="50.5" height="20"/>
<rect x="223.61" y="132.5" transform="matrix(0.7071 0.7071 -0.7071 0.7071 177.6472 -143.8783)" width="77.78" height="20"/>
<rect x="227.6" y="17.14" transform="matrix(-0.7071 0.7071 -0.7071 -0.7071 450.8453 -132.4568)" width="50.5" height="20"/>
<rect x="98.61" y="132.5" transform="matrix(-0.7071 0.7071 -0.7071 -0.7071 335.4899 146.0356)" width="77.78" height="20"/>
</svg>
