<?xml version="1.0" encoding="UTF-8" standalone="no"?>
<!DOCTYPE svg PUBLIC "-//W3C//DTD SVG 1.1//EN" "http://www.w3.org/Graphics/SVG/1.1/DTD/svg11.dtd">
<svg width="100%" height="100%" viewBox="0 0 400 400" version="1.1" xmlns="http://www.w3.org/2000/svg" xmlns:xlink="http://www.w3.org/1999/xlink" xml:space="preserve" xmlns:serif="http://www.serif.com/" style="fill-rule:evenodd;clip-rule:evenodd;stroke-linejoin:round;stroke-miterlimit:2;">
    <g transform="matrix(1,0,0,1,10,-10)">
        <g id="icon">
            <g transform="matrix(1,0,0,1,-10,10)">
                <path d="M290,60L350,80L350,100L160,290L140,290L110,320L100,320L80,300L80,290L110,260L110,240L290,60ZM220,200L190,190L200,220L220,200ZM320,100L290,90L210,170L240,180L320,100Z" style="fill:rgb(6,0,0);"/>
            </g>
            <g transform="matrix(1,0,0,1,10,-10)">
                <path d="M300,70L330,40L360,70L345,85L300,70Z"/>
            </g>
            <g transform="matrix(1,0,0,1,10,-10)">
                <path d="M50,340L60,350L20,390L20,370L50,340Z"/>
            </g>
        </g>
    </g>
</svg>
