<?xml version="1.0" encoding="utf-8"?>
<!-- Generator: Adobe Illustrator 27.4.0, SVG Export Plug-In . SVG Version: 6.00 Build 0)  -->
<svg version="1.1" id="icon" xmlns="http://www.w3.org/2000/svg" xmlns:xlink="http://www.w3.org/1999/xlink" x="0px" y="0px"
	 viewBox="0 0 400 400" style="enable-background:new 0 0 400 400;" xml:space="preserve">
<polygon points="280,200 340,140 340,180 380,180 380,220 340,220 340,260 "/>
<g>
	<path d="M263.92,140c-21.41-37.08-61.1-60-103.92-60C94.17,80,40,134.17,40,200s54.17,120,120,120c42.82,0,82.51-22.92,103.92-60
		L160,200L263.92,140z M135,140c0-13.81,11.19-25,25-25s25,11.19,25,25s-11.19,25-25,25S135,153.81,135,140z"/>
</g>
</svg>
