<?xml version="1.0" encoding="UTF-8" standalone="no"?>
<!DOCTYPE svg PUBLIC "-//W3C//DTD SVG 1.1//EN" "http://www.w3.org/Graphics/SVG/1.1/DTD/svg11.dtd">
<svg width="100%" height="100%" viewBox="0 0 400 400" version="1.1" xmlns="http://www.w3.org/2000/svg" xmlns:xlink="http://www.w3.org/1999/xlink" xml:space="preserve" xmlns:serif="http://www.serif.com/" style="fill-rule:evenodd;clip-rule:evenodd;stroke-linejoin:round;stroke-miterlimit:2;">
    <g transform="matrix(1.5,0,0,1.5,12.5,30)">
        <g id="icon">
            <g>
                <g transform="matrix(10,0,0,10,0,63.3333)">
                    <path d="M14.12,10L18.286,11.774L19,10L15.38,8.2L13.38,4.87C13.08,4.37 12.54,4.03 11.92,4.03C11.74,4.03 11.042,3.931 10.527,4.275L6.782,7.279L9.344,12.329L10.527,10.924L9.168,8L9.712,7.504L8.509,13L9.537,15L6,15L6,17L12,17L12,15L11,13L14,13L14,17L16,17L16,11L12.31,11.05L13.04,8.18M14,3.8C15,3.8 15.8,3 15.8,2C15.8,1 15,0.2 14,0.2C13,0.2 12.2,1 12.2,2C12.2,3 13,3.8 14,3.8Z" style="fill-rule:nonzero;"/>
                </g>
                <g transform="matrix(1,0,0,1,35,-13.3333)">
                    <path d="M60,30L80,30L80,0L100,0L100,30L120,30L90,60L60,30Z"/>
                </g>
            </g>
        </g>
    </g>
</svg>
