<?xml version="1.0" encoding="utf-8"?>
<!-- Generator: Adobe Illustrator 27.4.0, SVG Export Plug-In . SVG Version: 6.00 Build 0)  -->
<svg version="1.1" id="Layer_1" xmlns="http://www.w3.org/2000/svg" xmlns:xlink="http://www.w3.org/1999/xlink" x="0px" y="0px"
	 viewBox="0 0 24 24" style="enable-background:new 0 0 24 24;" xml:space="preserve">
<path d="M5.46,8.06l14.34,0v3.59l-0.9,0v0.9l-5.37,0c-0.49,0-0.89,0.4-0.9,0.9v0.9c0,0.99-0.8,1.8-1.8,1.8H7.8
	c-0.34,0-0.66,0.2-0.8,0.5l-2.2,4.39c-0.16,0.31-0.46,0.5-0.8,0.5H0.97c0,0-2.69,0,0.9-5.37c0,0,2.69-3.59-0.89-3.59l0-4.48h0.9
	l0.45-0.9l2.69,0L5.46,8.06 M11.73,14.34v-0.9c0-0.49-0.4-0.89-0.9-0.9h-0.9c0,0-0.9,0.9,0,1.8c-0.99,0-1.8-0.8-1.8-1.8
	c-0.49,0-0.89,0.4-0.9,0.9l0,0.9c0,0.49,0.4,0.89,0.9,0.9h2.69C11.33,15.24,11.73,14.84,11.73,14.34z"/>
<polygon points="21.6,10.2 24,7.8 24,12.6 "/>
<polygon points="18,14.4 20.4,16.8 15.6,16.8 "/>
<polygon points="7.2,6 4.8,3.6 9.6,3.6 "/>
</svg>
