<?xml version="1.0" encoding="utf-8"?>
<!-- Generator: Adobe Illustrator 27.4.0, SVG Export Plug-In . SVG Version: 6.00 Build 0)  -->
<svg version="1.1" id="icon" xmlns="http://www.w3.org/2000/svg" xmlns:xlink="http://www.w3.org/1999/xlink" x="0px" y="0px"
	 viewBox="0 0 400 400" style="enable-background:new 0 0 400 400;" xml:space="preserve">
<rect x="112.72" y="348.91" transform="matrix(-0.9659 -0.2588 0.2588 -0.9659 162.4421 775.2508)" width="39.07" height="56.04"/>
<path d="M65,320.63l38.64,10.35l46.59-173.87l0,0c-21.34-5.72-43.27,6.95-48.99,28.28L65,320.63z"/>
<g>
	<g>
		<circle cx="311.19" cy="110.2" r="50"/>
	</g>
	<rect x="201.36" y="173.64" transform="matrix(-0.9659 -0.2588 0.2588 -0.9659 437.1732 649.8448)" width="120" height="245"/>
	<path d="M323.76,372.39l38.64,10.35l36.23-135.23c5.72-21.34-6.95-43.27-28.28-48.99l0,0L323.76,372.39z"/>
	<path d="M130.57,320.63l38.64,10.35l46.59-173.87l0,0c-21.34-5.72-43.27,6.95-48.99,28.28L130.57,320.63z"/>
	<rect x="205.3" y="176.8" transform="matrix(-0.9659 -0.2588 0.2588 -0.9659 507.364 480.3893)" width="160" height="60"/>
	<g>
		<path d="M345.15,253.89c-5.33-1.43-10.82,1.74-12.25,7.07l2.59-9.66L345.15,253.89z"/>
		<path d="M345.15,253.89l9.66,2.59l-2.59,9.66C353.65,260.8,350.49,255.32,345.15,253.89z"/>
	</g>
	<g>
		<path d="M209.92,217.66c-5.33-1.43-10.82,1.74-12.25,7.07l2.59-9.66L209.92,217.66z"/>
		<path d="M209.92,217.66l9.66,2.59L217,229.9C218.43,224.57,215.26,219.09,209.92,217.66z"/>
	</g>
</g>
<g>
	<path d="M237.27,132.5c-5.67-1.62-11.65-2.5-17.84-2.5c-6.42,0-12.61,0.95-18.47,2.68c-5.33-10.58-6.95-23.07-3.64-35.41
		c6.32-23.6,28.52-38.7,52.03-36.91c-5.22,7.89-9.27,16.74-11.85,26.37C233.33,102.27,233.51,117.96,237.27,132.5z"/>
</g>
<rect x="47.55" y="350.18" transform="matrix(-0.9659 -0.2588 0.2588 -0.9659 34.166 759.6129)" width="39.07" height="54.75"/>
<path d="M0,320.63l38.64,10.35l46.59-173.87l0,0c-21.34-5.72-43.27,6.95-48.99,28.28L0,320.63z"/>
<g>
	<path d="M172.27,132.5c-5.67-1.62-11.65-2.5-17.84-2.5c-6.42,0-12.61,0.95-18.47,2.68c-5.33-10.58-6.95-23.07-3.64-35.41
		c6.32-23.6,28.52-38.7,52.03-36.91c-5.22,7.89-9.27,16.74-11.85,26.37C168.33,102.27,168.51,117.96,172.27,132.5z"/>
</g>
</svg>
