<?xml version="1.0" encoding="UTF-8" standalone="no"?>
<!DOCTYPE svg PUBLIC "-//W3C//DTD SVG 1.1//EN" "http://www.w3.org/Graphics/SVG/1.1/DTD/svg11.dtd">
<svg width="100%" height="100%" viewBox="0 0 400 400" version="1.1" xmlns="http://www.w3.org/2000/svg" xmlns:xlink="http://www.w3.org/1999/xlink" xml:space="preserve" xmlns:serif="http://www.serif.com/" style="fill-rule:evenodd;clip-rule:evenodd;stroke-linejoin:round;stroke-miterlimit:2;">
    <g>
        <g>
            <circle cx="88.81" cy="110.2" r="50"/>
            <path d="M47.771,266.144L76.24,372.39L37.6,382.74L1.37,247.51C-4.35,226.17 8.32,204.24 29.65,198.52L48.974,193.347L48.972,193.339L164.88,162.283L164.882,162.291L184.202,157.115L184.2,157.11C205.54,151.39 227.47,164.06 233.19,185.39L269.43,320.63L230.79,330.98L202.201,224.288C200.594,219.228 195.263,216.271 190.083,217.659L190.074,217.662C184.747,219.092 181.573,224.555 182.993,229.884L228.286,398.929L112.378,429.985L66.98,260.547C65.384,255.469 60.043,252.499 54.853,253.889L54.844,253.892C49.508,255.324 46.341,260.806 47.771,266.144Z"/>
        </g>
        <g>
            <path d="M162.73,132.5C168.4,130.88 174.38,130 180.57,130C186.99,130 193.18,130.95 199.04,132.68C204.37,122.1 205.99,109.61 202.68,97.27C196.36,73.67 174.16,58.57 150.65,60.36C155.87,68.25 159.92,77.1 162.5,86.73C166.67,102.27 166.49,117.96 162.73,132.5Z" style="fill-rule:nonzero;"/>
            <path d="M335,320.63L296.36,330.98L249.77,157.11C271.11,151.39 293.04,164.06 298.76,185.39L335,320.63Z" style="fill-rule:nonzero;"/>
            <g transform="matrix(0.9659,-0.2588,0.2588,0.9659,-88.434,82.1416)">
                <rect x="248.21" y="348.91" width="39.07" height="56.04"/>
            </g>
        </g>
        <g>
            <path d="M227.73,132.5C233.4,130.88 239.38,130 245.57,130C251.99,130 258.18,130.95 264.04,132.68C269.37,122.1 270.99,109.61 267.68,97.27C261.36,73.67 239.16,58.57 215.65,60.36C220.87,68.25 224.92,77.1 227.5,86.73C231.67,102.27 231.49,117.96 227.73,132.5Z" style="fill-rule:nonzero;"/>
            <path d="M400,320.63L361.36,330.98L314.77,157.11C336.11,151.39 358.04,164.06 363.76,185.39L400,320.63Z" style="fill-rule:nonzero;"/>
            <g transform="matrix(0.9659,-0.2588,0.2588,0.9659,-86.3752,99.0295)">
                <rect x="313.38" y="350.18" width="39.07" height="54.75"/>
            </g>
        </g>
    </g>
</svg>
