<?xml version="1.0" encoding="UTF-8" standalone="no"?>
<!DOCTYPE svg PUBLIC "-//W3C//DTD SVG 1.1//EN" "http://www.w3.org/Graphics/SVG/1.1/DTD/svg11.dtd">
<svg width="100%" height="100%" viewBox="0 0 400 400" version="1.1" xmlns="http://www.w3.org/2000/svg" xmlns:xlink="http://www.w3.org/1999/xlink" xml:space="preserve" xmlns:serif="http://www.serif.com/" style="fill-rule:evenodd;clip-rule:evenodd;stroke-linejoin:round;stroke-miterlimit:2;">
    <g transform="matrix(1.17595,0,0,1.17595,-36.2105,-69.3812)">
        <g id="icon">
            <g transform="matrix(0.780839,0,0,0.780839,90.1269,-34.7007)">
                <g transform="matrix(1.28067,0,0,1.28067,-159.866,44.4403)">
                    <path d="M246.841,79.159C251.795,70.204 260.238,63.193 270.895,60.338C291.709,54.761 313.135,67.131 318.712,87.945C323.367,105.317 315.518,123.116 300.693,131.77C297.389,103.878 274.922,81.825 246.841,79.159Z"/>
                </g>
                <g transform="matrix(1.28067,0,0,1.28067,-159.866,44.4403)">
                    <path d="M299.507,152.718L343.469,152.717L343.469,152.707C360.713,152.711 374.701,166.691 374.699,183.942L374.703,293.259L361.008,293.26L361.008,228.889C361.008,195.774 334.123,168.889 301.008,168.889C298.204,168.889 295.444,169.081 292.742,169.454C295.791,164.319 298.096,158.69 299.507,152.718Z"/>
                </g>
            </g>
            <g transform="matrix(0.780839,0,0,0.780839,49.0156,6.41061)">
                <g transform="matrix(1.28067,0,0,1.28067,-107.216,-8.2099)">
                    <path d="M205.73,120.271C210.684,111.315 219.127,104.305 229.784,101.449C250.598,95.872 272.023,108.242 277.6,129.056C282.255,146.429 274.407,164.228 259.581,172.881C256.278,144.99 233.811,122.936 205.73,120.271Z"/>
                </g>
                <g transform="matrix(1.28067,0,0,1.28067,-107.216,-8.2099)">
                    <path d="M258.396,193.829L302.358,193.828L302.358,193.819C319.601,193.822 333.59,207.802 333.588,225.053L333.592,334.37L319.897,334.371L319.897,270C319.897,236.885 293.011,210 259.897,210C257.092,210 254.333,210.193 251.631,210.566C254.68,205.43 256.985,199.801 258.396,193.829Z"/>
                </g>
            </g>
            <g transform="matrix(0.780839,0,0,0.780839,9.12695,46.2993)">
                <g transform="matrix(1,0,0,1,-19.4198,115.674)">
                    <path d="M206.482,6.039C233.137,-1.103 260.577,14.739 267.719,41.395C274.861,68.05 259.019,95.49 232.364,102.632C205.708,109.774 178.269,93.932 171.126,67.276C163.984,40.621 179.826,13.182 206.482,6.039Z"/>
                </g>
                <g transform="matrix(1,0,0,1,-19.4204,115.674)">
                    <path d="M159.423,194.317C159.415,188.877 155.051,184.457 149.626,184.347L149.204,184.347C143.934,184.455 139.66,188.652 139.424,193.891L139.423,304.34L99.42,304.343L99.423,164.332C99.427,142.248 117.331,124.334 139.424,124.336L139.432,124.349L299.426,124.347L299.426,124.334C321.509,124.339 339.424,142.242 339.422,164.336L339.426,304.335L299.424,304.338L299.415,194.343C299.414,188.925 295.12,184.518 289.744,184.345L289.085,184.345C283.888,184.513 279.687,188.657 279.425,193.831L279.411,337.301L159.415,337.303L159.423,194.335L159.423,194.317Z"/>
                </g>
            </g>
        </g>
    </g>
</svg>
