<?xml version="1.0" encoding="utf-8"?>
<!-- Generator: Adobe Illustrator 27.4.0, SVG Export Plug-In . SVG Version: 6.00 Build 0)  -->
<svg version="1.1" id="icon" xmlns="http://www.w3.org/2000/svg" xmlns:xlink="http://www.w3.org/1999/xlink" x="0px" y="0px"
	 viewBox="0 0 400 400" style="enable-background:new 0 0 400 400;" xml:space="preserve">
<rect x="248.21" y="348.91" transform="matrix(0.9659 -0.2588 0.2588 0.9659 -88.434 82.1416)" width="39.07" height="56.04"/>
<path d="M335,320.63l-38.64,10.35l-46.59-173.87l0,0c21.34-5.72,43.27,6.95,48.99,28.28L335,320.63z"/>
<g>
	<g>
		<circle cx="88.81" cy="110.2" r="50"/>
	</g>
	<rect x="78.64" y="173.64" transform="matrix(0.9659 -0.2588 0.2588 0.9659 -71.924 45.9726)" width="120" height="245"/>
	<path d="M76.24,372.39l-38.64,10.35L1.37,247.51c-5.72-21.34,6.95-43.27,28.28-48.99l0,0L76.24,372.39z"/>
	<path d="M269.43,320.63l-38.64,10.35l-46.59-173.87l0,0c21.34-5.72,43.27,6.95,48.99,28.28L269.43,320.63z"/>
	<rect x="34.7" y="176.8" transform="matrix(0.9659 -0.2588 0.2588 0.9659 -49.6147 36.7319)" width="160" height="60"/>
	<g>
		<path d="M54.85,253.89c5.33-1.43,10.82,1.74,12.25,7.07l-2.59-9.66L54.85,253.89z"/>
		<path d="M54.85,253.89l-9.66,2.59l2.59,9.66C46.35,260.8,49.51,255.32,54.85,253.89z"/>
	</g>
	<g>
		<path d="M190.08,217.66c5.33-1.43,10.82,1.74,12.25,7.07l-2.59-9.66L190.08,217.66z"/>
		<path d="M190.08,217.66l-9.66,2.59l2.59,9.66C181.57,224.57,184.74,219.09,190.08,217.66z"/>
	</g>
</g>
<g>
	<path d="M162.73,132.5c5.67-1.62,11.65-2.5,17.84-2.5c6.42,0,12.61,0.95,18.47,2.68c5.33-10.58,6.95-23.07,3.64-35.41
		c-6.32-23.6-28.52-38.7-52.03-36.91c5.22,7.89,9.27,16.74,11.85,26.37C166.67,102.27,166.49,117.96,162.73,132.5z"/>
</g>
<rect x="313.38" y="350.18" transform="matrix(0.9659 -0.2588 0.2588 0.9659 -86.3752 99.0295)" width="39.07" height="54.75"/>
<path d="M400,320.63l-38.64,10.35l-46.59-173.87l0,0c21.34-5.72,43.27,6.95,48.99,28.28L400,320.63z"/>
<g>
	<path d="M227.73,132.5c5.67-1.62,11.65-2.5,17.84-2.5c6.42,0,12.61,0.95,18.47,2.68c5.33-10.58,6.95-23.07,3.64-35.41
		c-6.32-23.6-28.52-38.7-52.03-36.91c5.22,7.89,9.27,16.74,11.85,26.37C231.67,102.27,231.49,117.96,227.73,132.5z"/>
</g>
</svg>
