<?xml version="1.0" encoding="utf-8"?>
<!-- Generator: Adobe Illustrator 27.4.0, SVG Export Plug-In . SVG Version: 6.00 Build 0)  -->
<svg version="1.1" id="icon" xmlns="http://www.w3.org/2000/svg" xmlns:xlink="http://www.w3.org/1999/xlink" x="0px" y="0px"
	 viewBox="0 0 400 400" style="enable-background:new 0 0 400 400;" xml:space="preserve">
<rect x="100" y="340" width="200" height="30"/>
<polygon points="200,130 180,195 110,150 160,220 80,250 180,250 220,250 320,250 240,220 290,150 220,195 "/>
<g>
	<polygon points="250,265 250,290 150,290 150,265 120,265 120,320 280,320 280,265 	"/>
	<polygon points="280,218.98 280,189.81 263.56,212.82 	"/>
	<polygon points="120,189.81 120,218.98 136.44,212.82 	"/>
	<polygon points="100,80 100,110 120,110 120,138.6 150,157.88 150,110 250,110 250,157.88 280,138.6 280,110 300,110 300,80 	"/>
</g>
<polygon points="250,60 150,60 170,30 230,30 "/>
</svg>
