<?xml version="1.0" encoding="UTF-8" standalone="no"?>
<!DOCTYPE svg PUBLIC "-//W3C//DTD SVG 1.1//EN" "http://www.w3.org/Graphics/SVG/1.1/DTD/svg11.dtd">
<svg width="100%" height="100%" viewBox="0 0 400 400" version="1.1" xmlns="http://www.w3.org/2000/svg" xmlns:xlink="http://www.w3.org/1999/xlink" xml:space="preserve" xmlns:serif="http://www.serif.com/" style="fill-rule:evenodd;clip-rule:evenodd;stroke-linejoin:round;stroke-miterlimit:2;">
    <g transform="matrix(1,0,0,1,20,0)">
        <g id="icon">
            <path d="M208.33,228.24C201.09,235.5 191.07,240 180,240C157.91,240 140,222.09 140,200C140,177.91 157.91,160 180,160C181,160 181.98,160.05 182.96,160.12L214.16,43.68C203.15,41.28 191.73,40 180,40C91.63,40 20,111.63 20,200C20,222.19 24.52,243.33 32.69,262.54L291.86,314.37C299.8,306.6 306.94,298.01 313.14,288.74L208.33,228.24Z" style="fill-rule:nonzero;"/>
            <path d="M245.126,76.06C239.682,73.199 234.028,70.689 228.2,68.55L233.4,49.16C237.98,50.78 242.467,52.601 246.847,54.613L246.848,54.612C247.121,54.738 247.393,54.864 247.665,54.992C254.238,58.057 260.57,61.556 266.62,65.46C266.615,65.465 266.611,65.47 266.606,65.475C298.843,86.283 323.136,118.36 333.896,156.115C333.898,156.113 333.899,156.112 333.9,156.11C336.918,166.715 338.873,177.766 339.637,189.143C339.878,192.731 340,196.351 340,200C340,203.624 339.879,207.219 339.642,210.783C338.196,232.472 332.423,252.975 323.19,271.45L305.83,261.43C313.193,246.371 317.94,229.803 319.465,212.308C319.819,208.253 320,204.147 320,200C320,194.14 319.63,188.36 318.93,182.69C318.932,182.685 318.934,182.68 318.936,182.675C313.205,136.319 284.775,96.954 245.126,76.06Z"/>
            <circle cx="180" cy="200" r="20"/>
            <path d="M24.32,284.86L8.49,321.7L300,380L296.88,339.38L24.32,284.86Z" style="fill-rule:nonzero;"/>
        </g>
    </g>
</svg>
