<?xml version="1.0" encoding="utf-8"?>
<!-- Generator: Adobe Illustrator 27.4.0, SVG Export Plug-In . SVG Version: 6.00 Build 0)  -->
<svg version="1.1" id="icon" xmlns="http://www.w3.org/2000/svg" xmlns:xlink="http://www.w3.org/1999/xlink" x="0px" y="0px"
	 viewBox="0 0 400 400" style="enable-background:new 0 0 400 400;" xml:space="preserve">
<rect x="180.86" y="-21.27" transform="matrix(0.7071 -0.7071 0.7071 0.7071 -87.8427 197.9289)" width="28.28" height="452.55"/>
<g>
	<path d="M181.99,131.99l73.12,73.12l2.96-2.96l-8.6-8.6l12.9-12.9l38.71,21.51l8.6,8.6l-24.46,24.46l8.6,8.6l28.76-28.76l4.3-21.51
		l30.11,12.9l21.51-47.31c0,0-30.11-4.3-60.22-25.81v-8.6c0,0-8.6-25.81,4.3-38.71l47.31-47.31l-8.6-8.6l8.6-8.6L348.39,0l-8.6,8.6
		l-8.6-8.6l-21.51,21.51l-12.9-4.3l-12.9,12.9l-8.6-8.6l-8.6,8.6l8.6,8.6L181.99,131.99z"/>
	<path d="M263.2,253.2c-1.5,0.34-3.2,0.56-5.14,0.56l-8.6-8.6l-2.85-8.55l-84.62-84.62l-2.85,2.85l-4.3,4.3l-12.9-12.9l-4.3,4.3
		l8.6,8.6l-4.3,4.3l4.3,4.3v8.6l-12.9,12.9l8.6,8.6c-12.9,12.9-17.2,34.41-43.01,60.22l-43.01,43.01h-8.6l-25.81,25.81l4.3,4.3
		l47.31,30.11L103.23,400l21.51-21.51c0,0-55.91-47.31,55.91-141.94l12.9-12.9l17.2,8.6l12.9,55.91l38.71-12.9l11.45-11.45
		L263.2,253.2z"/>
</g>
</svg>
