<?xml version="1.0" encoding="utf-8"?>
<!-- Generator: Adobe Illustrator 27.4.0, SVG Export Plug-In . SVG Version: 6.00 Build 0)  -->
<svg version="1.1" id="bag" xmlns="http://www.w3.org/2000/svg" xmlns:xlink="http://www.w3.org/1999/xlink" x="0px" y="0px"
	 viewBox="0 0 400 400" style="enable-background:new 0 0 400 400;" xml:space="preserve">
<style type="text/css">
	.st0{display:none;fill:#FFFFFF;}
</style>
<rect x="130" y="50" class="st0" width="20" height="240"/>
<rect x="250" y="50" class="st0" width="20" height="240"/>
<path d="M250,20H150c-9.67,0-20,8.95-20,20v20h20V40h100v20h20V40C270,28.95,259.67,20,250,20z"/>
<path d="M300,60H100c-11.05,0-20,8.95-20,20v280c0,11.05,8.95,20,20,20h200c11.05,0,20-8.95,20-20V80C320,68.95,311.05,60,300,60z
	 M170,120h60v40h-60V120z M300,290h-30v40h-50v-40h-40v40h-50v-40h-30v-30h200V290z M300,230H100v-30h200V230z"/>
</svg>
