<?xml version="1.0" encoding="UTF-8" standalone="no"?>
<!DOCTYPE svg PUBLIC "-//W3C//DTD SVG 1.1//EN" "http://www.w3.org/Graphics/SVG/1.1/DTD/svg11.dtd">
<svg width="100%" height="100%" viewBox="0 0 400 400" version="1.1" xmlns="http://www.w3.org/2000/svg" xmlns:xlink="http://www.w3.org/1999/xlink" xml:space="preserve" xmlns:serif="http://www.serif.com/" style="fill-rule:evenodd;clip-rule:evenodd;stroke-linejoin:round;stroke-miterlimit:2;">
    <g transform="matrix(1.24224,0,0,1.24224,-172.05,19.7516)">
        <g id="icon">
            <g>
                <g transform="matrix(10,0,0,10,160,0)">
                    <path d="M16.5,5.5C17.597,5.5 18.5,4.597 18.5,3.5C18.5,2.403 17.597,1.5 16.5,1.5C15.403,1.5 14.5,2.403 14.5,3.5C14.5,4.597 15.403,5.5 16.5,5.5M12.9,19.4L13.9,15L17,16L17,22L19,22L19,14.5L15.9,13.5L16.5,10.5C18.042,11.599 19.89,12 22,12L22,10C20.24,10.03 18.837,9.619 17.7,8.6L16.7,7C16.34,6.4 15.7,6 15,6C14.7,6 14.5,6.1 14.2,6.1L9,8.3L9,13L11,13L11,9.6L12.8,8.9L11.2,17L6.3,16L5.9,18L12.9,19.4" style="fill-rule:nonzero;"/>
                </g>
                <g transform="matrix(6.12323e-16,-10,10,6.12323e-16,167,170)">
                    <path d="M-10,14.25C-10.549,14.25 -11,13.799 -11,13.25C-11,12.701 -10.549,12.25 -10,12.25L-5,12.25L-5,14.25L-10,14.25M-9,10.25C-9.549,10.25 -10,9.799 -10,9.25C-10,8.701 -9.549,8.25 -9,8.25L-4,8.25L-4,10.25L-9,10.25M-11,18.25C-11.549,18.25 -12,17.799 -12,17.25C-12,16.701 -11.549,16.25 -11,16.25L-7,16.25L-7,18.25L-11,18.25Z" style="fill-rule:nonzero;"/>
                </g>
            </g>
        </g>
    </g>
</svg>
