<?xml version="1.0" encoding="utf-8"?>
<!-- Generator: Adobe Illustrator 27.4.0, SVG Export Plug-In . SVG Version: 6.00 Build 0)  -->
<svg version="1.1" id="icon" xmlns="http://www.w3.org/2000/svg" xmlns:xlink="http://www.w3.org/1999/xlink" x="0px" y="0px"
	 viewBox="0 0 400 400" style="enable-background:new 0 0 400 400;" xml:space="preserve">
<path d="M380,155v-10h-25l-5-10h-15v-10h-10v10H195h-5h-5v-15h-5v10h-5v5l-5,5h-15v10c-15,0-30,10-60,10H45l-5-5H10v5l10,45l-5,40
	h25c0,0-5-60,115-50h15l5,15l-25,40l30,15h70l15-10l10,25l40-15c0,0-15-20-20-50l5-5c0,0,10-20,25-20h55v-10h10v-25H380z M245,255
	h-45c0,0-5,0-10-5v-10l10-20h20v-10h15l10,35V255z"/>
</svg>
