<?xml version="1.0" encoding="utf-8"?>
<!-- Generator: Adobe Illustrator 27.4.0, SVG Export Plug-In . SVG Version: 6.00 Build 0)  -->
<svg version="1.1" id="icon" xmlns="http://www.w3.org/2000/svg" xmlns:xlink="http://www.w3.org/1999/xlink" x="0px" y="0px"
	 viewBox="0 0 400 400" style="enable-background:new 0 0 400 400;" xml:space="preserve">
<path d="M0,344.09L55.91,400l8.6-8.6l-4.3-4.3l8.6-8.6L90.32,400l12.9-12.9c0,0-25.81-25.81,0-51.61
	c25.81-25.81,47.31-4.3,47.31-4.3l12.9,12.9l47.31-12.9l12.9-21.51l60.22-34.41l-21.51-38.71l25.81-25.81l-4.3-12.9l25.81-25.81h8.6
	l51.61-51.61L400,90.32l-8.6-8.6l-4.3,4.3l-8.6-8.6l4.3-4.3l-8.6-8.6l4.3-4.3l-8.6-8.6l-47.31,47.31h-8.6l-51.61,51.61h-8.6
	L361.29,43.01l-8.6-8.6l-17.2,17.2l-4.3,4.3l-8.6-8.6l4.3-4.3l17.2-17.2l-8.6-8.6l-8.6,8.6l-77.42,77.42v-17.2l-60.22,60.22v-17.2
	l-86.02,86.02l-8.6,25.81l-43.01,43.01l4.3,4.3L0,344.09z M313.98,73.12l-8.6-8.6l12.9-12.9l8.6,8.6L313.98,73.12z M296.77,90.32
	l-8.6-8.6l12.9-12.9l8.6,8.6L296.77,90.32z M279.57,107.53l-8.6-8.6l12.9-12.9l8.6,8.6L279.57,107.53z M262.37,124.73l-8.6-8.6
	l12.9-12.9l8.6,8.6L262.37,124.73z M245.16,141.94l-8.6-8.6l12.9-12.9l8.6,8.6L245.16,141.94z M227.96,159.14l-8.6-8.6l12.9-12.9
	l8.6,8.6L227.96,159.14z M253.76,219.35l4.3-4.3l4.3,4.3h8.6l-8.6-8.6l12.9-12.9l4.3,12.9l-8.6,8.6l-8.6,8.6L253.76,219.35z
	 M202.15,167.74l12.9-12.9l8.6,8.6l-12.9,12.9L202.15,167.74z M219.35,279.57l-4.3-21.51l17.2-17.2c17.2,0,12.9,21.51,12.9,21.51
	v8.6l-21.51,12.9L219.35,279.57z"/>
</svg>
