<?xml version="1.0" encoding="utf-8"?>
<!-- Generator: Adobe Illustrator 27.4.0, SVG Export Plug-In . SVG Version: 6.00 Build 0)  -->
<svg version="1.1" id="Layer_1" xmlns="http://www.w3.org/2000/svg" xmlns:xlink="http://www.w3.org/1999/xlink" x="0px" y="0px"
	 viewBox="0 0 24 24" style="enable-background:new 0 0 24 24;" xml:space="preserve">
<path d="M7.06,10.54L17.6,0l2.64,2.64l-0.66,0.66l0.66,0.66l-3.95,3.95c-0.36,0.36-0.36,0.95,0,1.32l0.66,0.66
	c0.73,0.73,0.73,1.91,0,2.64l-2.23,2.23c-0.25,0.25-0.34,0.63-0.22,0.96l1.61,4.84c0.11,0.34,0.03,0.7-0.22,0.95l-2.23,2.23
	c0,0-1.98,1.98-3.29-4.61c0,0-0.66-4.61-3.29-1.98l-3.29-3.29l0.66-0.66l-0.33-0.99l1.98-1.98L7.06,10.54 M16.28,10.54l-0.66-0.66
	c-0.36-0.36-0.95-0.36-1.32,0l-0.66,0.66c0,0,0,1.32,1.32,1.32c-0.73,0.73-1.91,0.73-2.64,0c-0.36,0.36-0.36,0.95,0,1.32l0.66,0.66
	c0.36,0.36,0.95,0.36,1.32,0l1.98-1.98C16.65,11.5,16.65,10.91,16.28,10.54z"/>
</svg>
