<?xml version="1.0" encoding="UTF-8" standalone="no"?>
<!DOCTYPE svg PUBLIC "-//W3C//DTD SVG 1.1//EN" "http://www.w3.org/Graphics/SVG/1.1/DTD/svg11.dtd">
<svg width="100%" height="100%" viewBox="0 0 400 400" version="1.1" xmlns="http://www.w3.org/2000/svg" xmlns:xlink="http://www.w3.org/1999/xlink" xml:space="preserve" xmlns:serif="http://www.serif.com/" style="fill-rule:evenodd;clip-rule:evenodd;stroke-linejoin:round;stroke-miterlimit:2;">
    <g id="icon">
        <path d="M160,165.402L160,155.349L110,90L120,20C120,11.721 126.721,5 135,5C143.279,5 150,11.721 150,20C150,21.709 149.714,23.351 149.186,24.882L140,80L175,120L260,120C276.557,120 290,133.443 290,150L290,175.563C280.029,171.506 269.956,168.461 260,166.228L260,160C260,154.481 255.519,150 250,150C244.481,150 240,154.481 240,160L240,162.742C207.765,158.66 178.438,162.02 160,165.402ZM290,225.689L290,240C290,248.279 283.279,255 275,255C266.721,255 260,248.279 260,240L260,216.075C272.677,219.28 283.013,222.93 290,225.689ZM240,211.876L240,233.064L272.276,300L238.613,366.329L238.603,366.325C236.216,371.447 231.019,375 225,375C216.721,375 210,368.279 210,360C210,357.176 210.782,354.533 212.141,352.277L240,300L210,240L190,240L190,380C190,388.279 183.279,395 175,395C166.721,395 160,388.279 160,380L160,213.786C188.649,206.834 216.656,207.978 240,211.876Z"/>
        <g transform="matrix(1,0,0,1,10,0)">
            <circle cx="190" cy="70" r="30"/>
        </g>
        <path d="M110,220L120,240L74.961,225.289L90,180L100,200C209.481,139.983 320,200 320,200L310,220C194.229,164.437 110,220 110,220Z"/>
    </g>
</svg>
