<?xml version="1.0" encoding="UTF-8" standalone="no"?>
<!DOCTYPE svg PUBLIC "-//W3C//DTD SVG 1.1//EN" "http://www.w3.org/Graphics/SVG/1.1/DTD/svg11.dtd">
<svg width="100%" height="100%" viewBox="0 0 400 400" version="1.1" xmlns="http://www.w3.org/2000/svg" xmlns:xlink="http://www.w3.org/1999/xlink" xml:space="preserve" xmlns:serif="http://www.serif.com/" style="fill-rule:evenodd;clip-rule:evenodd;stroke-linejoin:round;stroke-miterlimit:2;">
    <g id="icon">
        <g transform="matrix(6.12323e-17,-1,1,6.12323e-17,-1.21882,398.781)">
            <path d="M92.927,209.655L92.927,161.139C92.927,161.139 72.344,137.616 66.464,125.854C60.583,114.093 57.642,81.748 57.642,81.748L40,55.285L145.854,20L331.099,90.569L356.852,182.648C356.888,182.774 356.923,182.9 356.958,183.026C359.478,192.431 353.888,202.113 344.483,204.633C335.078,207.154 325.396,201.564 322.875,192.158L301.734,115.053L301.693,115.088L260.505,104.132L251.708,119.666L251.138,119.774L286.993,129.365L312.641,217.59C312.713,217.831 312.784,218.074 312.852,218.318C315.372,227.723 309.782,237.405 300.377,239.925C290.972,242.445 281.29,236.855 278.77,227.45L260.505,159.285L260.906,158.832L172.318,134.675C172.318,134.675 138.321,130.708 137.033,161.139C136.027,184.915 136.593,201.155 136.889,207.121C136.984,207.952 137.033,208.798 137.033,209.655C137.033,221.827 127.151,231.708 114.98,231.708C102.809,231.708 92.927,221.827 92.927,209.655Z"/>
        </g>
        <g transform="matrix(6.12323e-17,-1,1,6.12323e-17,-1.33227e-15,360)">
            <path d="M160,320L200,320L200,260L240,260L240,320L280,320L220,380L160,320Z"/>
        </g>
    </g>
</svg>
