<?xml version="1.0" encoding="UTF-8" standalone="no"?>
<!DOCTYPE svg PUBLIC "-//W3C//DTD SVG 1.1//EN" "http://www.w3.org/Graphics/SVG/1.1/DTD/svg11.dtd">
<svg width="100%" height="100%" viewBox="0 0 400 400" version="1.1" xmlns="http://www.w3.org/2000/svg" xmlns:xlink="http://www.w3.org/1999/xlink" xml:space="preserve" xmlns:serif="http://www.serif.com/" style="fill-rule:evenodd;clip-rule:evenodd;stroke-linejoin:round;stroke-miterlimit:2;">
    <g id="icon">
        <g transform="matrix(-0.687952,-8.42498e-17,8.42498e-17,-0.687952,314.798,375.181)">
            <path d="M339.78,8.6L331.18,0L309.67,21.51L296.77,17.21L283.87,30.11L275.27,21.51L266.67,30.11L275.27,38.71L154.84,159.14L141.94,146.24L137.64,150.54L146.24,159.14L141.94,163.44L146.24,167.74L146.24,176.34L133.34,189.24L141.94,197.84C129.04,210.74 124.74,232.25 98.93,258.06L55.92,301.07L47.32,301.07L21.51,326.88L25.81,331.18L73.12,361.29L103.23,400L124.74,378.49C124.74,378.49 68.83,331.18 180.65,236.55L193.55,223.65L210.75,232.25L223.65,288.16L262.36,275.26L322.58,215.04L326.88,193.53L356.99,206.43L378.5,159.12C378.5,159.12 348.39,154.82 318.28,133.31L318.28,124.71C318.28,124.71 309.68,98.9 322.58,86L369.89,38.69L361.29,30.09L369.89,21.49L348.39,0L339.78,8.6ZM309.68,210.75L270.97,249.46C270.97,249.46 266.67,253.76 258.07,253.76L249.47,245.16L240.87,219.35L258.07,202.15L249.47,193.55L262.37,180.65L301.08,202.16L309.68,210.75Z" style="fill-rule:nonzero;"/>
        </g>
        <path d="M360,40L280,90L310,120L360,40Z"/>
        <path d="M360,80L320,240L360,240L360,80Z"/>
        <path d="M320,40L160,40L160,80L320,40Z"/>
    </g>
</svg>
