<?xml version="1.0" encoding="utf-8"?>
<!-- Generator: Adobe Illustrator 27.4.0, SVG Export Plug-In . SVG Version: 6.00 Build 0)  -->
<svg version="1.1" id="icon" xmlns="http://www.w3.org/2000/svg" xmlns:xlink="http://www.w3.org/1999/xlink" x="0px" y="0px"
	 viewBox="0 0 400 400" style="enable-background:new 0 0 400 400;" xml:space="preserve">
<g>
	<path d="M335.63,335.26L209.57,378.9l-17.93,6.21l-7.14-17.58c-0.17-0.43-1.38-3.42-3.34-8.64c-7.17-0.84-14.2-2.14-21.05-3.9
		v41.03C173,398.63,186.34,400,200,400c61.09,0,115.76-27.39,152.45-70.56L335.63,335.26z"/>
	<path d="M203.15,359.96c-0.04,0-0.09,0-0.13,0c0.01,0.02,0.02,0.04,0.02,0.04L203.15,359.96z"/>
	<g>
		<path d="M300,26.78c-17.21-9.95-36.03-17.43-55.98-21.91c-0.05-0.01-0.11-0.02-0.16-0.03c-1.85-0.41-3.71-0.8-5.58-1.16
			c-0.28-0.05-0.56-0.11-0.84-0.16c-1.74-0.33-3.49-0.64-5.25-0.92c-0.23-0.04-0.47-0.08-0.7-0.12c-3.93-0.62-7.9-1.13-11.9-1.52
			c-0.45-0.04-0.9-0.08-1.35-0.12c-1.49-0.13-2.98-0.25-4.48-0.36c-0.61-0.04-1.23-0.08-1.84-0.12c-1.41-0.08-2.83-0.15-4.25-0.2
			c-0.58-0.02-1.16-0.05-1.75-0.07C203.95,0.04,201.98,0,200,0c-1.56,0-3.11,0.02-4.66,0.06c-0.47,0.01-0.94,0.03-1.41,0.04
			c-1.12,0.03-2.24,0.08-3.36,0.13c-0.48,0.02-0.97,0.04-1.45,0.07c-1.33,0.07-2.66,0.16-3.99,0.25c-0.21,0.02-0.42,0.03-0.63,0.04
			c-1.5,0.12-3,0.25-4.5,0.4c-0.48,0.05-0.96,0.1-1.44,0.15c-1.05,0.11-2.1,0.23-3.14,0.36c-0.54,0.07-1.07,0.13-1.6,0.2
			c-1.11,0.15-2.23,0.3-3.33,0.47c-0.39,0.06-0.79,0.11-1.18,0.17c-1.42,0.22-2.84,0.46-4.25,0.7c-0.54,0.1-1.08,0.2-1.62,0.3
			c-0.93,0.17-1.86,0.35-2.79,0.53c-0.61,0.12-1.22,0.25-1.83,0.37c-0.9,0.19-1.8,0.39-2.7,0.59c-0.56,0.13-1.13,0.25-1.69,0.38
			c-1.32,0.31-2.64,0.63-3.95,0.96c-0.64,0.16-1.28,0.34-1.92,0.51c-0.76,0.2-1.53,0.41-2.29,0.62c-0.71,0.2-1.41,0.4-2.11,0.6
			c-0.7,0.2-1.39,0.41-2.08,0.62c-0.71,0.22-1.43,0.43-2.14,0.65c-0.83,0.26-1.65,0.53-2.47,0.8c-1.16,0.38-2.31,0.77-3.46,1.17
			c-0.57,0.2-1.13,0.4-1.7,0.6c-0.8,0.29-1.6,0.58-2.4,0.88c-0.51,0.19-1.01,0.38-1.52,0.58c-0.83,0.32-1.67,0.64-2.5,0.97
			c-0.22,0.09-0.43,0.18-0.64,0.26c-1.84,0.74-3.66,1.51-5.47,2.3c-0.33,0.14-0.66,0.29-0.99,0.43c-0.89,0.4-1.77,0.8-2.66,1.21
			c-0.35,0.16-0.7,0.33-1.05,0.49c-0.92,0.43-1.83,0.86-2.74,1.31c-0.03,0.02-0.06,0.03-0.09,0.05c-2.12,1.04-4.22,2.11-6.3,3.22
			c-0.07,0.04-0.14,0.07-0.21,0.11c-0.95,0.51-1.9,1.03-2.85,1.56c-0.22,0.13-0.45,0.25-0.67,0.38c-4.07,2.28-8.04,4.7-11.93,7.26
			c-0.15,0.1-0.31,0.2-0.46,0.31c-0.95,0.63-1.89,1.26-2.82,1.9c0,0,0,0,0,0C65.69,49.59,47.34,68.25,33.06,89.85
			c-0.1,0.15-0.2,0.31-0.3,0.46c-2.55,3.89-4.98,7.86-7.26,11.93c-0.12,0.22-0.25,0.45-0.37,0.67c-0.53,0.95-1.05,1.89-1.56,2.85
			c-0.04,0.07-0.07,0.13-0.1,0.2c-1.11,2.09-2.19,4.19-3.23,6.32c-0.01,0.02-0.02,0.05-0.04,0.07c-0.45,0.91-0.88,1.83-1.31,2.75
			c-0.16,0.35-0.33,0.69-0.49,1.04c-0.41,0.88-0.81,1.77-1.21,2.66c-0.14,0.32-0.28,0.65-0.43,0.98c-0.8,1.82-1.57,3.65-2.32,5.5
			c-0.08,0.21-0.17,0.41-0.25,0.62c-0.33,0.83-0.65,1.67-0.97,2.5c-0.19,0.5-0.39,1.01-0.58,1.51c-0.3,0.8-0.59,1.6-0.88,2.4
			c-0.2,0.56-0.4,1.13-0.6,1.69c-0.4,1.16-0.8,2.32-1.18,3.49c-0.27,0.81-0.54,1.63-0.79,2.45c-0.22,0.71-0.44,1.43-0.65,2.15
			c-0.21,0.69-0.42,1.38-0.62,2.07c-0.2,0.7-0.41,1.41-0.6,2.12c-0.21,0.76-0.42,1.52-0.62,2.28c-0.17,0.64-0.34,1.28-0.51,1.92
			c-0.33,1.31-0.65,2.62-0.96,3.94c-0.13,0.56-0.25,1.13-0.38,1.69c-0.2,0.9-0.4,1.79-0.59,2.69c-0.13,0.61-0.25,1.22-0.37,1.83
			c-0.18,0.93-0.36,1.85-0.53,2.78c-0.1,0.54-0.2,1.08-0.3,1.62c-0.25,1.41-0.49,2.83-0.7,4.25c-0.06,0.39-0.11,0.79-0.17,1.18
			c-0.16,1.11-0.32,2.22-0.47,3.33c-0.07,0.53-0.14,1.07-0.2,1.6c-0.13,1.05-0.25,2.09-0.36,3.14c-0.05,0.48-0.11,0.96-0.15,1.44
			c-0.15,1.49-0.28,2.99-0.4,4.5c-0.02,0.21-0.03,0.42-0.04,0.63c-0.1,1.33-0.18,2.66-0.25,3.99c-0.03,0.48-0.05,0.97-0.07,1.45
			c-0.05,1.12-0.09,2.23-0.13,3.36c-0.01,0.47-0.03,0.94-0.04,1.41C0.02,196.89,0,198.44,0,200c0,1.87,0.03,3.74,0.08,5.6
			c0.02,0.59,0.04,1.17,0.06,1.75c0.05,1.29,0.1,2.58,0.17,3.86c0.04,0.66,0.08,1.31,0.12,1.97c0.08,1.26,0.18,2.52,0.28,3.78
			c0.05,0.6,0.1,1.2,0.15,1.8c0.15,1.61,0.32,3.22,0.51,4.83c0.03,0.22,0.04,0.43,0.07,0.65c0.22,1.8,0.46,3.6,0.73,5.38
			c0.08,0.57,0.18,1.13,0.27,1.69c0.2,1.24,0.4,2.48,0.62,3.71c0.12,0.66,0.24,1.31,0.36,1.96c0.22,1.17,0.45,2.35,0.69,3.51
			c0.13,0.63,0.25,1.25,0.39,1.87c0.3,1.38,0.61,2.75,0.94,4.12c0.09,0.38,0.17,0.76,0.27,1.14c0.42,1.71,0.86,3.41,1.32,5.1
			c0.15,0.56,0.32,1.12,0.48,1.68c0.33,1.16,0.66,2.31,1.01,3.46c0.2,0.66,0.41,1.32,0.61,1.98c0.33,1.07,0.68,2.13,1.03,3.19
			c0.22,0.65,0.43,1.3,0.65,1.95c0.4,1.18,0.82,2.35,1.25,3.51c0.18,0.5,0.35,1,0.54,1.49c0.6,1.6,1.22,3.19,1.85,4.77
			c0.23,0.57,0.47,1.13,0.7,1.69c0.44,1.06,0.88,2.12,1.34,3.17c0.29,0.67,0.59,1.33,0.88,2c0.43,0.96,0.86,1.91,1.31,2.86
			c0.31,0.66,0.62,1.33,0.94,1.99c0.48,1.01,0.98,2.01,1.48,3.01c0.28,0.57,0.56,1.14,0.85,1.7c0.76,1.48,1.54,2.95,2.34,4.41
			c0.3,0.56,0.62,1.1,0.93,1.66c0.54,0.97,1.08,1.93,1.64,2.89c0.38,0.65,0.76,1.3,1.15,1.94c0.51,0.86,1.03,1.72,1.56,2.57
			c0.4,0.65,0.8,1.29,1.2,1.94c0.56,0.89,1.13,1.76,1.7,2.64c0.38,0.58,0.75,1.16,1.14,1.74c0.91,1.37,1.84,2.72,2.79,4.07
			c0.35,0.5,0.72,0.99,1.08,1.49c0.65,0.91,1.31,1.81,1.98,2.71c0.45,0.6,0.9,1.19,1.35,1.79c0.6,0.79,1.21,1.58,1.83,2.37
			c0.47,0.6,0.94,1.19,1.41,1.78c0.65,0.81,1.31,1.61,1.98,2.41c0.44,0.53,0.88,1.07,1.33,1.6c1.07,1.26,2.15,2.51,3.25,3.74
			c0.33,0.38,0.68,0.74,1.02,1.12c0.68,0.76,1.37,1.52,2.06,2.26L15,375h105v-35v-1.41V270l-38.01,38.01
			c-0.16-0.17-0.32-0.35-0.48-0.52c-0.64-0.71-1.28-1.42-1.91-2.13c-0.12-0.14-0.24-0.28-0.37-0.43c-1.26-1.45-2.49-2.92-3.69-4.41
			c-0.31-0.39-0.62-0.77-0.93-1.16c-0.57-0.72-1.14-1.44-1.7-2.17c-0.31-0.4-0.61-0.81-0.91-1.21c-0.95-1.27-1.88-2.55-2.8-3.84
			c-0.32-0.45-0.64-0.89-0.95-1.35c-0.49-0.72-0.98-1.44-1.46-2.16c-0.34-0.51-0.67-1.02-1-1.53c-0.63-0.97-1.26-1.95-1.87-2.94
			c-0.49-0.78-0.97-1.57-1.44-2.36c-0.41-0.69-0.81-1.38-1.21-2.07c-0.35-0.61-0.7-1.22-1.04-1.83c-0.38-0.68-0.76-1.36-1.13-2.05
			c-0.45-0.84-0.89-1.69-1.33-2.54c-0.46-0.9-0.92-1.8-1.36-2.71c-0.37-0.75-0.74-1.5-1.09-2.26c-0.31-0.65-0.61-1.3-0.91-1.95
			c-0.38-0.83-0.75-1.67-1.12-2.51c-0.31-0.71-0.62-1.42-0.92-2.13c-0.46-1.09-0.9-2.19-1.34-3.3c-0.23-0.59-0.46-1.18-0.68-1.78
			c-0.34-0.91-0.68-1.81-1-2.73c-0.19-0.54-0.39-1.08-0.58-1.62c-0.47-1.35-0.92-2.71-1.35-4.07c-0.16-0.49-0.3-0.99-0.45-1.48
			c-0.31-1.02-0.62-2.05-0.91-3.08c-0.15-0.53-0.3-1.06-0.44-1.59c-0.39-1.44-0.77-2.88-1.12-4.34c-0.07-0.27-0.12-0.54-0.19-0.81
			c-0.3-1.27-0.58-2.54-0.85-3.82c-0.1-0.5-0.21-0.99-0.31-1.49c-0.25-1.24-0.48-2.49-0.7-3.74c-0.06-0.32-0.12-0.64-0.17-0.96
			c-0.26-1.53-0.49-3.07-0.71-4.62c-0.06-0.44-0.12-0.88-0.17-1.32c-0.16-1.24-0.31-2.48-0.44-3.72c-0.04-0.41-0.09-0.82-0.13-1.24
			c-0.16-1.58-0.29-3.17-0.41-4.77c-0.02-0.32-0.04-0.64-0.06-0.96c-0.08-1.34-0.15-2.68-0.2-4.02c-0.02-0.45-0.03-0.9-0.05-1.35
			C40.03,203.29,40,201.65,40,200c0-1.59,0.03-3.18,0.08-4.76c0.01-0.48,0.04-0.96,0.05-1.45c0.04-1.12,0.1-2.25,0.16-3.36
			c0.03-0.52,0.06-1.04,0.1-1.57c0.08-1.17,0.17-2.33,0.28-3.49c0.04-0.41,0.07-0.82,0.11-1.22c0.15-1.57,0.33-3.14,0.53-4.7
			c0.02-0.13,0.04-0.25,0.05-0.38c0.19-1.43,0.39-2.85,0.62-4.26c0.07-0.41,0.14-0.82,0.2-1.23c0.2-1.17,0.4-2.34,0.62-3.5
			c0.08-0.4,0.15-0.81,0.23-1.21c0.26-1.34,0.54-2.67,0.84-4c0.04-0.18,0.08-0.35,0.12-0.53c0.36-1.58,0.74-3.15,1.15-4.72
			c0.02-0.07,0.04-0.13,0.05-0.2c0.38-1.44,0.78-2.88,1.19-4.3c0.08-0.28,0.17-0.57,0.25-0.85c0.38-1.28,0.78-2.55,1.19-3.82
			c0.08-0.23,0.15-0.47,0.23-0.7c1.51-4.55,3.21-9.01,5.1-13.37c0.07-0.16,0.14-0.33,0.21-0.49c0.6-1.36,1.21-2.72,1.85-4.06
			c0.04-0.07,0.07-0.15,0.1-0.22c1.39-2.93,2.87-5.82,4.43-8.66c14.15-25.7,35.18-47.07,60.59-61.69C120.13,54.19,120,47.11,120,40
			V20h20h67.88h53.33h20v20c0,7.5,0.23,15.01,0.65,22.51c6.35,3.79,12.4,8.02,18.14,12.62V26.78z"/>
		<path d="M348.34,140c7.5,18.53,11.66,38.78,11.66,60c0,30.6-8.59,59.19-23.49,83.49c6.27,15.16,10.51,24.01,10.6,24.18l8.61,17.83
			C383.41,291.18,400,247.53,400,200c0-20.9-3.21-41.06-9.16-60H348.34z"/>
	</g>
</g>
<path id="magazine" d="M261.21,40h-53.33H140c0,164.85,63.03,320,63.03,320l126.06-43.64C329.09,316.36,261.21,175.76,261.21,40z
	 M165,70h40l40,15l-40,15h-40V70z M169.25,128.41l39.5-6.3l41.86,8.51l-37.14,21.11l-39.5,6.3L169.25,128.41z M177.71,187.52
	l38.89-9.38l42.4,5.21l-35.37,23.96l-38.89,9.38L177.71,187.52z M200.92,272l-8.8-28.68l38.24-11.73l42.64,2.61l-33.84,26.07
	L200.92,272z M217.8,326.11l-9.49-28.46L246.26,285l42.69,1.58l-33.2,26.88L217.8,326.11z"/>
<path d="M370,0h-50v30h50v15h-20c-16.57,0-30,13.43-30,30v0v45h26.67H400V90h-50V75h20c16.57,0,30-13.43,30-30V30v0
	C400,13.43,386.57,0,370,0z"/>
</svg>
