<?xml version="1.0" encoding="UTF-8" standalone="no"?>
<!DOCTYPE svg PUBLIC "-//W3C//DTD SVG 1.1//EN" "http://www.w3.org/Graphics/SVG/1.1/DTD/svg11.dtd">
<svg width="100%" height="100%" viewBox="0 0 400 400" version="1.1" xmlns="http://www.w3.org/2000/svg" xmlns:xlink="http://www.w3.org/1999/xlink" xml:space="preserve" xmlns:serif="http://www.serif.com/" style="fill-rule:evenodd;clip-rule:evenodd;stroke-linejoin:round;stroke-miterlimit:2;">
    <g>
        <path d="M206.087,358.673C163.577,261.009 140,153.236 140,40L260,40C260,136.251 280.041,227.858 316.174,310.872L206.087,358.673ZM258.255,199.369C256.159,190.382 254.236,181.329 252.491,172.213L174.027,187.303C175.971,197.459 178.113,207.545 180.448,217.558L258.255,199.369ZM169.088,158.602L248.058,146.453C246.68,137.437 245.474,128.365 244.444,119.241L165.061,128.284C166.209,138.45 167.552,148.558 169.088,158.602ZM242.032,93.69C241.358,84.814 240.849,75.892 240.509,66.927L160.678,70C161.056,79.988 161.623,89.928 162.374,99.817L242.032,93.69ZM288.15,295.455C284.762,286.826 281.541,278.115 278.49,269.324L202.992,295.496C206.391,305.29 209.98,314.996 213.755,324.61L288.15,295.455ZM271.579,248.339C268.866,239.636 266.318,230.861 263.939,222.016L186.781,242.79C189.431,252.643 192.27,262.42 195.293,272.116L271.579,248.339Z"/>
        <path d="M370,0L320,0L320,30L370,30L370,45L350,45C333.43,45 320,58.43 320,75L320,120L400,120L400,90L350,90L350,75L370,75C386.57,75 400,61.57 400,45L400,30C400,13.43 386.57,0 370,0Z" style="fill-rule:nonzero;"/>
        <path d="M300,75.131C293.809,70.166 287.242,65.65 280.349,61.636C280.117,54.452 280,47.24 280,40C280,33.31 280.1,26.643 280.298,20L120.24,20C120.08,26.647 120,33.314 120,40C120,47.114 120.091,54.206 120.271,61.277C72.312,88.92 40,140.716 40,200C40,241.612 55.919,279.534 81.995,308.005L120,270L120,374.962L15.038,374.962L53.694,336.306C20.389,300.576 0,252.65 0,200C0,89.617 89.617,0 200,0C236.418,0 270.575,9.755 300,26.792L300,75.131ZM390.829,140C396.787,158.944 400,179.1 400,200C400,310.383 310.383,400 200,400C179.1,400 158.944,396.787 140,390.829L140,348.352C153.986,354.02 168.952,357.767 184.572,359.264C188.574,368.713 192.748,378.07 197.091,387.334L342.049,319.562C337.929,310.773 333.997,301.879 330.259,292.885C348.98,266.69 360,234.622 360,200C360,178.787 355.863,158.532 348.352,140L390.829,140Z"/>
    </g>
</svg>
