<?xml version="1.0" encoding="UTF-8" standalone="no"?>
<!DOCTYPE svg PUBLIC "-//W3C//DTD SVG 1.1//EN" "http://www.w3.org/Graphics/SVG/1.1/DTD/svg11.dtd">
<svg width="100%" height="100%" viewBox="0 0 400 400" version="1.1" xmlns="http://www.w3.org/2000/svg" xmlns:xlink="http://www.w3.org/1999/xlink" xml:space="preserve" xmlns:serif="http://www.serif.com/" style="fill-rule:evenodd;clip-rule:evenodd;stroke-linejoin:round;stroke-miterlimit:2;">
    <g id="icon">
        <g transform="matrix(16.6682,0,0,16.6682,-0.0386635,-39.5218)">
            <path d="M5.46,8.06L19.8,8.06L19.8,11.65L18.9,11.65L18.9,12.55L13.53,12.55C13.04,12.55 12.64,12.95 12.63,13.45L12.63,14.35C12.63,15.34 11.83,16.15 10.83,16.15L7.8,16.15C7.46,16.15 7.14,16.35 7,16.65L4.8,21.04C4.64,21.35 4.34,21.54 4,21.54L0.97,21.54C0.97,21.54 -1.72,21.54 1.87,16.17C1.87,16.17 4.56,12.58 0.98,12.58L0.98,8.1L1.88,8.1L2.33,7.2L5.02,7.2L5.46,8.06M11.73,14.34L11.73,13.44C11.73,12.95 11.33,12.55 10.83,12.54L9.93,12.54C9.93,12.54 9.03,13.44 9.93,14.34C8.94,14.34 8.13,13.54 8.13,12.54C7.64,12.54 7.24,12.94 7.23,13.44L7.23,14.34C7.23,14.83 7.63,15.23 8.13,15.24L10.82,15.24C11.33,15.24 11.73,14.84 11.73,14.34Z" style="fill-rule:nonzero;"/>
        </g>
        <g transform="matrix(16.6682,0,0,16.6682,-20.0309,19.9746)">
            <path d="M18,14.4L20.4,16.8L15.6,16.8L18,14.4Z" style="fill-rule:nonzero;"/>
        </g>
        <g transform="matrix(-1.3318,-1.63099e-16,1.25964e-16,-1.02857,666.252,425.143)">
            <path d="M327.565,196.667L312.548,180L259.987,180L259.987,238.333L312.548,238.333L327.565,221.667L327.565,196.667Z"/>
        </g>
        <g transform="matrix(1.16667,0,0,1,-66.6667,-5)">
            <rect x="340" y="210" width="60" height="10"/>
        </g>
    </g>
</svg>
