<?xml version="1.0" encoding="UTF-8" standalone="no"?>
<!DOCTYPE svg PUBLIC "-//W3C//DTD SVG 1.1//EN" "http://www.w3.org/Graphics/SVG/1.1/DTD/svg11.dtd">
<svg width="100%" height="100%" viewBox="0 0 400 400" version="1.1" xmlns="http://www.w3.org/2000/svg" xmlns:xlink="http://www.w3.org/1999/xlink" xml:space="preserve" xmlns:serif="http://www.serif.com/" style="fill-rule:evenodd;clip-rule:evenodd;stroke-linejoin:round;stroke-miterlimit:2;">
    <g id="icon">
        <g id="cycle">
            <path d="M94.929,320.627C123.046,345.144 159.802,360 200,360C217.458,360 234.266,357.198 250,352.019L250,393.688C234.017,397.808 217.262,400 200,400C89.617,400 0,310.383 0,200C0,134.625 31.434,76.535 80,40.031L80,70L106.754,70C66.34,99.052 40,146.474 40,200C40,219.245 43.405,237.702 49.646,254.799L22.5,281.944L78.056,337.5L94.929,320.627ZM217.24,40.92C211.576,40.312 205.824,40 200,40C182.542,40 165.733,42.802 150,47.981L150,6.312C165.983,2.192 182.738,0 200,0C287.168,0 361.386,55.885 388.749,133.75L350.788,146.404C336.474,106.184 306.513,73.357 268.245,55.265L280,20L217.24,40.92ZM393.533,149.401C397.753,165.565 400,182.522 400,200C400,265.375 368.566,323.465 320,359.969L320,320L305.786,320C333.968,295.133 353.336,260.503 358.575,221.425L375,205L393.533,149.401Z"/>
            <path d="M280,270L385,375L280,375L280,270Z"/>
            <g transform="matrix(1,0,0,1,195.867,53.4281)">
                <path d="M-180.867,-28.428L-75.867,76.572L-75.867,-28.428L-180.867,-28.428Z" style="fill-rule:nonzero;"/>
            </g>
        </g>
        <g id="single" transform="matrix(1,0,0,1,20,0)">
            <path d="M180,60L240,40L220,100L180,60Z"/>
            <path d="M170,70L210,110L160,160L120,120L170,70Z"/>
        </g>
        <g id="multi" transform="matrix(1,0,0,1,180,-60)">
            <g transform="matrix(1,0,0,1,-180,60)">
                <path d="M293.333,190L270,166.667L320,150L313.333,170L293.333,190Z"/>
            </g>
            <g transform="matrix(1,0,0,1,-180,60)">
                <path d="M275,228.333L253.333,250L220,216.667L261.667,175L285,198.333L265,218.333L275,228.333Z"/>
            </g>
            <g transform="matrix(0.833333,0,0,0.833333,5.68434e-14,176.667)">
                <path d="M180,60L240,40L220,100L180,60Z"/>
            </g>
            <g transform="matrix(0.833333,0,0,0.833333,5.68434e-14,176.667)">
                <path d="M170,70L210,110L160,160L120,120L170,70Z"/>
            </g>
        </g>
        <g id="auto" transform="matrix(1,0,0,1,-160,-2.84217e-14)">
            <g transform="matrix(1,0,0,1,80,160)">
                <path d="M180,60L240,40L220,100L180,60Z"/>
            </g>
            <g transform="matrix(1,0,0,1,160,2.84217e-14)">
                <path d="M87.62,312.38L80,320L40,280L90,230L120.06,260.06C119.378,260.02 118.691,260 118,260C98.683,260 83,275.683 83,295C83,301.324 84.681,307.258 87.62,312.38Z"/>
            </g>
            <g transform="matrix(1,0,0,1,160,2.84217e-14)">
                <path d="M136.114,312.683C126.357,322.439 110.515,322.439 100.759,312.683C91.002,302.926 91.002,287.084 100.759,277.327C110.515,267.571 126.357,267.571 136.114,277.327L146.721,287.934L157.327,277.327C167.084,267.571 182.926,267.571 192.683,277.327C202.439,287.084 202.439,302.926 192.683,312.683C182.926,322.439 167.084,322.439 157.327,312.683L146.721,302.076L136.114,312.683ZM129.043,284.398C123.189,278.544 113.684,278.544 107.83,284.398C101.976,290.252 101.976,299.758 107.83,305.612C113.684,311.465 123.189,311.465 129.043,305.612L139.65,295.005L129.043,284.398ZM153.792,295.005L164.398,305.612C170.252,311.465 179.758,311.465 185.612,305.612C191.465,299.758 191.465,290.252 185.612,284.398C179.758,278.544 170.252,278.544 164.398,284.398L153.792,295.005Z"/>
            </g>
        </g>
    </g>
</svg>
