<?xml version="1.0" encoding="utf-8"?>
<!-- Generator: Adobe Illustrator 27.4.0, SVG Export Plug-In . SVG Version: 6.00 Build 0)  -->
<svg version="1.1" xmlns="http://www.w3.org/2000/svg" xmlns:xlink="http://www.w3.org/1999/xlink" x="0px" y="0px"
	 viewBox="0 0 400 400" style="enable-background:new 0 0 400 400;" xml:space="preserve">
<g id="turret">
	<polygon points="121,91 81,131 120.7,131 150.74,101 180.74,131 220.74,131 171,81 	"/>
	<polygon points="281.16,36.28 320.55,29.33 315.34,-0.21 275.95,6.73 276.82,11.66 178.34,29.02 174.87,9.32 47.03,32.05 
		57.26,90.99 185.29,68.41 181.81,48.72 280.29,31.35 	"/>
</g>
<g id="turret2">
	<polygon points="278.57,309 318.57,269 278.86,269 248.83,299 218.83,269 178.83,269 228.57,319 	"/>
	<polygon points="118.41,363.72 79.01,370.67 84.22,400.21 123.62,393.27 122.75,388.34 221.23,370.98 224.7,390.68 352.54,367.95 
		342.31,309.01 214.28,331.59 217.76,351.28 119.27,368.65 	"/>
</g>
<g id="toggle">
	<path d="M400,110l-90-30l-20,90l38.61-21.06c7.3,15.49,11.39,32.8,11.39,51.06c0,13.27-2.16,26.03-6.13,37.96l37.96,12.65
		c5.3-15.91,8.18-32.92,8.18-50.61c0-25.2-5.83-49.04-16.22-70.25L400,110z"/>
	<path d="M70.84,252.02C63.25,236.28,59,218.64,59,200c0-13.27,2.16-26.03,6.13-37.96l-37.96-12.65C21.88,165.3,19,182.31,19,200
		c0,25.58,6.01,49.75,16.68,71.19l-35.9,19.58l90,30l20-90L70.84,252.02z"/>
</g>
</svg>
