<?xml version="1.0" encoding="utf-8"?>
<!-- Generator: Adobe Illustrator 27.4.0, SVG Export Plug-In . SVG Version: 6.00 Build 0)  -->
<svg version="1.1" xmlns="http://www.w3.org/2000/svg" xmlns:xlink="http://www.w3.org/1999/xlink" x="0px" y="0px"
	 viewBox="0 0 400 400" style="enable-background:new 0 0 400 400;" xml:space="preserve">
<g id="turret_base">
	<polygon points="200,360 160,400 199.7,400 229.74,370 259.74,400 299.74,400 250,350 	"/>
</g>
<g id="turret_gun">
	<rect x="258.16" y="287.45" transform="matrix(0.9848 -0.1736 0.1736 0.9848 -46.8179 59.7676)" width="120" height="20"/>
	<polygon points="264.29,337.41 136.26,359.99 126.03,301.05 253.87,278.32 	"/>
	<rect x="357.25" y="272.03" transform="matrix(0.9848 -0.1736 0.1736 0.9848 -44.111 69.8699)" width="40" height="30"/>
</g>
<g id="stop_monitoring">
	<path d="M137.84,101.55l40.35,40.22c0-0.64,0-1.4,0-2.04c0-21.09-17.09-38.18-38.18-38.18
		C139.24,101.55,138.6,101.55,137.84,101.55 M83.11,111.73l19.73,19.73c-0.64,2.67-1.02,5.35-1.02,8.27
		c0,21.09,17.09,38.18,38.18,38.18c2.8,0,5.6-0.38,8.27-1.02L168,196.62c-8.53,4.2-17.95,6.75-28,6.75
		c-35.15,0-63.64-28.49-63.64-63.64C76.36,129.67,78.91,120.25,83.11,111.73 M12.73,41.35l29.02,29.02l5.73,5.73
		C26.47,92.64,9.93,114.27,0,139.73c22.02,55.87,76.36,95.45,140,95.45c19.73,0,38.56-3.82,55.75-10.69l5.47,5.35L238.38,267
		l16.16-16.16L28.89,25.18 M140,76.09c35.15,0,63.64,28.49,63.64,63.64c0,8.15-1.65,16.04-4.58,23.16l37.29,37.29
		c19.09-15.91,34.36-36.78,43.65-60.45c-22.02-55.87-76.36-95.45-140-95.45c-17.82,0-34.87,3.18-50.91,8.91l27.62,27.36
		C123.96,77.75,131.73,76.09,140,76.09z"/>
</g>
</svg>
