<?xml version="1.0" encoding="utf-8"?>
<!-- Generator: Adobe Illustrator 27.4.0, SVG Export Plug-In . SVG Version: 6.00 Build 0)  -->
<svg version="1.1" xmlns="http://www.w3.org/2000/svg" xmlns:xlink="http://www.w3.org/1999/xlink" x="0px" y="0px"
	 viewBox="0 0 400 400" style="enable-background:new 0 0 400 400;" xml:space="preserve">
<g id="turret">
	<polygon points="200,360 160,400 199.7,400 229.74,370 259.74,400 299.74,400 250,350 	"/>
	<polygon points="360.16,305.28 399.55,298.33 394.34,268.79 354.95,275.73 355.82,280.66 257.34,298.02 253.87,278.32 
		126.03,301.05 136.26,359.99 264.29,337.41 260.81,317.72 359.29,300.35 	"/>
</g>
<g id="mouse">
	<g>
		<path d="M110,80V40c0-11.05,8.95-20,20-20V0.64C90.54,5.57,60,39.21,60,80v20h70C118.95,100,110,91.05,110,80z"/>
		<path d="M150,0.64V20c11.05,0,20,8.95,20,20v40c0,11.05-8.95,20-20,20h70V80C220,39.21,189.46,5.57,150,0.64z"/>
		<path d="M60,180c0,44.18,35.82,80,80,80h0c44.18,0,80-35.82,80-80v-60H60V180z"/>
	</g>
	<rect x="130" y="40" width="20" height="40"/>
</g>
</svg>
