<?xml version="1.0" encoding="utf-8"?>
<!-- Generator: Adobe Illustrator 27.4.0, SVG Export Plug-In . SVG Version: 6.00 Build 0)  -->
<svg version="1.1" id="icon" xmlns="http://www.w3.org/2000/svg" xmlns:xlink="http://www.w3.org/1999/xlink" x="0px" y="0px"
	 viewBox="0 0 400 400" style="enable-background:new 0 0 400 400;" xml:space="preserve">
<g>
	<polygon points="200.45,360 160.45,400 200.15,400 230.19,370 260.19,400 300.19,400 250.45,350 	"/>
	<polygon points="254.31,278.32 126.47,301.05 136.71,359.99 264.73,337.41 	"/>
	<polygon points="400,298.33 394.79,268.79 355.4,275.73 356.27,280.66 257.79,298.02 261.26,317.72 359.74,300.35 360.61,305.28 	
		"/>
</g>
<path d="M220,0c-55.23,0-100,44.77-100,100c0,55.23,44.77,100,100,100s100-44.77,100-100C320,44.77,275.23,0,220,0z M220,160
	c-33.14,0-60-26.86-60-60c0-33.14,26.86-60,60-60s60,26.86,60,60C280,133.14,253.14,160,220,160z"/>
<rect x="28.25" y="196.29" transform="matrix(0.7071 -0.7071 0.7071 0.7071 -123.7742 136.1827)" width="148.49" height="42.43"/>
</svg>
