<?xml version="1.0" encoding="utf-8"?>
<!-- Generator: Adobe Illustrator 27.4.0, SVG Export Plug-In . SVG Version: 6.00 Build 0)  -->
<svg version="1.1" id="icon" xmlns="http://www.w3.org/2000/svg" xmlns:xlink="http://www.w3.org/1999/xlink" x="0px" y="0px"
	 viewBox="0 0 400 400" style="enable-background:new 0 0 400 400;" xml:space="preserve">
<path d="M216.71,370.71l-7.9,7.9h48.62l-92.98-92.98c10.25-10.75,10.25-27.66,0-38.41l-47.4,12.15c-2.38,9.24,0.14,19.06,6.68,26.01
	l-92.98,93.1h48.62l-8.02-8.02l72.93-72.93L216.71,370.71z M400,134.31l-7.17,7.78l-45.09,12.15l-8.14-3.65L208.2,185.84l1.46,5.35
	l-22.24,31.48L47.89,259.98l-13.73-7.66L22,207.47l7.9-13.73l161.17-43.15l8.63,3.52l1.46,5.35l131.39-35.37l5.23-7.17l44.36-12.15
	l10.09,3.28L400,134.31z M378,50.68l-7.17,7.17l-45.09,12.15l-8.14-3.65L186.2,102.1l1.46,5.35l-22.12,33.42L26.01,178.3
	l-13.86-8.02L0,123.73L7.9,110l161.17-43.15l8.63,3.52l1.46,5.35L310.54,40.6l5.47-7.05l44.36-12.15l10.09,3.28L378,50.68z"/>
<polygon points="320,280 320,300.11 380,300.11 380,320 340,320 340,340 380,340 380,360 320,360 320,380 400,380 400,360 400,340 
	400,320 400,300.11 400,300 400,280 "/>
</svg>
